<?xml version="1.0" encoding="utf-8" standalone="no"?>
<!DOCTYPE svg PUBLIC "-//W3C//DTD SVG 1.1//EN"
  "http://www.w3.org/Graphics/SVG/1.1/DTD/svg11.dtd">
<svg xmlns:xlink="http://www.w3.org/1999/xlink" width="858.619075pt" height="519.838555pt" viewBox="0 0 858.619075 519.838555" xmlns="http://www.w3.org/2000/svg" version="1.1">
 <metadata>
  <rdf:RDF xmlns:dc="http://purl.org/dc/elements/1.1/" xmlns:cc="http://creativecommons.org/ns#" xmlns:rdf="http://www.w3.org/1999/02/22-rdf-syntax-ns#">
   <cc:Work>
    <dc:type rdf:resource="http://purl.org/dc/dcmitype/StillImage"/>
    <dc:date>2026-07-13T14:15:57.105287</dc:date>
    <dc:format>image/svg+xml</dc:format>
    <dc:creator>
     <cc:Agent>
      <dc:title>Matplotlib v3.11.0, https://matplotlib.org/</dc:title>
     </cc:Agent>
    </dc:creator>
   </cc:Work>
  </rdf:RDF>
 </metadata>
 <defs>
  <style type="text/css">*{stroke-linejoin: round; stroke-linecap: butt}</style>
 </defs>
 <g id="figure_1">
  <g id="patch_1">
   <path d="M 0 519.838555 
L 858.619075 519.838555 
L 858.619075 0 
L 0 0 
z
" style="fill: #ffffff"/>
  </g>
  <g id="axes_1">
   <g id="patch_2">
    <path d="M 75.374023 475.817656 
L 846.310387 475.817656 
L 846.310387 28.917656 
L 75.374023 28.917656 
z
" style="fill: #ffffff"/>
   </g>
   <g id="matplotlib.axis_1">
    <g id="xtick_1">
     <g id="line2d_1">
      <path d="M 140.888378 475.817656 
L 140.888378 28.917656 
" clip-path="url(#p12385bc988)" style="fill: none; stroke: #ede9df; stroke-width: 0.8; stroke-linecap: square"/>
     </g>
     <g id="line2d_2">
      <defs>
       <path id="m089ad82697" d="M 0 0 
L 0 3.5 
" style="stroke: #66788a; stroke-width: 0.8"/>
      </defs>
      <g>
       <use xlink:href="#m089ad82697" x="140.888378" y="475.817656" style="fill: #66788a; stroke: #66788a; stroke-width: 0.8"/>
      </g>
     </g>
     <g id="text_1">
      <!-- 45 -->
      <g style="fill: #66788a" transform="translate(134.525878 490.415312) scale(0.1 -0.1)">
       <defs>
        <path id="DejaVuSans-17" d="M 2419 4116 
L 825 1625 
L 2419 1625 
L 2419 4116 
z
M 2253 4666 
L 3047 4666 
L 3047 1625 
L 3713 1625 
L 3713 1100 
L 3047 1100 
L 3047 0 
L 2419 0 
L 2419 1100 
L 313 1100 
L 313 1709 
L 2253 4666 
z
" transform="scale(0.015625)"/>
        <path id="DejaVuSans-18" d="M 691 4666 
L 3169 4666 
L 3169 4134 
L 1269 4134 
L 1269 2991 
Q 1406 3038 1543 3061 
Q 1681 3084 1819 3084 
Q 2600 3084 3056 2656 
Q 3513 2228 3513 1497 
Q 3513 744 3044 326 
Q 2575 -91 1722 -91 
Q 1428 -91 1123 -41 
Q 819 9 494 109 
L 494 744 
Q 775 591 1075 516 
Q 1375 441 1709 441 
Q 2250 441 2565 725 
Q 2881 1009 2881 1497 
Q 2881 1984 2565 2268 
Q 2250 2553 1709 2553 
Q 1456 2553 1204 2497 
Q 953 2441 691 2322 
L 691 4666 
z
" transform="scale(0.015625)"/>
       </defs>
       <use xlink:href="#DejaVuSans-17"/>
       <use xlink:href="#DejaVuSans-18" transform="translate(63.625 0)"/>
      </g>
     </g>
    </g>
    <g id="xtick_2">
     <g id="line2d_3">
      <path d="M 293.247344 475.817656 
L 293.247344 28.917656 
" clip-path="url(#p12385bc988)" style="fill: none; stroke: #ede9df; stroke-width: 0.8; stroke-linecap: square"/>
     </g>
     <g id="line2d_4">
      <g>
       <use xlink:href="#m089ad82697" x="293.247344" y="475.817656" style="fill: #66788a; stroke: #66788a; stroke-width: 0.8"/>
      </g>
     </g>
     <g id="text_2">
      <!-- 50 -->
      <g style="fill: #66788a" transform="translate(286.884844 490.415312) scale(0.1 -0.1)">
       <defs>
        <path id="DejaVuSans-13" d="M 2034 4250 
Q 1547 4250 1301 3770 
Q 1056 3291 1056 2328 
Q 1056 1369 1301 889 
Q 1547 409 2034 409 
Q 2525 409 2770 889 
Q 3016 1369 3016 2328 
Q 3016 3291 2770 3770 
Q 2525 4250 2034 4250 
z
M 2034 4750 
Q 2819 4750 3233 4129 
Q 3647 3509 3647 2328 
Q 3647 1150 3233 529 
Q 2819 -91 2034 -91 
Q 1250 -91 836 529 
Q 422 1150 422 2328 
Q 422 3509 836 4129 
Q 1250 4750 2034 4750 
z
" transform="scale(0.015625)"/>
       </defs>
       <use xlink:href="#DejaVuSans-18"/>
       <use xlink:href="#DejaVuSans-13" transform="translate(63.625 0)"/>
      </g>
     </g>
    </g>
    <g id="xtick_3">
     <g id="line2d_5">
      <path d="M 445.606309 475.817656 
L 445.606309 28.917656 
" clip-path="url(#p12385bc988)" style="fill: none; stroke: #ede9df; stroke-width: 0.8; stroke-linecap: square"/>
     </g>
     <g id="line2d_6">
      <g>
       <use xlink:href="#m089ad82697" x="445.606309" y="475.817656" style="fill: #66788a; stroke: #66788a; stroke-width: 0.8"/>
      </g>
     </g>
     <g id="text_3">
      <!-- 55 -->
      <g style="fill: #66788a" transform="translate(439.243809 490.415312) scale(0.1 -0.1)">
       <use xlink:href="#DejaVuSans-18"/>
       <use xlink:href="#DejaVuSans-18" transform="translate(63.625 0)"/>
      </g>
     </g>
    </g>
    <g id="xtick_4">
     <g id="line2d_7">
      <path d="M 597.965274 475.817656 
L 597.965274 28.917656 
" clip-path="url(#p12385bc988)" style="fill: none; stroke: #ede9df; stroke-width: 0.8; stroke-linecap: square"/>
     </g>
     <g id="line2d_8">
      <g>
       <use xlink:href="#m089ad82697" x="597.965274" y="475.817656" style="fill: #66788a; stroke: #66788a; stroke-width: 0.8"/>
      </g>
     </g>
     <g id="text_4">
      <!-- 60 -->
      <g style="fill: #66788a" transform="translate(591.602774 490.415312) scale(0.1 -0.1)">
       <defs>
        <path id="DejaVuSans-19" d="M 2113 2584 
Q 1688 2584 1439 2293 
Q 1191 2003 1191 1497 
Q 1191 994 1439 701 
Q 1688 409 2113 409 
Q 2538 409 2786 701 
Q 3034 994 3034 1497 
Q 3034 2003 2786 2293 
Q 2538 2584 2113 2584 
z
M 3366 4563 
L 3366 3988 
Q 3128 4100 2886 4159 
Q 2644 4219 2406 4219 
Q 1781 4219 1451 3797 
Q 1122 3375 1075 2522 
Q 1259 2794 1537 2939 
Q 1816 3084 2150 3084 
Q 2853 3084 3261 2657 
Q 3669 2231 3669 1497 
Q 3669 778 3244 343 
Q 2819 -91 2113 -91 
Q 1303 -91 875 529 
Q 447 1150 447 2328 
Q 447 3434 972 4092 
Q 1497 4750 2381 4750 
Q 2619 4750 2861 4703 
Q 3103 4656 3366 4563 
z
" transform="scale(0.015625)"/>
       </defs>
       <use xlink:href="#DejaVuSans-19"/>
       <use xlink:href="#DejaVuSans-13" transform="translate(63.625 0)"/>
      </g>
     </g>
    </g>
    <g id="xtick_5">
     <g id="line2d_9">
      <path d="M 750.324239 475.817656 
L 750.324239 28.917656 
" clip-path="url(#p12385bc988)" style="fill: none; stroke: #ede9df; stroke-width: 0.8; stroke-linecap: square"/>
     </g>
     <g id="line2d_10">
      <g>
       <use xlink:href="#m089ad82697" x="750.324239" y="475.817656" style="fill: #66788a; stroke: #66788a; stroke-width: 0.8"/>
      </g>
     </g>
     <g id="text_5">
      <!-- 65 -->
      <g style="fill: #66788a" transform="translate(743.961739 490.415312) scale(0.1 -0.1)">
       <use xlink:href="#DejaVuSans-19"/>
       <use xlink:href="#DejaVuSans-18" transform="translate(63.625 0)"/>
      </g>
     </g>
    </g>
    <g id="text_6">
     <!-- Analytical units with at least one best-estimate OV death -->
     <g style="fill: #243b53" transform="translate(296.482947 505.555859) scale(0.115 -0.115)">
      <defs>
       <path id="DejaVuSans-24" d="M 2188 4044 
L 1331 1722 
L 3047 1722 
L 2188 4044 
z
M 1831 4666 
L 2547 4666 
L 4325 0 
L 3669 0 
L 3244 1197 
L 1141 1197 
L 716 0 
L 50 0 
L 1831 4666 
z
" transform="scale(0.015625)"/>
       <path id="DejaVuSans-51" d="M 3513 2113 
L 3513 0 
L 2938 0 
L 2938 2094 
Q 2938 2591 2744 2837 
Q 2550 3084 2163 3084 
Q 1697 3084 1428 2787 
Q 1159 2491 1159 1978 
L 1159 0 
L 581 0 
L 581 3500 
L 1159 3500 
L 1159 2956 
Q 1366 3272 1645 3428 
Q 1925 3584 2291 3584 
Q 2894 3584 3203 3211 
Q 3513 2838 3513 2113 
z
" transform="scale(0.015625)"/>
       <path id="DejaVuSans-44" d="M 2194 1759 
Q 1497 1759 1228 1600 
Q 959 1441 959 1056 
Q 959 750 1161 570 
Q 1363 391 1709 391 
Q 2188 391 2477 730 
Q 2766 1069 2766 1631 
L 2766 1759 
L 2194 1759 
z
M 3341 1997 
L 3341 0 
L 2766 0 
L 2766 531 
Q 2569 213 2275 61 
Q 1981 -91 1556 -91 
Q 1019 -91 701 211 
Q 384 513 384 1019 
Q 384 1609 779 1909 
Q 1175 2209 1959 2209 
L 2766 2209 
L 2766 2266 
Q 2766 2663 2505 2880 
Q 2244 3097 1772 3097 
Q 1472 3097 1187 3025 
Q 903 2953 641 2809 
L 641 3341 
Q 956 3463 1253 3523 
Q 1550 3584 1831 3584 
Q 2591 3584 2966 3190 
Q 3341 2797 3341 1997 
z
" transform="scale(0.015625)"/>
       <path id="DejaVuSans-4f" d="M 603 4863 
L 1178 4863 
L 1178 0 
L 603 0 
L 603 4863 
z
" transform="scale(0.015625)"/>
       <path id="DejaVuSans-5c" d="M 2059 -325 
Q 1816 -950 1584 -1140 
Q 1353 -1331 966 -1331 
L 506 -1331 
L 506 -850 
L 844 -850 
Q 1081 -850 1212 -737 
Q 1344 -625 1503 -206 
L 1606 56 
L 191 3500 
L 800 3500 
L 1894 763 
L 2988 3500 
L 3597 3500 
L 2059 -325 
z
" transform="scale(0.015625)"/>
       <path id="DejaVuSans-57" d="M 1172 4494 
L 1172 3500 
L 2356 3500 
L 2356 3053 
L 1172 3053 
L 1172 1153 
Q 1172 725 1289 603 
Q 1406 481 1766 481 
L 2356 481 
L 2356 0 
L 1766 0 
Q 1100 0 847 248 
Q 594 497 594 1153 
L 594 3053 
L 172 3053 
L 172 3500 
L 594 3500 
L 594 4494 
L 1172 4494 
z
" transform="scale(0.015625)"/>
       <path id="DejaVuSans-4c" d="M 603 3500 
L 1178 3500 
L 1178 0 
L 603 0 
L 603 3500 
z
M 603 4863 
L 1178 4863 
L 1178 4134 
L 603 4134 
L 603 4863 
z
" transform="scale(0.015625)"/>
       <path id="DejaVuSans-46" d="M 3122 3366 
L 3122 2828 
Q 2878 2963 2633 3030 
Q 2388 3097 2138 3097 
Q 1578 3097 1268 2742 
Q 959 2388 959 1747 
Q 959 1106 1268 751 
Q 1578 397 2138 397 
Q 2388 397 2633 464 
Q 2878 531 3122 666 
L 3122 134 
Q 2881 22 2623 -34 
Q 2366 -91 2075 -91 
Q 1284 -91 818 406 
Q 353 903 353 1747 
Q 353 2603 823 3093 
Q 1294 3584 2113 3584 
Q 2378 3584 2631 3529 
Q 2884 3475 3122 3366 
z
" transform="scale(0.015625)"/>
       <path id="DejaVuSans-3" transform="scale(0.015625)"/>
       <path id="DejaVuSans-58" d="M 544 1381 
L 544 3500 
L 1119 3500 
L 1119 1403 
Q 1119 906 1312 657 
Q 1506 409 1894 409 
Q 2359 409 2629 706 
Q 2900 1003 2900 1516 
L 2900 3500 
L 3475 3500 
L 3475 0 
L 2900 0 
L 2900 538 
Q 2691 219 2414 64 
Q 2138 -91 1772 -91 
Q 1169 -91 856 284 
Q 544 659 544 1381 
z
M 1991 3584 
L 1991 3584 
z
" transform="scale(0.015625)"/>
       <path id="DejaVuSans-56" d="M 2834 3397 
L 2834 2853 
Q 2591 2978 2328 3040 
Q 2066 3103 1784 3103 
Q 1356 3103 1142 2972 
Q 928 2841 928 2578 
Q 928 2378 1081 2264 
Q 1234 2150 1697 2047 
L 1894 2003 
Q 2506 1872 2764 1633 
Q 3022 1394 3022 966 
Q 3022 478 2636 193 
Q 2250 -91 1575 -91 
Q 1294 -91 989 -36 
Q 684 19 347 128 
L 347 722 
Q 666 556 975 473 
Q 1284 391 1588 391 
Q 1994 391 2212 530 
Q 2431 669 2431 922 
Q 2431 1156 2273 1281 
Q 2116 1406 1581 1522 
L 1381 1569 
Q 847 1681 609 1914 
Q 372 2147 372 2553 
Q 372 3047 722 3315 
Q 1072 3584 1716 3584 
Q 2034 3584 2315 3537 
Q 2597 3491 2834 3397 
z
" transform="scale(0.015625)"/>
       <path id="DejaVuSans-5a" d="M 269 3500 
L 844 3500 
L 1563 769 
L 2278 3500 
L 2956 3500 
L 3675 769 
L 4391 3500 
L 4966 3500 
L 4050 0 
L 3372 0 
L 2619 2869 
L 1863 0 
L 1184 0 
L 269 3500 
z
" transform="scale(0.015625)"/>
       <path id="DejaVuSans-4b" d="M 3513 2113 
L 3513 0 
L 2938 0 
L 2938 2094 
Q 2938 2591 2744 2837 
Q 2550 3084 2163 3084 
Q 1697 3084 1428 2787 
Q 1159 2491 1159 1978 
L 1159 0 
L 581 0 
L 581 4863 
L 1159 4863 
L 1159 2956 
Q 1366 3272 1645 3428 
Q 1925 3584 2291 3584 
Q 2894 3584 3203 3211 
Q 3513 2838 3513 2113 
z
" transform="scale(0.015625)"/>
       <path id="DejaVuSans-48" d="M 3597 1894 
L 3597 1613 
L 953 1613 
Q 991 1019 1311 708 
Q 1631 397 2203 397 
Q 2534 397 2845 478 
Q 3156 559 3463 722 
L 3463 178 
Q 3153 47 2828 -22 
Q 2503 -91 2169 -91 
Q 1331 -91 842 396 
Q 353 884 353 1716 
Q 353 2575 817 3079 
Q 1281 3584 2069 3584 
Q 2775 3584 3186 3129 
Q 3597 2675 3597 1894 
z
M 3022 2063 
Q 3016 2534 2758 2815 
Q 2500 3097 2075 3097 
Q 1594 3097 1305 2825 
Q 1016 2553 972 2059 
L 3022 2063 
z
" transform="scale(0.015625)"/>
       <path id="DejaVuSans-52" d="M 1959 3097 
Q 1497 3097 1228 2736 
Q 959 2375 959 1747 
Q 959 1119 1226 758 
Q 1494 397 1959 397 
Q 2419 397 2687 759 
Q 2956 1122 2956 1747 
Q 2956 2369 2687 2733 
Q 2419 3097 1959 3097 
z
M 1959 3584 
Q 2709 3584 3137 3096 
Q 3566 2609 3566 1747 
Q 3566 888 3137 398 
Q 2709 -91 1959 -91 
Q 1206 -91 779 398 
Q 353 888 353 1747 
Q 353 2609 779 3096 
Q 1206 3584 1959 3584 
z
" transform="scale(0.015625)"/>
       <path id="DejaVuSans-45" d="M 3116 1747 
Q 3116 2381 2855 2742 
Q 2594 3103 2138 3103 
Q 1681 3103 1420 2742 
Q 1159 2381 1159 1747 
Q 1159 1113 1420 752 
Q 1681 391 2138 391 
Q 2594 391 2855 752 
Q 3116 1113 3116 1747 
z
M 1159 2969 
Q 1341 3281 1617 3432 
Q 1894 3584 2278 3584 
Q 2916 3584 3314 3078 
Q 3713 2572 3713 1747 
Q 3713 922 3314 415 
Q 2916 -91 2278 -91 
Q 1894 -91 1617 61 
Q 1341 213 1159 525 
L 1159 0 
L 581 0 
L 581 4863 
L 1159 4863 
L 1159 2969 
z
" transform="scale(0.015625)"/>
       <path id="DejaVuSans-10" d="M 313 2009 
L 1997 2009 
L 1997 1497 
L 313 1497 
L 313 2009 
z
" transform="scale(0.015625)"/>
       <path id="DejaVuSans-50" d="M 3328 2828 
Q 3544 3216 3844 3400 
Q 4144 3584 4550 3584 
Q 5097 3584 5394 3201 
Q 5691 2819 5691 2113 
L 5691 0 
L 5113 0 
L 5113 2094 
Q 5113 2597 4934 2840 
Q 4756 3084 4391 3084 
Q 3944 3084 3684 2787 
Q 3425 2491 3425 1978 
L 3425 0 
L 2847 0 
L 2847 2094 
Q 2847 2600 2669 2842 
Q 2491 3084 2119 3084 
Q 1678 3084 1418 2786 
Q 1159 2488 1159 1978 
L 1159 0 
L 581 0 
L 581 3500 
L 1159 3500 
L 1159 2956 
Q 1356 3278 1631 3431 
Q 1906 3584 2284 3584 
Q 2666 3584 2933 3390 
Q 3200 3197 3328 2828 
z
" transform="scale(0.015625)"/>
       <path id="DejaVuSans-32" d="M 2522 4238 
Q 1834 4238 1429 3725 
Q 1025 3213 1025 2328 
Q 1025 1447 1429 934 
Q 1834 422 2522 422 
Q 3209 422 3611 934 
Q 4013 1447 4013 2328 
Q 4013 3213 3611 3725 
Q 3209 4238 2522 4238 
z
M 2522 4750 
Q 3503 4750 4090 4092 
Q 4678 3434 4678 2328 
Q 4678 1225 4090 567 
Q 3503 -91 2522 -91 
Q 1538 -91 948 565 
Q 359 1222 359 2328 
Q 359 3434 948 4092 
Q 1538 4750 2522 4750 
z
" transform="scale(0.015625)"/>
       <path id="DejaVuSans-39" d="M 1831 0 
L 50 4666 
L 709 4666 
L 2188 738 
L 3669 4666 
L 4325 4666 
L 2547 0 
L 1831 0 
z
" transform="scale(0.015625)"/>
       <path id="DejaVuSans-47" d="M 2906 2969 
L 2906 4863 
L 3481 4863 
L 3481 0 
L 2906 0 
L 2906 525 
Q 2725 213 2448 61 
Q 2172 -91 1784 -91 
Q 1150 -91 751 415 
Q 353 922 353 1747 
Q 353 2572 751 3078 
Q 1150 3584 1784 3584 
Q 2172 3584 2448 3432 
Q 2725 3281 2906 2969 
z
M 947 1747 
Q 947 1113 1208 752 
Q 1469 391 1925 391 
Q 2381 391 2643 752 
Q 2906 1113 2906 1747 
Q 2906 2381 2643 2742 
Q 2381 3103 1925 3103 
Q 1469 3103 1208 2742 
Q 947 2381 947 1747 
z
" transform="scale(0.015625)"/>
      </defs>
      <use xlink:href="#DejaVuSans-24"/>
      <use xlink:href="#DejaVuSans-51" transform="translate(68.40625 0)"/>
      <use xlink:href="#DejaVuSans-44" transform="translate(131.78125 0)"/>
      <use xlink:href="#DejaVuSans-4f" transform="translate(193.0625 0)"/>
      <use xlink:href="#DejaVuSans-5c" transform="translate(220.84375 0)"/>
      <use xlink:href="#DejaVuSans-57" transform="translate(280.03125 0)"/>
      <use xlink:href="#DejaVuSans-4c" transform="translate(319.234375 0)"/>
      <use xlink:href="#DejaVuSans-46" transform="translate(347.015625 0)"/>
      <use xlink:href="#DejaVuSans-44" transform="translate(402 0)"/>
      <use xlink:href="#DejaVuSans-4f" transform="translate(463.28125 0)"/>
      <use xlink:href="#DejaVuSans-3" transform="translate(491.0625 0)"/>
      <use xlink:href="#DejaVuSans-58" transform="translate(522.84375 0)"/>
      <use xlink:href="#DejaVuSans-51" transform="translate(586.21875 0)"/>
      <use xlink:href="#DejaVuSans-4c" transform="translate(649.59375 0)"/>
      <use xlink:href="#DejaVuSans-57" transform="translate(677.375 0)"/>
      <use xlink:href="#DejaVuSans-56" transform="translate(716.578125 0)"/>
      <use xlink:href="#DejaVuSans-3" transform="translate(768.671875 0)"/>
      <use xlink:href="#DejaVuSans-5a" transform="translate(800.453125 0)"/>
      <use xlink:href="#DejaVuSans-4c" transform="translate(882.234375 0)"/>
      <use xlink:href="#DejaVuSans-57" transform="translate(910.015625 0)"/>
      <use xlink:href="#DejaVuSans-4b" transform="translate(949.21875 0)"/>
      <use xlink:href="#DejaVuSans-3" transform="translate(1012.59375 0)"/>
      <use xlink:href="#DejaVuSans-44" transform="translate(1044.375 0)"/>
      <use xlink:href="#DejaVuSans-57" transform="translate(1105.65625 0)"/>
      <use xlink:href="#DejaVuSans-3" transform="translate(1144.859375 0)"/>
      <use xlink:href="#DejaVuSans-4f" transform="translate(1176.640625 0)"/>
      <use xlink:href="#DejaVuSans-48" transform="translate(1204.421875 0)"/>
      <use xlink:href="#DejaVuSans-44" transform="translate(1265.953125 0)"/>
      <use xlink:href="#DejaVuSans-56" transform="translate(1327.234375 0)"/>
      <use xlink:href="#DejaVuSans-57" transform="translate(1379.328125 0)"/>
      <use xlink:href="#DejaVuSans-3" transform="translate(1418.53125 0)"/>
      <use xlink:href="#DejaVuSans-52" transform="translate(1450.3125 0)"/>
      <use xlink:href="#DejaVuSans-51" transform="translate(1511.5 0)"/>
      <use xlink:href="#DejaVuSans-48" transform="translate(1574.875 0)"/>
      <use xlink:href="#DejaVuSans-3" transform="translate(1636.40625 0)"/>
      <use xlink:href="#DejaVuSans-45" transform="translate(1668.1875 0)"/>
      <use xlink:href="#DejaVuSans-48" transform="translate(1731.671875 0)"/>
      <use xlink:href="#DejaVuSans-56" transform="translate(1793.203125 0)"/>
      <use xlink:href="#DejaVuSans-57" transform="translate(1845.296875 0)"/>
      <use xlink:href="#DejaVuSans-10" transform="translate(1884.5 0)"/>
      <use xlink:href="#DejaVuSans-48" transform="translate(1920.578125 0)"/>
      <use xlink:href="#DejaVuSans-56" transform="translate(1982.109375 0)"/>
      <use xlink:href="#DejaVuSans-57" transform="translate(2034.203125 0)"/>
      <use xlink:href="#DejaVuSans-4c" transform="translate(2073.40625 0)"/>
      <use xlink:href="#DejaVuSans-50" transform="translate(2101.1875 0)"/>
      <use xlink:href="#DejaVuSans-44" transform="translate(2198.59375 0)"/>
      <use xlink:href="#DejaVuSans-57" transform="translate(2259.875 0)"/>
      <use xlink:href="#DejaVuSans-48" transform="translate(2299.078125 0)"/>
      <use xlink:href="#DejaVuSans-3" transform="translate(2360.609375 0)"/>
      <use xlink:href="#DejaVuSans-32" transform="translate(2392.390625 0)"/>
      <use xlink:href="#DejaVuSans-39" transform="translate(2469.359375 0)"/>
      <use xlink:href="#DejaVuSans-3" transform="translate(2537.765625 0)"/>
      <use xlink:href="#DejaVuSans-47" transform="translate(2569.546875 0)"/>
      <use xlink:href="#DejaVuSans-48" transform="translate(2633.03125 0)"/>
      <use xlink:href="#DejaVuSans-44" transform="translate(2694.5625 0)"/>
      <use xlink:href="#DejaVuSans-57" transform="translate(2755.84375 0)"/>
      <use xlink:href="#DejaVuSans-4b" transform="translate(2795.046875 0)"/>
     </g>
    </g>
   </g>
   <g id="matplotlib.axis_2">
    <g id="ytick_1">
     <g id="line2d_11">
      <path d="M 75.374023 466.225139 
L 846.310387 466.225139 
" clip-path="url(#p12385bc988)" style="fill: none; stroke: #ede9df; stroke-width: 0.8; stroke-linecap: square"/>
     </g>
     <g id="line2d_12">
      <defs>
       <path id="m52ce448837" d="M 0 0 
L -3.5 0 
" style="stroke: #66788a; stroke-width: 0.8"/>
      </defs>
      <g>
       <use xlink:href="#m52ce448837" x="75.374023" y="466.225139" style="fill: #66788a; stroke: #66788a; stroke-width: 0.8"/>
      </g>
     </g>
     <g id="text_7">
      <!-- 0 -->
      <g style="fill: #66788a" transform="translate(62.011523 470.023967) scale(0.1 -0.1)">
       <use xlink:href="#DejaVuSans-13"/>
      </g>
     </g>
    </g>
    <g id="ytick_2">
     <g id="line2d_13">
      <path d="M 75.374023 415.629958 
L 846.310387 415.629958 
" clip-path="url(#p12385bc988)" style="fill: none; stroke: #ede9df; stroke-width: 0.8; stroke-linecap: square"/>
     </g>
     <g id="line2d_14">
      <g>
       <use xlink:href="#m52ce448837" x="75.374023" y="415.629958" style="fill: #66788a; stroke: #66788a; stroke-width: 0.8"/>
      </g>
     </g>
     <g id="text_8">
      <!-- 100,000 -->
      <g style="fill: #66788a" transform="translate(27.020898 419.428786) scale(0.1 -0.1)">
       <defs>
        <path id="DejaVuSans-14" d="M 794 531 
L 1825 531 
L 1825 4091 
L 703 3866 
L 703 4441 
L 1819 4666 
L 2450 4666 
L 2450 531 
L 3481 531 
L 3481 0 
L 794 0 
L 794 531 
z
" transform="scale(0.015625)"/>
        <path id="DejaVuSans-f" d="M 750 794 
L 1409 794 
L 1409 256 
L 897 -744 
L 494 -744 
L 750 256 
L 750 794 
z
" transform="scale(0.015625)"/>
       </defs>
       <use xlink:href="#DejaVuSans-14"/>
       <use xlink:href="#DejaVuSans-13" transform="translate(63.625 0)"/>
       <use xlink:href="#DejaVuSans-13" transform="translate(127.25 0)"/>
       <use xlink:href="#DejaVuSans-f" transform="translate(190.875 0)"/>
       <use xlink:href="#DejaVuSans-13" transform="translate(222.65625 0)"/>
       <use xlink:href="#DejaVuSans-13" transform="translate(286.28125 0)"/>
       <use xlink:href="#DejaVuSans-13" transform="translate(349.90625 0)"/>
      </g>
     </g>
    </g>
    <g id="ytick_3">
     <g id="line2d_15">
      <path d="M 75.374023 365.034776 
L 846.310387 365.034776 
" clip-path="url(#p12385bc988)" style="fill: none; stroke: #ede9df; stroke-width: 0.8; stroke-linecap: square"/>
     </g>
     <g id="line2d_16">
      <g>
       <use xlink:href="#m52ce448837" x="75.374023" y="365.034776" style="fill: #66788a; stroke: #66788a; stroke-width: 0.8"/>
      </g>
     </g>
     <g id="text_9">
      <!-- 200,000 -->
      <g style="fill: #66788a" transform="translate(27.020898 368.833605) scale(0.1 -0.1)">
       <defs>
        <path id="DejaVuSans-15" d="M 1228 531 
L 3431 531 
L 3431 0 
L 469 0 
L 469 531 
Q 828 903 1448 1529 
Q 2069 2156 2228 2338 
Q 2531 2678 2651 2914 
Q 2772 3150 2772 3378 
Q 2772 3750 2511 3984 
Q 2250 4219 1831 4219 
Q 1534 4219 1204 4116 
Q 875 4013 500 3803 
L 500 4441 
Q 881 4594 1212 4672 
Q 1544 4750 1819 4750 
Q 2544 4750 2975 4387 
Q 3406 4025 3406 3419 
Q 3406 3131 3298 2873 
Q 3191 2616 2906 2266 
Q 2828 2175 2409 1742 
Q 1991 1309 1228 531 
z
" transform="scale(0.015625)"/>
       </defs>
       <use xlink:href="#DejaVuSans-15"/>
       <use xlink:href="#DejaVuSans-13" transform="translate(63.625 0)"/>
       <use xlink:href="#DejaVuSans-13" transform="translate(127.25 0)"/>
       <use xlink:href="#DejaVuSans-f" transform="translate(190.875 0)"/>
       <use xlink:href="#DejaVuSans-13" transform="translate(222.65625 0)"/>
       <use xlink:href="#DejaVuSans-13" transform="translate(286.28125 0)"/>
       <use xlink:href="#DejaVuSans-13" transform="translate(349.90625 0)"/>
      </g>
     </g>
    </g>
    <g id="ytick_4">
     <g id="line2d_17">
      <path d="M 75.374023 314.439595 
L 846.310387 314.439595 
" clip-path="url(#p12385bc988)" style="fill: none; stroke: #ede9df; stroke-width: 0.8; stroke-linecap: square"/>
     </g>
     <g id="line2d_18">
      <g>
       <use xlink:href="#m52ce448837" x="75.374023" y="314.439595" style="fill: #66788a; stroke: #66788a; stroke-width: 0.8"/>
      </g>
     </g>
     <g id="text_10">
      <!-- 300,000 -->
      <g style="fill: #66788a" transform="translate(27.020898 318.238423) scale(0.1 -0.1)">
       <defs>
        <path id="DejaVuSans-16" d="M 2597 2516 
Q 3050 2419 3304 2112 
Q 3559 1806 3559 1356 
Q 3559 666 3084 287 
Q 2609 -91 1734 -91 
Q 1441 -91 1130 -33 
Q 819 25 488 141 
L 488 750 
Q 750 597 1062 519 
Q 1375 441 1716 441 
Q 2309 441 2620 675 
Q 2931 909 2931 1356 
Q 2931 1769 2642 2001 
Q 2353 2234 1838 2234 
L 1294 2234 
L 1294 2753 
L 1863 2753 
Q 2328 2753 2575 2939 
Q 2822 3125 2822 3475 
Q 2822 3834 2567 4026 
Q 2313 4219 1838 4219 
Q 1578 4219 1281 4162 
Q 984 4106 628 3988 
L 628 4550 
Q 988 4650 1302 4700 
Q 1616 4750 1894 4750 
Q 2613 4750 3031 4423 
Q 3450 4097 3450 3541 
Q 3450 3153 3228 2886 
Q 3006 2619 2597 2516 
z
" transform="scale(0.015625)"/>
       </defs>
       <use xlink:href="#DejaVuSans-16"/>
       <use xlink:href="#DejaVuSans-13" transform="translate(63.625 0)"/>
       <use xlink:href="#DejaVuSans-13" transform="translate(127.25 0)"/>
       <use xlink:href="#DejaVuSans-f" transform="translate(190.875 0)"/>
       <use xlink:href="#DejaVuSans-13" transform="translate(222.65625 0)"/>
       <use xlink:href="#DejaVuSans-13" transform="translate(286.28125 0)"/>
       <use xlink:href="#DejaVuSans-13" transform="translate(349.90625 0)"/>
      </g>
     </g>
    </g>
    <g id="ytick_5">
     <g id="line2d_19">
      <path d="M 75.374023 263.844414 
L 846.310387 263.844414 
" clip-path="url(#p12385bc988)" style="fill: none; stroke: #ede9df; stroke-width: 0.8; stroke-linecap: square"/>
     </g>
     <g id="line2d_20">
      <g>
       <use xlink:href="#m52ce448837" x="75.374023" y="263.844414" style="fill: #66788a; stroke: #66788a; stroke-width: 0.8"/>
      </g>
     </g>
     <g id="text_11">
      <!-- 400,000 -->
      <g style="fill: #66788a" transform="translate(27.020898 267.643242) scale(0.1 -0.1)">
       <use xlink:href="#DejaVuSans-17"/>
       <use xlink:href="#DejaVuSans-13" transform="translate(63.625 0)"/>
       <use xlink:href="#DejaVuSans-13" transform="translate(127.25 0)"/>
       <use xlink:href="#DejaVuSans-f" transform="translate(190.875 0)"/>
       <use xlink:href="#DejaVuSans-13" transform="translate(222.65625 0)"/>
       <use xlink:href="#DejaVuSans-13" transform="translate(286.28125 0)"/>
       <use xlink:href="#DejaVuSans-13" transform="translate(349.90625 0)"/>
      </g>
     </g>
    </g>
    <g id="ytick_6">
     <g id="line2d_21">
      <path d="M 75.374023 213.249233 
L 846.310387 213.249233 
" clip-path="url(#p12385bc988)" style="fill: none; stroke: #ede9df; stroke-width: 0.8; stroke-linecap: square"/>
     </g>
     <g id="line2d_22">
      <g>
       <use xlink:href="#m52ce448837" x="75.374023" y="213.249233" style="fill: #66788a; stroke: #66788a; stroke-width: 0.8"/>
      </g>
     </g>
     <g id="text_12">
      <!-- 500,000 -->
      <g style="fill: #66788a" transform="translate(27.020898 217.048061) scale(0.1 -0.1)">
       <use xlink:href="#DejaVuSans-18"/>
       <use xlink:href="#DejaVuSans-13" transform="translate(63.625 0)"/>
       <use xlink:href="#DejaVuSans-13" transform="translate(127.25 0)"/>
       <use xlink:href="#DejaVuSans-f" transform="translate(190.875 0)"/>
       <use xlink:href="#DejaVuSans-13" transform="translate(222.65625 0)"/>
       <use xlink:href="#DejaVuSans-13" transform="translate(286.28125 0)"/>
       <use xlink:href="#DejaVuSans-13" transform="translate(349.90625 0)"/>
      </g>
     </g>
    </g>
    <g id="ytick_7">
     <g id="line2d_23">
      <path d="M 75.374023 162.654052 
L 846.310387 162.654052 
" clip-path="url(#p12385bc988)" style="fill: none; stroke: #ede9df; stroke-width: 0.8; stroke-linecap: square"/>
     </g>
     <g id="line2d_24">
      <g>
       <use xlink:href="#m52ce448837" x="75.374023" y="162.654052" style="fill: #66788a; stroke: #66788a; stroke-width: 0.8"/>
      </g>
     </g>
     <g id="text_13">
      <!-- 600,000 -->
      <g style="fill: #66788a" transform="translate(27.020898 166.45288) scale(0.1 -0.1)">
       <use xlink:href="#DejaVuSans-19"/>
       <use xlink:href="#DejaVuSans-13" transform="translate(63.625 0)"/>
       <use xlink:href="#DejaVuSans-13" transform="translate(127.25 0)"/>
       <use xlink:href="#DejaVuSans-f" transform="translate(190.875 0)"/>
       <use xlink:href="#DejaVuSans-13" transform="translate(222.65625 0)"/>
       <use xlink:href="#DejaVuSans-13" transform="translate(286.28125 0)"/>
       <use xlink:href="#DejaVuSans-13" transform="translate(349.90625 0)"/>
      </g>
     </g>
    </g>
    <g id="ytick_8">
     <g id="line2d_25">
      <path d="M 75.374023 112.058871 
L 846.310387 112.058871 
" clip-path="url(#p12385bc988)" style="fill: none; stroke: #ede9df; stroke-width: 0.8; stroke-linecap: square"/>
     </g>
     <g id="line2d_26">
      <g>
       <use xlink:href="#m52ce448837" x="75.374023" y="112.058871" style="fill: #66788a; stroke: #66788a; stroke-width: 0.8"/>
      </g>
     </g>
     <g id="text_14">
      <!-- 700,000 -->
      <g style="fill: #66788a" transform="translate(27.020898 115.857699) scale(0.1 -0.1)">
       <defs>
        <path id="DejaVuSans-1a" d="M 525 4666 
L 3525 4666 
L 3525 4397 
L 1831 0 
L 1172 0 
L 2766 4134 
L 525 4134 
L 525 4666 
z
" transform="scale(0.015625)"/>
       </defs>
       <use xlink:href="#DejaVuSans-1a"/>
       <use xlink:href="#DejaVuSans-13" transform="translate(63.625 0)"/>
       <use xlink:href="#DejaVuSans-13" transform="translate(127.25 0)"/>
       <use xlink:href="#DejaVuSans-f" transform="translate(190.875 0)"/>
       <use xlink:href="#DejaVuSans-13" transform="translate(222.65625 0)"/>
       <use xlink:href="#DejaVuSans-13" transform="translate(286.28125 0)"/>
       <use xlink:href="#DejaVuSans-13" transform="translate(349.90625 0)"/>
      </g>
     </g>
    </g>
    <g id="ytick_9">
     <g id="line2d_27">
      <path d="M 75.374023 61.46369 
L 846.310387 61.46369 
" clip-path="url(#p12385bc988)" style="fill: none; stroke: #ede9df; stroke-width: 0.8; stroke-linecap: square"/>
     </g>
     <g id="line2d_28">
      <g>
       <use xlink:href="#m52ce448837" x="75.374023" y="61.46369" style="fill: #66788a; stroke: #66788a; stroke-width: 0.8"/>
      </g>
     </g>
     <g id="text_15">
      <!-- 800,000 -->
      <g style="fill: #66788a" transform="translate(27.020898 65.262518) scale(0.1 -0.1)">
       <defs>
        <path id="DejaVuSans-1b" d="M 2034 2216 
Q 1584 2216 1326 1975 
Q 1069 1734 1069 1313 
Q 1069 891 1326 650 
Q 1584 409 2034 409 
Q 2484 409 2743 651 
Q 3003 894 3003 1313 
Q 3003 1734 2745 1975 
Q 2488 2216 2034 2216 
z
M 1403 2484 
Q 997 2584 770 2862 
Q 544 3141 544 3541 
Q 544 4100 942 4425 
Q 1341 4750 2034 4750 
Q 2731 4750 3128 4425 
Q 3525 4100 3525 3541 
Q 3525 3141 3298 2862 
Q 3072 2584 2669 2484 
Q 3125 2378 3379 2068 
Q 3634 1759 3634 1313 
Q 3634 634 3220 271 
Q 2806 -91 2034 -91 
Q 1263 -91 848 271 
Q 434 634 434 1313 
Q 434 1759 690 2068 
Q 947 2378 1403 2484 
z
M 1172 3481 
Q 1172 3119 1398 2916 
Q 1625 2713 2034 2713 
Q 2441 2713 2670 2916 
Q 2900 3119 2900 3481 
Q 2900 3844 2670 4047 
Q 2441 4250 2034 4250 
Q 1625 4250 1398 4047 
Q 1172 3844 1172 3481 
z
" transform="scale(0.015625)"/>
       </defs>
       <use xlink:href="#DejaVuSans-1b"/>
       <use xlink:href="#DejaVuSans-13" transform="translate(63.625 0)"/>
       <use xlink:href="#DejaVuSans-13" transform="translate(127.25 0)"/>
       <use xlink:href="#DejaVuSans-f" transform="translate(190.875 0)"/>
       <use xlink:href="#DejaVuSans-13" transform="translate(222.65625 0)"/>
       <use xlink:href="#DejaVuSans-13" transform="translate(286.28125 0)"/>
       <use xlink:href="#DejaVuSans-13" transform="translate(349.90625 0)"/>
      </g>
     </g>
    </g>
    <g id="text_16">
     <!-- Annual best-estimate OV deaths -->
     <g style="fill: #243b53" transform="translate(20.258203 345.615586) rotate(-90) scale(0.115 -0.115)">
      <use xlink:href="#DejaVuSans-24"/>
      <use xlink:href="#DejaVuSans-51" transform="translate(68.40625 0)"/>
      <use xlink:href="#DejaVuSans-51" transform="translate(131.78125 0)"/>
      <use xlink:href="#DejaVuSans-58" transform="translate(195.15625 0)"/>
      <use xlink:href="#DejaVuSans-44" transform="translate(258.53125 0)"/>
      <use xlink:href="#DejaVuSans-4f" transform="translate(319.8125 0)"/>
      <use xlink:href="#DejaVuSans-3" transform="translate(347.59375 0)"/>
      <use xlink:href="#DejaVuSans-45" transform="translate(379.375 0)"/>
      <use xlink:href="#DejaVuSans-48" transform="translate(442.859375 0)"/>
      <use xlink:href="#DejaVuSans-56" transform="translate(504.390625 0)"/>
      <use xlink:href="#DejaVuSans-57" transform="translate(556.484375 0)"/>
      <use xlink:href="#DejaVuSans-10" transform="translate(595.6875 0)"/>
      <use xlink:href="#DejaVuSans-48" transform="translate(631.765625 0)"/>
      <use xlink:href="#DejaVuSans-56" transform="translate(693.296875 0)"/>
      <use xlink:href="#DejaVuSans-57" transform="translate(745.390625 0)"/>
      <use xlink:href="#DejaVuSans-4c" transform="translate(784.59375 0)"/>
      <use xlink:href="#DejaVuSans-50" transform="translate(812.375 0)"/>
      <use xlink:href="#DejaVuSans-44" transform="translate(909.78125 0)"/>
      <use xlink:href="#DejaVuSans-57" transform="translate(971.0625 0)"/>
      <use xlink:href="#DejaVuSans-48" transform="translate(1010.265625 0)"/>
      <use xlink:href="#DejaVuSans-3" transform="translate(1071.796875 0)"/>
      <use xlink:href="#DejaVuSans-32" transform="translate(1103.578125 0)"/>
      <use xlink:href="#DejaVuSans-39" transform="translate(1180.546875 0)"/>
      <use xlink:href="#DejaVuSans-3" transform="translate(1248.953125 0)"/>
      <use xlink:href="#DejaVuSans-47" transform="translate(1280.734375 0)"/>
      <use xlink:href="#DejaVuSans-48" transform="translate(1344.21875 0)"/>
      <use xlink:href="#DejaVuSans-44" transform="translate(1405.75 0)"/>
      <use xlink:href="#DejaVuSans-57" transform="translate(1467.03125 0)"/>
      <use xlink:href="#DejaVuSans-4b" transform="translate(1506.234375 0)"/>
      <use xlink:href="#DejaVuSans-56" transform="translate(1569.609375 0)"/>
     </g>
    </g>
   </g>
   <g id="PathCollection_1">
    <defs>
     <path id="m5937417fbd" d="M 0 4.031129 
C 1.069068 4.031129 2.094493 3.606384 2.850439 2.850439 
C 3.606384 2.094493 4.031129 1.069068 4.031129 0 
C 4.031129 -1.069068 3.606384 -2.094493 2.850439 -2.850439 
C 2.094493 -3.606384 1.069068 -4.031129 0 -4.031129 
C -1.069068 -4.031129 -2.094493 -3.606384 -2.850439 -2.850439 
C -3.606384 -2.094493 -4.031129 -1.069068 -4.031129 0 
C -4.031129 1.069068 -3.606384 2.094493 -2.850439 2.850439 
C -2.094493 3.606384 -1.069068 4.031129 0 4.031129 
z
" style="stroke: #102a43; stroke-opacity: 0.75"/>
    </defs>
    <g clip-path="url(#p12385bc988)">
     <use xlink:href="#m5937417fbd" x="384.662723" y="431.663065" style="fill: #102a43; fill-opacity: 0.75; stroke: #102a43; stroke-opacity: 0.75"/>
     <use xlink:href="#m5937417fbd" x="597.965274" y="417.779241" style="fill: #102a43; fill-opacity: 0.75; stroke: #102a43; stroke-opacity: 0.75"/>
     <use xlink:href="#m5937417fbd" x="445.606309" y="423.518758" style="fill: #102a43; fill-opacity: 0.75; stroke: #102a43; stroke-opacity: 0.75"/>
     <use xlink:href="#m5937417fbd" x="689.380653" y="427.711581" style="fill: #102a43; fill-opacity: 0.75; stroke: #102a43; stroke-opacity: 0.75"/>
     <use xlink:href="#m5937417fbd" x="628.437067" y="428.667324" style="fill: #102a43; fill-opacity: 0.75; stroke: #102a43; stroke-opacity: 0.75"/>
     <use xlink:href="#m5937417fbd" x="537.021688" y="49.231293" style="fill: #102a43; fill-opacity: 0.75; stroke: #102a43; stroke-opacity: 0.75"/>
     <use xlink:href="#m5937417fbd" x="597.965274" y="434.412913" style="fill: #102a43; fill-opacity: 0.75; stroke: #102a43; stroke-opacity: 0.75"/>
     <use xlink:href="#m5937417fbd" x="506.549895" y="421.686201" style="fill: #102a43; fill-opacity: 0.75; stroke: #102a43; stroke-opacity: 0.75"/>
     <use xlink:href="#m5937417fbd" x="537.021688" y="432.587439" style="fill: #102a43; fill-opacity: 0.75; stroke: #102a43; stroke-opacity: 0.75"/>
     <use xlink:href="#m5937417fbd" x="597.965274" y="435.039281" style="fill: #102a43; fill-opacity: 0.75; stroke: #102a43; stroke-opacity: 0.75"/>
     <use xlink:href="#m5937417fbd" x="537.021688" y="414.270971" style="fill: #102a43; fill-opacity: 0.75; stroke: #102a43; stroke-opacity: 0.75"/>
     <use xlink:href="#m5937417fbd" x="476.078102" y="418.074717" style="fill: #102a43; fill-opacity: 0.75; stroke: #102a43; stroke-opacity: 0.75"/>
     <use xlink:href="#m5937417fbd" x="384.662723" y="446.792036" style="fill: #102a43; fill-opacity: 0.75; stroke: #102a43; stroke-opacity: 0.75"/>
     <use xlink:href="#m5937417fbd" x="293.247344" y="444.901294" style="fill: #102a43; fill-opacity: 0.75; stroke: #102a43; stroke-opacity: 0.75"/>
     <use xlink:href="#m5937417fbd" x="232.303758" y="445.442156" style="fill: #102a43; fill-opacity: 0.75; stroke: #102a43; stroke-opacity: 0.75"/>
     <use xlink:href="#m5937417fbd" x="384.662723" y="447.543374" style="fill: #102a43; fill-opacity: 0.75; stroke: #102a43; stroke-opacity: 0.75"/>
     <use xlink:href="#m5937417fbd" x="323.719137" y="455.50402" style="fill: #102a43; fill-opacity: 0.75; stroke: #102a43; stroke-opacity: 0.75"/>
     <use xlink:href="#m5937417fbd" x="110.416585" y="451.800453" style="fill: #102a43; fill-opacity: 0.75; stroke: #102a43; stroke-opacity: 0.75"/>
     <use xlink:href="#m5937417fbd" x="171.360171" y="451.333459" style="fill: #102a43; fill-opacity: 0.75; stroke: #102a43; stroke-opacity: 0.75"/>
     <use xlink:href="#m5937417fbd" x="384.662723" y="445.863108" style="fill: #102a43; fill-opacity: 0.75; stroke: #102a43; stroke-opacity: 0.75"/>
     <use xlink:href="#m5937417fbd" x="323.719137" y="439.787639" style="fill: #102a43; fill-opacity: 0.75; stroke: #102a43; stroke-opacity: 0.75"/>
     <use xlink:href="#m5937417fbd" x="201.831965" y="448.568432" style="fill: #102a43; fill-opacity: 0.75; stroke: #102a43; stroke-opacity: 0.75"/>
     <use xlink:href="#m5937417fbd" x="262.775551" y="444.729776" style="fill: #102a43; fill-opacity: 0.75; stroke: #102a43; stroke-opacity: 0.75"/>
     <use xlink:href="#m5937417fbd" x="384.662723" y="419.949268" style="fill: #102a43; fill-opacity: 0.75; stroke: #102a43; stroke-opacity: 0.75"/>
     <use xlink:href="#m5937417fbd" x="262.775551" y="407.759371" style="fill: #102a43; fill-opacity: 0.75; stroke: #102a43; stroke-opacity: 0.75"/>
     <use xlink:href="#m5937417fbd" x="293.247344" y="389.450493" style="fill: #102a43; fill-opacity: 0.75; stroke: #102a43; stroke-opacity: 0.75"/>
     <use xlink:href="#m5937417fbd" x="415.134516" y="399.425839" style="fill: #102a43; fill-opacity: 0.75; stroke: #102a43; stroke-opacity: 0.75"/>
     <use xlink:href="#m5937417fbd" x="567.493481" y="407.168925" style="fill: #102a43; fill-opacity: 0.75; stroke: #102a43; stroke-opacity: 0.75"/>
     <use xlink:href="#m5937417fbd" x="567.493481" y="408.709549" style="fill: #102a43; fill-opacity: 0.75; stroke: #102a43; stroke-opacity: 0.75"/>
     <use xlink:href="#m5937417fbd" x="597.965274" y="420.945487" style="fill: #102a43; fill-opacity: 0.75; stroke: #102a43; stroke-opacity: 0.75"/>
     <use xlink:href="#m5937417fbd" x="780.796032" y="426.50438" style="fill: #102a43; fill-opacity: 0.75; stroke: #102a43; stroke-opacity: 0.75"/>
     <use xlink:href="#m5937417fbd" x="567.493481" y="413.505466" style="fill: #102a43; fill-opacity: 0.75; stroke: #102a43; stroke-opacity: 0.75"/>
     <use xlink:href="#m5937417fbd" x="719.852446" y="347.322921" style="fill: #102a43; fill-opacity: 0.75; stroke: #102a43; stroke-opacity: 0.75"/>
     <use xlink:href="#m5937417fbd" x="811.267825" y="305.364844" style="fill: #102a43; fill-opacity: 0.75; stroke: #102a43; stroke-opacity: 0.75"/>
     <use xlink:href="#m5937417fbd" x="719.852446" y="379.99476" style="fill: #102a43; fill-opacity: 0.75; stroke: #102a43; stroke-opacity: 0.75"/>
     <use xlink:href="#m5937417fbd" x="628.437067" y="371.000454" style="fill: #102a43; fill-opacity: 0.75; stroke: #102a43; stroke-opacity: 0.75"/>
     <use xlink:href="#m5937417fbd" x="537.021688" y="342.032183" style="fill: #102a43; fill-opacity: 0.75; stroke: #102a43; stroke-opacity: 0.75"/>
    </g>
   </g>
   <g id="patch_3">
    <path d="M 75.374023 475.817656 
L 75.374023 28.917656 
" style="fill: none; stroke: #d8d5cc; stroke-width: 0.8; stroke-linejoin: miter; stroke-linecap: square"/>
   </g>
   <g id="patch_4">
    <path d="M 75.374023 475.817656 
L 846.310387 475.817656 
" style="fill: none; stroke: #d8d5cc; stroke-width: 0.8; stroke-linejoin: miter; stroke-linecap: square"/>
   </g>
   <g id="text_17">
    <!-- Rank correlation: 0.58 -->
    <g style="fill: #66788a" transform="translate(90.792751 58.481172) scale(0.095 -0.095)">
     <defs>
      <path id="DejaVuSans-35" d="M 2841 2188 
Q 3044 2119 3236 1894 
Q 3428 1669 3622 1275 
L 4263 0 
L 3584 0 
L 2988 1197 
Q 2756 1666 2539 1819 
Q 2322 1972 1947 1972 
L 1259 1972 
L 1259 0 
L 628 0 
L 628 4666 
L 2053 4666 
Q 2853 4666 3247 4331 
Q 3641 3997 3641 3322 
Q 3641 2881 3436 2590 
Q 3231 2300 2841 2188 
z
M 1259 4147 
L 1259 2491 
L 2053 2491 
Q 2509 2491 2742 2702 
Q 2975 2913 2975 3322 
Q 2975 3731 2742 3939 
Q 2509 4147 2053 4147 
L 1259 4147 
z
" transform="scale(0.015625)"/>
      <path id="DejaVuSans-4e" d="M 581 4863 
L 1159 4863 
L 1159 1991 
L 2875 3500 
L 3609 3500 
L 1753 1863 
L 3688 0 
L 2938 0 
L 1159 1709 
L 1159 0 
L 581 0 
L 581 4863 
z
" transform="scale(0.015625)"/>
      <path id="DejaVuSans-55" d="M 2631 2963 
Q 2534 3019 2420 3045 
Q 2306 3072 2169 3072 
Q 1681 3072 1420 2755 
Q 1159 2438 1159 1844 
L 1159 0 
L 581 0 
L 581 3500 
L 1159 3500 
L 1159 2956 
Q 1341 3275 1631 3429 
Q 1922 3584 2338 3584 
Q 2397 3584 2469 3576 
Q 2541 3569 2628 3553 
L 2631 2963 
z
" transform="scale(0.015625)"/>
      <path id="DejaVuSans-1d" d="M 750 794 
L 1409 794 
L 1409 0 
L 750 0 
L 750 794 
z
M 750 3309 
L 1409 3309 
L 1409 2516 
L 750 2516 
L 750 3309 
z
" transform="scale(0.015625)"/>
      <path id="DejaVuSans-11" d="M 684 794 
L 1344 794 
L 1344 0 
L 684 0 
L 684 794 
z
" transform="scale(0.015625)"/>
     </defs>
     <use xlink:href="#DejaVuSans-35"/>
     <use xlink:href="#DejaVuSans-44" transform="translate(67.28125 0)"/>
     <use xlink:href="#DejaVuSans-51" transform="translate(128.5625 0)"/>
     <use xlink:href="#DejaVuSans-4e" transform="translate(191.9375 0)"/>
     <use xlink:href="#DejaVuSans-3" transform="translate(249.84375 0)"/>
     <use xlink:href="#DejaVuSans-46" transform="translate(281.625 0)"/>
     <use xlink:href="#DejaVuSans-52" transform="translate(336.609375 0)"/>
     <use xlink:href="#DejaVuSans-55" transform="translate(397.796875 0)"/>
     <use xlink:href="#DejaVuSans-55" transform="translate(437.15625 0)"/>
     <use xlink:href="#DejaVuSans-48" transform="translate(476.0625 0)"/>
     <use xlink:href="#DejaVuSans-4f" transform="translate(537.59375 0)"/>
     <use xlink:href="#DejaVuSans-44" transform="translate(565.375 0)"/>
     <use xlink:href="#DejaVuSans-57" transform="translate(626.65625 0)"/>
     <use xlink:href="#DejaVuSans-4c" transform="translate(665.859375 0)"/>
     <use xlink:href="#DejaVuSans-52" transform="translate(693.640625 0)"/>
     <use xlink:href="#DejaVuSans-51" transform="translate(754.828125 0)"/>
     <use xlink:href="#DejaVuSans-1d" transform="translate(818.203125 0)"/>
     <use xlink:href="#DejaVuSans-3" transform="translate(851.890625 0)"/>
     <use xlink:href="#DejaVuSans-13" transform="translate(883.671875 0)"/>
     <use xlink:href="#DejaVuSans-11" transform="translate(947.296875 0)"/>
     <use xlink:href="#DejaVuSans-18" transform="translate(979.078125 0)"/>
     <use xlink:href="#DejaVuSans-1b" transform="translate(1042.703125 0)"/>
    </g>
   </g>
   <g id="text_18">
    <!-- 1994 -->
    <g style="fill: #243b53" transform="translate(545.021688 42.231293) scale(0.1 -0.1)">
     <defs>
      <path id="DejaVuSans-Bold-14" d="M 750 831 
L 1813 831 
L 1813 3847 
L 722 3622 
L 722 4441 
L 1806 4666 
L 2950 4666 
L 2950 831 
L 4013 831 
L 4013 0 
L 750 0 
L 750 831 
z
" transform="scale(0.015625)"/>
      <path id="DejaVuSans-Bold-1c" d="M 641 103 
L 641 966 
Q 928 831 1190 764 
Q 1453 697 1709 697 
Q 2247 697 2547 995 
Q 2847 1294 2900 1881 
Q 2688 1725 2447 1647 
Q 2206 1569 1925 1569 
Q 1209 1569 770 1986 
Q 331 2403 331 3084 
Q 331 3838 820 4291 
Q 1309 4744 2131 4744 
Q 3044 4744 3544 4128 
Q 4044 3513 4044 2388 
Q 4044 1231 3459 570 
Q 2875 -91 1856 -91 
Q 1528 -91 1228 -42 
Q 928 6 641 103 
z
M 2125 2350 
Q 2441 2350 2600 2554 
Q 2759 2759 2759 3169 
Q 2759 3575 2600 3781 
Q 2441 3988 2125 3988 
Q 1809 3988 1650 3781 
Q 1491 3575 1491 3169 
Q 1491 2759 1650 2554 
Q 1809 2350 2125 2350 
z
" transform="scale(0.015625)"/>
      <path id="DejaVuSans-Bold-17" d="M 2356 3675 
L 1038 1722 
L 2356 1722 
L 2356 3675 
z
M 2156 4666 
L 3494 4666 
L 3494 1722 
L 4159 1722 
L 4159 850 
L 3494 850 
L 3494 0 
L 2356 0 
L 2356 850 
L 288 850 
L 288 1881 
L 2156 4666 
z
" transform="scale(0.015625)"/>
     </defs>
     <use xlink:href="#DejaVuSans-Bold-14"/>
     <use xlink:href="#DejaVuSans-Bold-1c" transform="translate(69.578125 0)"/>
     <use xlink:href="#DejaVuSans-Bold-1c" transform="translate(139.15625 0)"/>
     <use xlink:href="#DejaVuSans-Bold-17" transform="translate(208.734375 0)"/>
    </g>
   </g>
   <g id="text_19">
    <!-- 2014 -->
    <g style="fill: #243b53" transform="translate(301.247344 382.450493) scale(0.1 -0.1)">
     <defs>
      <path id="DejaVuSans-Bold-15" d="M 1844 884 
L 3897 884 
L 3897 0 
L 506 0 
L 506 884 
L 2209 2388 
Q 2438 2594 2547 2791 
Q 2656 2988 2656 3200 
Q 2656 3528 2436 3728 
Q 2216 3928 1850 3928 
Q 1569 3928 1234 3808 
Q 900 3688 519 3450 
L 519 4475 
Q 925 4609 1322 4679 
Q 1719 4750 2100 4750 
Q 2938 4750 3402 4381 
Q 3866 4013 3866 3353 
Q 3866 2972 3669 2642 
Q 3472 2313 2841 1759 
L 1844 884 
z
" transform="scale(0.015625)"/>
      <path id="DejaVuSans-Bold-13" d="M 2944 2338 
Q 2944 3213 2780 3570 
Q 2616 3928 2228 3928 
Q 1841 3928 1675 3570 
Q 1509 3213 1509 2338 
Q 1509 1453 1675 1090 
Q 1841 728 2228 728 
Q 2613 728 2778 1090 
Q 2944 1453 2944 2338 
z
M 4147 2328 
Q 4147 1169 3647 539 
Q 3147 -91 2228 -91 
Q 1306 -91 806 539 
Q 306 1169 306 2328 
Q 306 3491 806 4120 
Q 1306 4750 2228 4750 
Q 3147 4750 3647 4120 
Q 4147 3491 4147 2328 
z
" transform="scale(0.015625)"/>
     </defs>
     <use xlink:href="#DejaVuSans-Bold-15"/>
     <use xlink:href="#DejaVuSans-Bold-13" transform="translate(69.578125 0)"/>
     <use xlink:href="#DejaVuSans-Bold-14" transform="translate(139.15625 0)"/>
     <use xlink:href="#DejaVuSans-Bold-17" transform="translate(208.734375 0)"/>
    </g>
   </g>
   <g id="text_20">
    <!-- 2022 -->
    <g style="fill: #243b53" transform="translate(819.267825 298.364844) scale(0.1 -0.1)">
     <use xlink:href="#DejaVuSans-Bold-15"/>
     <use xlink:href="#DejaVuSans-Bold-13" transform="translate(69.578125 0)"/>
     <use xlink:href="#DejaVuSans-Bold-15" transform="translate(139.15625 0)"/>
     <use xlink:href="#DejaVuSans-Bold-15" transform="translate(208.734375 0)"/>
    </g>
   </g>
   <g id="text_21">
    <!-- 2025 -->
    <g style="fill: #243b53" transform="translate(545.021688 335.032183) scale(0.1 -0.1)">
     <defs>
      <path id="DejaVuSans-Bold-18" d="M 678 4666 
L 3669 4666 
L 3669 3781 
L 1638 3781 
L 1638 3059 
Q 1775 3097 1914 3117 
Q 2053 3138 2203 3138 
Q 3056 3138 3531 2711 
Q 4006 2284 4006 1522 
Q 4006 766 3489 337 
Q 2972 -91 2053 -91 
Q 1656 -91 1267 -14 
Q 878 63 494 219 
L 494 1166 
Q 875 947 1217 837 
Q 1559 728 1863 728 
Q 2300 728 2551 942 
Q 2803 1156 2803 1522 
Q 2803 1891 2551 2103 
Q 2300 2316 1863 2316 
Q 1603 2316 1309 2248 
Q 1016 2181 678 2041 
L 678 4666 
z
" transform="scale(0.015625)"/>
     </defs>
     <use xlink:href="#DejaVuSans-Bold-15"/>
     <use xlink:href="#DejaVuSans-Bold-13" transform="translate(69.578125 0)"/>
     <use xlink:href="#DejaVuSans-Bold-15" transform="translate(139.15625 0)"/>
     <use xlink:href="#DejaVuSans-Bold-18" transform="translate(208.734375 0)"/>
    </g>
   </g>
   <g id="text_22">
    <!-- Intensity and diffusion are related, but not interchangeable -->
    <g style="fill: #102a43" transform="translate(238.558612 22.917656) scale(0.15 -0.15)">
     <defs>
      <path id="DejaVuSans-2c" d="M 628 4666 
L 1259 4666 
L 1259 0 
L 628 0 
L 628 4666 
z
" transform="scale(0.015625)"/>
      <path id="DejaVuSans-13ae" d="M 4531 4863 
L 4531 4384 
L 3981 4384 
Q 3672 4384 3551 4259 
Q 3431 4134 3431 3809 
L 3431 3500 
L 4378 3500 
L 4378 3053 
L 3431 3053 
L 3431 0 
L 2853 0 
L 2853 3053 
L 1275 3053 
L 1275 0 
L 697 0 
L 697 3053 
L 147 3053 
L 147 3500 
L 697 3500 
L 697 3744 
Q 697 4328 969 4595 
Q 1241 4863 1831 4863 
L 2375 4863 
L 2375 4384 
L 1825 4384 
Q 1516 4384 1394 4259 
Q 1275 4134 1275 3809 
L 1275 3500 
L 2853 3500 
L 2853 3744 
Q 2853 4328 3125 4595 
Q 3397 4863 3988 4863 
L 4531 4863 
z
" transform="scale(0.015625)"/>
      <path id="DejaVuSans-4a" d="M 2906 1791 
Q 2906 2416 2648 2759 
Q 2391 3103 1925 3103 
Q 1463 3103 1205 2759 
Q 947 2416 947 1791 
Q 947 1169 1205 825 
Q 1463 481 1925 481 
Q 2391 481 2648 825 
Q 2906 1169 2906 1791 
z
M 3481 434 
Q 3481 -459 3084 -895 
Q 2688 -1331 1869 -1331 
Q 1566 -1331 1297 -1286 
Q 1028 -1241 775 -1147 
L 775 -588 
Q 1028 -725 1275 -790 
Q 1522 -856 1778 -856 
Q 2344 -856 2625 -561 
Q 2906 -266 2906 331 
L 2906 616 
Q 2728 306 2450 153 
Q 2172 0 1784 0 
Q 1141 0 747 490 
Q 353 981 353 1791 
Q 353 2603 747 3093 
Q 1141 3584 1784 3584 
Q 2172 3584 2450 3431 
Q 2728 3278 2906 2969 
L 2906 3500 
L 3481 3500 
L 3481 434 
z
" transform="scale(0.015625)"/>
     </defs>
     <use xlink:href="#DejaVuSans-2c"/>
     <use xlink:href="#DejaVuSans-51" transform="translate(29.5 0)"/>
     <use xlink:href="#DejaVuSans-57" transform="translate(92.875 0)"/>
     <use xlink:href="#DejaVuSans-48" transform="translate(132.078125 0)"/>
     <use xlink:href="#DejaVuSans-51" transform="translate(193.609375 0)"/>
     <use xlink:href="#DejaVuSans-56" transform="translate(256.984375 0)"/>
     <use xlink:href="#DejaVuSans-4c" transform="translate(309.078125 0)"/>
     <use xlink:href="#DejaVuSans-57" transform="translate(336.859375 0)"/>
     <use xlink:href="#DejaVuSans-5c" transform="translate(376.0625 0)"/>
     <use xlink:href="#DejaVuSans-3" transform="translate(435.25 0)"/>
     <use xlink:href="#DejaVuSans-44" transform="translate(467.03125 0)"/>
     <use xlink:href="#DejaVuSans-51" transform="translate(528.3125 0)"/>
     <use xlink:href="#DejaVuSans-47" transform="translate(591.6875 0)"/>
     <use xlink:href="#DejaVuSans-3" transform="translate(655.171875 0)"/>
     <use xlink:href="#DejaVuSans-47" transform="translate(686.953125 0)"/>
     <use xlink:href="#DejaVuSans-4c" transform="translate(750.4375 0)"/>
     <use xlink:href="#DejaVuSans-13ae" transform="translate(778.21875 0)"/>
     <use xlink:href="#DejaVuSans-58" transform="translate(847.109375 0)"/>
     <use xlink:href="#DejaVuSans-56" transform="translate(910.484375 0)"/>
     <use xlink:href="#DejaVuSans-4c" transform="translate(962.578125 0)"/>
     <use xlink:href="#DejaVuSans-52" transform="translate(990.359375 0)"/>
     <use xlink:href="#DejaVuSans-51" transform="translate(1051.546875 0)"/>
     <use xlink:href="#DejaVuSans-3" transform="translate(1114.921875 0)"/>
     <use xlink:href="#DejaVuSans-44" transform="translate(1146.703125 0)"/>
     <use xlink:href="#DejaVuSans-55" transform="translate(1207.984375 0)"/>
     <use xlink:href="#DejaVuSans-48" transform="translate(1246.890625 0)"/>
     <use xlink:href="#DejaVuSans-3" transform="translate(1308.421875 0)"/>
     <use xlink:href="#DejaVuSans-55" transform="translate(1340.203125 0)"/>
     <use xlink:href="#DejaVuSans-48" transform="translate(1379.109375 0)"/>
     <use xlink:href="#DejaVuSans-4f" transform="translate(1440.640625 0)"/>
     <use xlink:href="#DejaVuSans-44" transform="translate(1468.421875 0)"/>
     <use xlink:href="#DejaVuSans-57" transform="translate(1529.703125 0)"/>
     <use xlink:href="#DejaVuSans-48" transform="translate(1568.90625 0)"/>
     <use xlink:href="#DejaVuSans-47" transform="translate(1630.4375 0)"/>
     <use xlink:href="#DejaVuSans-f" transform="translate(1693.921875 0)"/>
     <use xlink:href="#DejaVuSans-3" transform="translate(1725.703125 0)"/>
     <use xlink:href="#DejaVuSans-45" transform="translate(1757.484375 0)"/>
     <use xlink:href="#DejaVuSans-58" transform="translate(1820.96875 0)"/>
     <use xlink:href="#DejaVuSans-57" transform="translate(1884.34375 0)"/>
     <use xlink:href="#DejaVuSans-3" transform="translate(1923.546875 0)"/>
     <use xlink:href="#DejaVuSans-51" transform="translate(1955.328125 0)"/>
     <use xlink:href="#DejaVuSans-52" transform="translate(2018.703125 0)"/>
     <use xlink:href="#DejaVuSans-57" transform="translate(2079.890625 0)"/>
     <use xlink:href="#DejaVuSans-3" transform="translate(2119.09375 0)"/>
     <use xlink:href="#DejaVuSans-4c" transform="translate(2150.875 0)"/>
     <use xlink:href="#DejaVuSans-51" transform="translate(2178.65625 0)"/>
     <use xlink:href="#DejaVuSans-57" transform="translate(2242.03125 0)"/>
     <use xlink:href="#DejaVuSans-48" transform="translate(2281.234375 0)"/>
     <use xlink:href="#DejaVuSans-55" transform="translate(2342.765625 0)"/>
     <use xlink:href="#DejaVuSans-46" transform="translate(2381.671875 0)"/>
     <use xlink:href="#DejaVuSans-4b" transform="translate(2436.65625 0)"/>
     <use xlink:href="#DejaVuSans-44" transform="translate(2500.03125 0)"/>
     <use xlink:href="#DejaVuSans-51" transform="translate(2561.3125 0)"/>
     <use xlink:href="#DejaVuSans-4a" transform="translate(2624.6875 0)"/>
     <use xlink:href="#DejaVuSans-48" transform="translate(2688.171875 0)"/>
     <use xlink:href="#DejaVuSans-44" transform="translate(2749.703125 0)"/>
     <use xlink:href="#DejaVuSans-45" transform="translate(2810.984375 0)"/>
     <use xlink:href="#DejaVuSans-4f" transform="translate(2874.46875 0)"/>
     <use xlink:href="#DejaVuSans-48" transform="translate(2902.25 0)"/>
    </g>
   </g>
   <g id="PathCollection_2">
    <defs>
     <path id="m83d4d850b7" d="M 0 4.873397 
C 1.29244 4.873397 2.532119 4.359905 3.446012 3.446012 
C 4.359905 2.532119 4.873397 1.29244 4.873397 0 
C 4.873397 -1.29244 4.359905 -2.532119 3.446012 -3.446012 
C 2.532119 -4.359905 1.29244 -4.873397 0 -4.873397 
C -1.29244 -4.873397 -2.532119 -4.359905 -3.446012 -3.446012 
C -4.359905 -2.532119 -4.873397 -1.29244 -4.873397 0 
C -4.873397 1.29244 -4.359905 2.532119 -3.446012 3.446012 
C -2.532119 4.359905 -1.29244 4.873397 0 4.873397 
z
" style="stroke: #d4a44c"/>
    </defs>
    <g clip-path="url(#p12385bc988)">
     <use xlink:href="#m83d4d850b7" x="537.021688" y="49.231293" style="fill: #d4a44c; stroke: #d4a44c"/>
    </g>
   </g>
   <g id="PathCollection_3">
    <g clip-path="url(#p12385bc988)">
     <use xlink:href="#m83d4d850b7" x="293.247344" y="389.450493" style="fill: #d4a44c; stroke: #d4a44c"/>
    </g>
   </g>
   <g id="PathCollection_4">
    <g clip-path="url(#p12385bc988)">
     <use xlink:href="#m83d4d850b7" x="811.267825" y="305.364844" style="fill: #d4a44c; stroke: #d4a44c"/>
    </g>
   </g>
   <g id="PathCollection_5">
    <g clip-path="url(#p12385bc988)">
     <use xlink:href="#m83d4d850b7" x="537.021688" y="342.032183" style="fill: #d4a44c; stroke: #d4a44c"/>
    </g>
   </g>
  </g>
 </g>
 <defs>
  <clipPath id="p12385bc988">
   <rect x="75.374023" y="28.917656" width="770.936364" height="446.9"/>
  </clipPath>
 </defs>
</svg>
