<?xml version="1.0" encoding="utf-8" standalone="no"?>
<!DOCTYPE svg PUBLIC "-//W3C//DTD SVG 1.1//EN"
  "http://www.w3.org/Graphics/SVG/1.1/DTD/svg11.dtd">
<svg xmlns:xlink="http://www.w3.org/1999/xlink" width="576pt" height="360pt" viewBox="0 0 576 360" xmlns="http://www.w3.org/2000/svg" version="1.1">
 <metadata>
  <rdf:RDF xmlns:dc="http://purl.org/dc/elements/1.1/" xmlns:cc="http://creativecommons.org/ns#" xmlns:rdf="http://www.w3.org/1999/02/22-rdf-syntax-ns#">
   <cc:Work>
    <dc:type rdf:resource="http://purl.org/dc/dcmitype/StillImage"/>
    <dc:date>2026-07-16T06:50:44.845008</dc:date>
    <dc:format>image/svg+xml</dc:format>
    <dc:creator>
     <cc:Agent>
      <dc:title>Matplotlib v3.10.8, https://matplotlib.org/</dc:title>
     </cc:Agent>
    </dc:creator>
   </cc:Work>
  </rdf:RDF>
 </metadata>
 <defs>
  <style type="text/css">*{stroke-linejoin: round; stroke-linecap: butt}</style>
 </defs>
 <g id="figure_1">
  <g id="patch_1">
   <path d="M 0 360 
L 576 360 
L 576 0 
L 0 0 
L 0 360 
z
" style="fill: none"/>
  </g>
  <g id="axes_1">
   <g id="patch_2">
    <path d="M 80.64 302.4 
L 555.84 302.4 
L 555.84 25.2 
L 80.64 25.2 
L 80.64 302.4 
z
" style="fill: none"/>
   </g>
   <g id="matplotlib.axis_1">
    <g id="xtick_1">
     <g id="line2d_1">
      <path d="M 97.246627 302.4 
L 97.246627 25.2 
" clip-path="url(#p34b46cd5e2)" style="fill: none; stroke: #ede9df; stroke-width: 0.8; stroke-linecap: square"/>
     </g>
     <g id="line2d_2"/>
     <g id="text_1">
      <!-- 20k -->
      <g style="fill: #66788a" transform="translate(87.313111 317.816719) scale(0.11 -0.11)">
       <defs>
        <path id="DejaVuSansMono-32" d="M 1166 531 
L 3309 531 
L 3309 0 
L 475 0 
L 475 531 
Q 1059 1147 1496 1619 
Q 1934 2091 2100 2284 
Q 2413 2666 2522 2902 
Q 2631 3138 2631 3384 
Q 2631 3775 2401 3997 
Q 2172 4219 1772 4219 
Q 1488 4219 1175 4116 
Q 863 4013 513 3803 
L 513 4441 
Q 834 4594 1145 4672 
Q 1456 4750 1759 4750 
Q 2444 4750 2861 4386 
Q 3278 4022 3278 3431 
Q 3278 3131 3139 2831 
Q 3000 2531 2688 2169 
Q 2513 1966 2180 1606 
Q 1847 1247 1166 531 
z
" transform="scale(0.015625)"/>
        <path id="DejaVuSansMono-30" d="M 1509 2344 
Q 1509 2516 1629 2641 
Q 1750 2766 1919 2766 
Q 2094 2766 2219 2641 
Q 2344 2516 2344 2344 
Q 2344 2169 2220 2047 
Q 2097 1925 1919 1925 
Q 1744 1925 1626 2044 
Q 1509 2163 1509 2344 
z
M 1925 4250 
Q 1484 4250 1267 3775 
Q 1050 3300 1050 2328 
Q 1050 1359 1267 884 
Q 1484 409 1925 409 
Q 2369 409 2586 884 
Q 2803 1359 2803 2328 
Q 2803 3300 2586 3775 
Q 2369 4250 1925 4250 
z
M 1925 4750 
Q 2672 4750 3055 4137 
Q 3438 3525 3438 2328 
Q 3438 1134 3055 521 
Q 2672 -91 1925 -91 
Q 1178 -91 797 521 
Q 416 1134 416 2328 
Q 416 3525 797 4137 
Q 1178 4750 1925 4750 
z
" transform="scale(0.015625)"/>
        <path id="DejaVuSansMono-6b" d="M 738 4863 
L 1331 4863 
L 1331 2047 
L 2841 3500 
L 3541 3500 
L 2163 2181 
L 3756 0 
L 3053 0 
L 1759 1806 
L 1331 1403 
L 1331 0 
L 738 0 
L 738 4863 
z
" transform="scale(0.015625)"/>
       </defs>
       <use xlink:href="#DejaVuSansMono-32"/>
       <use xlink:href="#DejaVuSansMono-30" transform="translate(60.205078 0)"/>
       <use xlink:href="#DejaVuSansMono-6b" transform="translate(120.410156 0)"/>
      </g>
     </g>
    </g>
    <g id="xtick_2">
     <g id="line2d_3">
      <path d="M 205.430648 302.4 
L 205.430648 25.2 
" clip-path="url(#p34b46cd5e2)" style="fill: none; stroke: #ede9df; stroke-width: 0.8; stroke-linecap: square"/>
     </g>
     <g id="line2d_4"/>
     <g id="text_2">
      <!-- 50k -->
      <g style="fill: #66788a" transform="translate(195.497132 317.816719) scale(0.11 -0.11)">
       <defs>
        <path id="DejaVuSansMono-35" d="M 647 4666 
L 3009 4666 
L 3009 4134 
L 1222 4134 
L 1222 2988 
Q 1356 3038 1492 3061 
Q 1628 3084 1766 3084 
Q 2491 3084 2916 2656 
Q 3341 2228 3341 1497 
Q 3341 759 2895 334 
Q 2450 -91 1678 -91 
Q 1306 -91 998 -41 
Q 691 9 447 109 
L 447 750 
Q 734 594 1025 517 
Q 1316 441 1619 441 
Q 2141 441 2423 716 
Q 2706 991 2706 1497 
Q 2706 1997 2414 2275 
Q 2122 2553 1600 2553 
Q 1347 2553 1106 2495 
Q 866 2438 647 2322 
L 647 4666 
z
" transform="scale(0.015625)"/>
       </defs>
       <use xlink:href="#DejaVuSansMono-35"/>
       <use xlink:href="#DejaVuSansMono-30" transform="translate(60.205078 0)"/>
       <use xlink:href="#DejaVuSansMono-6b" transform="translate(120.410156 0)"/>
      </g>
     </g>
    </g>
    <g id="xtick_3">
     <g id="line2d_5">
      <path d="M 287.268701 302.4 
L 287.268701 25.2 
" clip-path="url(#p34b46cd5e2)" style="fill: none; stroke: #ede9df; stroke-width: 0.8; stroke-linecap: square"/>
     </g>
     <g id="line2d_6"/>
     <g id="text_3">
      <!-- 100k -->
      <g style="fill: #66788a" transform="translate(274.024014 317.816719) scale(0.11 -0.11)">
       <defs>
        <path id="DejaVuSansMono-31" d="M 844 531 
L 1825 531 
L 1825 4097 
L 769 3859 
L 769 4434 
L 1819 4666 
L 2450 4666 
L 2450 531 
L 3419 531 
L 3419 0 
L 844 0 
L 844 531 
z
" transform="scale(0.015625)"/>
       </defs>
       <use xlink:href="#DejaVuSansMono-31"/>
       <use xlink:href="#DejaVuSansMono-30" transform="translate(60.205078 0)"/>
       <use xlink:href="#DejaVuSansMono-30" transform="translate(120.410156 0)"/>
       <use xlink:href="#DejaVuSansMono-6b" transform="translate(180.615234 0)"/>
      </g>
     </g>
    </g>
    <g id="xtick_4">
     <g id="line2d_7">
      <path d="M 369.106754 302.4 
L 369.106754 25.2 
" clip-path="url(#p34b46cd5e2)" style="fill: none; stroke: #ede9df; stroke-width: 0.8; stroke-linecap: square"/>
     </g>
     <g id="line2d_8"/>
     <g id="text_4">
      <!-- 200k -->
      <g style="fill: #66788a" transform="translate(355.862067 317.816719) scale(0.11 -0.11)">
       <use xlink:href="#DejaVuSansMono-32"/>
       <use xlink:href="#DejaVuSansMono-30" transform="translate(60.205078 0)"/>
       <use xlink:href="#DejaVuSansMono-30" transform="translate(120.410156 0)"/>
       <use xlink:href="#DejaVuSansMono-6b" transform="translate(180.615234 0)"/>
      </g>
     </g>
    </g>
    <g id="xtick_5">
     <g id="line2d_9">
      <path d="M 477.290775 302.4 
L 477.290775 25.2 
" clip-path="url(#p34b46cd5e2)" style="fill: none; stroke: #ede9df; stroke-width: 0.8; stroke-linecap: square"/>
     </g>
     <g id="line2d_10"/>
     <g id="text_5">
      <!-- 500k -->
      <g style="fill: #66788a" transform="translate(464.046088 317.816719) scale(0.11 -0.11)">
       <use xlink:href="#DejaVuSansMono-35"/>
       <use xlink:href="#DejaVuSansMono-30" transform="translate(60.205078 0)"/>
       <use xlink:href="#DejaVuSansMono-30" transform="translate(120.410156 0)"/>
       <use xlink:href="#DejaVuSansMono-6b" transform="translate(180.615234 0)"/>
      </g>
     </g>
    </g>
    <g id="xtick_6">
     <g id="line2d_11">
      <defs>
       <path id="m0a3e55d9ed" d="M 0 0 
L 0 2 
" style="stroke: #66788a; stroke-width: 0.6"/>
      </defs>
      <g>
       <use xlink:href="#m0a3e55d9ed" x="145.118819" y="302.4" style="fill: #66788a; stroke: #66788a; stroke-width: 0.6"/>
      </g>
     </g>
    </g>
    <g id="xtick_7">
     <g id="line2d_12">
      <g>
       <use xlink:href="#m0a3e55d9ed" x="179.08468" y="302.4" style="fill: #66788a; stroke: #66788a; stroke-width: 0.6"/>
      </g>
     </g>
    </g>
    <g id="xtick_8">
     <g id="line2d_13">
      <g>
       <use xlink:href="#m0a3e55d9ed" x="226.956872" y="302.4" style="fill: #66788a; stroke: #66788a; stroke-width: 0.6"/>
      </g>
     </g>
    </g>
    <g id="xtick_9">
     <g id="line2d_14">
      <g>
       <use xlink:href="#m0a3e55d9ed" x="245.157034" y="302.4" style="fill: #66788a; stroke: #66788a; stroke-width: 0.6"/>
      </g>
     </g>
    </g>
    <g id="xtick_10">
     <g id="line2d_15">
      <g>
       <use xlink:href="#m0a3e55d9ed" x="260.922733" y="302.4" style="fill: #66788a; stroke: #66788a; stroke-width: 0.6"/>
      </g>
     </g>
    </g>
    <g id="xtick_11">
     <g id="line2d_16">
      <g>
       <use xlink:href="#m0a3e55d9ed" x="274.829064" y="302.4" style="fill: #66788a; stroke: #66788a; stroke-width: 0.6"/>
      </g>
     </g>
    </g>
    <g id="xtick_12">
     <g id="line2d_17">
      <g>
       <use xlink:href="#m0a3e55d9ed" x="416.978946" y="302.4" style="fill: #66788a; stroke: #66788a; stroke-width: 0.6"/>
      </g>
     </g>
    </g>
    <g id="xtick_13">
     <g id="line2d_18">
      <g>
       <use xlink:href="#m0a3e55d9ed" x="450.944807" y="302.4" style="fill: #66788a; stroke: #66788a; stroke-width: 0.6"/>
      </g>
     </g>
    </g>
    <g id="xtick_14">
     <g id="line2d_19">
      <g>
       <use xlink:href="#m0a3e55d9ed" x="498.816999" y="302.4" style="fill: #66788a; stroke: #66788a; stroke-width: 0.6"/>
      </g>
     </g>
    </g>
    <g id="xtick_15">
     <g id="line2d_20">
      <g>
       <use xlink:href="#m0a3e55d9ed" x="517.017162" y="302.4" style="fill: #66788a; stroke: #66788a; stroke-width: 0.6"/>
      </g>
     </g>
    </g>
    <g id="xtick_16">
     <g id="line2d_21">
      <g>
       <use xlink:href="#m0a3e55d9ed" x="532.78286" y="302.4" style="fill: #66788a; stroke: #66788a; stroke-width: 0.6"/>
      </g>
     </g>
    </g>
    <g id="xtick_17">
     <g id="line2d_22">
      <g>
       <use xlink:href="#m0a3e55d9ed" x="546.689191" y="302.4" style="fill: #66788a; stroke: #66788a; stroke-width: 0.6"/>
      </g>
     </g>
    </g>
    <g id="text_6">
     <!-- Annual recorded deaths — log scale -->
     <g style="fill: #243b53" transform="translate(210.119063 339.2225) scale(0.12 -0.12)">
      <defs>
       <path id="DejaVuSans-41" d="M 2188 4044 
L 1331 1722 
L 3047 1722 
L 2188 4044 
z
M 1831 4666 
L 2547 4666 
L 4325 0 
L 3669 0 
L 3244 1197 
L 1141 1197 
L 716 0 
L 50 0 
L 1831 4666 
z
" transform="scale(0.015625)"/>
       <path id="DejaVuSans-6e" d="M 3513 2113 
L 3513 0 
L 2938 0 
L 2938 2094 
Q 2938 2591 2744 2837 
Q 2550 3084 2163 3084 
Q 1697 3084 1428 2787 
Q 1159 2491 1159 1978 
L 1159 0 
L 581 0 
L 581 3500 
L 1159 3500 
L 1159 2956 
Q 1366 3272 1645 3428 
Q 1925 3584 2291 3584 
Q 2894 3584 3203 3211 
Q 3513 2838 3513 2113 
z
" transform="scale(0.015625)"/>
       <path id="DejaVuSans-75" d="M 544 1381 
L 544 3500 
L 1119 3500 
L 1119 1403 
Q 1119 906 1312 657 
Q 1506 409 1894 409 
Q 2359 409 2629 706 
Q 2900 1003 2900 1516 
L 2900 3500 
L 3475 3500 
L 3475 0 
L 2900 0 
L 2900 538 
Q 2691 219 2414 64 
Q 2138 -91 1772 -91 
Q 1169 -91 856 284 
Q 544 659 544 1381 
z
M 1991 3584 
L 1991 3584 
z
" transform="scale(0.015625)"/>
       <path id="DejaVuSans-61" d="M 2194 1759 
Q 1497 1759 1228 1600 
Q 959 1441 959 1056 
Q 959 750 1161 570 
Q 1363 391 1709 391 
Q 2188 391 2477 730 
Q 2766 1069 2766 1631 
L 2766 1759 
L 2194 1759 
z
M 3341 1997 
L 3341 0 
L 2766 0 
L 2766 531 
Q 2569 213 2275 61 
Q 1981 -91 1556 -91 
Q 1019 -91 701 211 
Q 384 513 384 1019 
Q 384 1609 779 1909 
Q 1175 2209 1959 2209 
L 2766 2209 
L 2766 2266 
Q 2766 2663 2505 2880 
Q 2244 3097 1772 3097 
Q 1472 3097 1187 3025 
Q 903 2953 641 2809 
L 641 3341 
Q 956 3463 1253 3523 
Q 1550 3584 1831 3584 
Q 2591 3584 2966 3190 
Q 3341 2797 3341 1997 
z
" transform="scale(0.015625)"/>
       <path id="DejaVuSans-6c" d="M 603 4863 
L 1178 4863 
L 1178 0 
L 603 0 
L 603 4863 
z
" transform="scale(0.015625)"/>
       <path id="DejaVuSans-20" transform="scale(0.015625)"/>
       <path id="DejaVuSans-72" d="M 2631 2963 
Q 2534 3019 2420 3045 
Q 2306 3072 2169 3072 
Q 1681 3072 1420 2755 
Q 1159 2438 1159 1844 
L 1159 0 
L 581 0 
L 581 3500 
L 1159 3500 
L 1159 2956 
Q 1341 3275 1631 3429 
Q 1922 3584 2338 3584 
Q 2397 3584 2469 3576 
Q 2541 3569 2628 3553 
L 2631 2963 
z
" transform="scale(0.015625)"/>
       <path id="DejaVuSans-65" d="M 3597 1894 
L 3597 1613 
L 953 1613 
Q 991 1019 1311 708 
Q 1631 397 2203 397 
Q 2534 397 2845 478 
Q 3156 559 3463 722 
L 3463 178 
Q 3153 47 2828 -22 
Q 2503 -91 2169 -91 
Q 1331 -91 842 396 
Q 353 884 353 1716 
Q 353 2575 817 3079 
Q 1281 3584 2069 3584 
Q 2775 3584 3186 3129 
Q 3597 2675 3597 1894 
z
M 3022 2063 
Q 3016 2534 2758 2815 
Q 2500 3097 2075 3097 
Q 1594 3097 1305 2825 
Q 1016 2553 972 2059 
L 3022 2063 
z
" transform="scale(0.015625)"/>
       <path id="DejaVuSans-63" d="M 3122 3366 
L 3122 2828 
Q 2878 2963 2633 3030 
Q 2388 3097 2138 3097 
Q 1578 3097 1268 2742 
Q 959 2388 959 1747 
Q 959 1106 1268 751 
Q 1578 397 2138 397 
Q 2388 397 2633 464 
Q 2878 531 3122 666 
L 3122 134 
Q 2881 22 2623 -34 
Q 2366 -91 2075 -91 
Q 1284 -91 818 406 
Q 353 903 353 1747 
Q 353 2603 823 3093 
Q 1294 3584 2113 3584 
Q 2378 3584 2631 3529 
Q 2884 3475 3122 3366 
z
" transform="scale(0.015625)"/>
       <path id="DejaVuSans-6f" d="M 1959 3097 
Q 1497 3097 1228 2736 
Q 959 2375 959 1747 
Q 959 1119 1226 758 
Q 1494 397 1959 397 
Q 2419 397 2687 759 
Q 2956 1122 2956 1747 
Q 2956 2369 2687 2733 
Q 2419 3097 1959 3097 
z
M 1959 3584 
Q 2709 3584 3137 3096 
Q 3566 2609 3566 1747 
Q 3566 888 3137 398 
Q 2709 -91 1959 -91 
Q 1206 -91 779 398 
Q 353 888 353 1747 
Q 353 2609 779 3096 
Q 1206 3584 1959 3584 
z
" transform="scale(0.015625)"/>
       <path id="DejaVuSans-64" d="M 2906 2969 
L 2906 4863 
L 3481 4863 
L 3481 0 
L 2906 0 
L 2906 525 
Q 2725 213 2448 61 
Q 2172 -91 1784 -91 
Q 1150 -91 751 415 
Q 353 922 353 1747 
Q 353 2572 751 3078 
Q 1150 3584 1784 3584 
Q 2172 3584 2448 3432 
Q 2725 3281 2906 2969 
z
M 947 1747 
Q 947 1113 1208 752 
Q 1469 391 1925 391 
Q 2381 391 2643 752 
Q 2906 1113 2906 1747 
Q 2906 2381 2643 2742 
Q 2381 3103 1925 3103 
Q 1469 3103 1208 2742 
Q 947 2381 947 1747 
z
" transform="scale(0.015625)"/>
       <path id="DejaVuSans-74" d="M 1172 4494 
L 1172 3500 
L 2356 3500 
L 2356 3053 
L 1172 3053 
L 1172 1153 
Q 1172 725 1289 603 
Q 1406 481 1766 481 
L 2356 481 
L 2356 0 
L 1766 0 
Q 1100 0 847 248 
Q 594 497 594 1153 
L 594 3053 
L 172 3053 
L 172 3500 
L 594 3500 
L 594 4494 
L 1172 4494 
z
" transform="scale(0.015625)"/>
       <path id="DejaVuSans-68" d="M 3513 2113 
L 3513 0 
L 2938 0 
L 2938 2094 
Q 2938 2591 2744 2837 
Q 2550 3084 2163 3084 
Q 1697 3084 1428 2787 
Q 1159 2491 1159 1978 
L 1159 0 
L 581 0 
L 581 4863 
L 1159 4863 
L 1159 2956 
Q 1366 3272 1645 3428 
Q 1925 3584 2291 3584 
Q 2894 3584 3203 3211 
Q 3513 2838 3513 2113 
z
" transform="scale(0.015625)"/>
       <path id="DejaVuSans-73" d="M 2834 3397 
L 2834 2853 
Q 2591 2978 2328 3040 
Q 2066 3103 1784 3103 
Q 1356 3103 1142 2972 
Q 928 2841 928 2578 
Q 928 2378 1081 2264 
Q 1234 2150 1697 2047 
L 1894 2003 
Q 2506 1872 2764 1633 
Q 3022 1394 3022 966 
Q 3022 478 2636 193 
Q 2250 -91 1575 -91 
Q 1294 -91 989 -36 
Q 684 19 347 128 
L 347 722 
Q 666 556 975 473 
Q 1284 391 1588 391 
Q 1994 391 2212 530 
Q 2431 669 2431 922 
Q 2431 1156 2273 1281 
Q 2116 1406 1581 1522 
L 1381 1569 
Q 847 1681 609 1914 
Q 372 2147 372 2553 
Q 372 3047 722 3315 
Q 1072 3584 1716 3584 
Q 2034 3584 2315 3537 
Q 2597 3491 2834 3397 
z
" transform="scale(0.015625)"/>
       <path id="DejaVuSans-2014" d="M 313 1978 
L 6088 1978 
L 6088 1528 
L 313 1528 
L 313 1978 
z
" transform="scale(0.015625)"/>
       <path id="DejaVuSans-67" d="M 2906 1791 
Q 2906 2416 2648 2759 
Q 2391 3103 1925 3103 
Q 1463 3103 1205 2759 
Q 947 2416 947 1791 
Q 947 1169 1205 825 
Q 1463 481 1925 481 
Q 2391 481 2648 825 
Q 2906 1169 2906 1791 
z
M 3481 434 
Q 3481 -459 3084 -895 
Q 2688 -1331 1869 -1331 
Q 1566 -1331 1297 -1286 
Q 1028 -1241 775 -1147 
L 775 -588 
Q 1028 -725 1275 -790 
Q 1522 -856 1778 -856 
Q 2344 -856 2625 -561 
Q 2906 -266 2906 331 
L 2906 616 
Q 2728 306 2450 153 
Q 2172 0 1784 0 
Q 1141 0 747 490 
Q 353 981 353 1791 
Q 353 2603 747 3093 
Q 1141 3584 1784 3584 
Q 2172 3584 2450 3431 
Q 2728 3278 2906 2969 
L 2906 3500 
L 3481 3500 
L 3481 434 
z
" transform="scale(0.015625)"/>
      </defs>
      <use xlink:href="#DejaVuSans-41"/>
      <use xlink:href="#DejaVuSans-6e" transform="translate(68.408203 0)"/>
      <use xlink:href="#DejaVuSans-6e" transform="translate(131.787109 0)"/>
      <use xlink:href="#DejaVuSans-75" transform="translate(195.166016 0)"/>
      <use xlink:href="#DejaVuSans-61" transform="translate(258.544922 0)"/>
      <use xlink:href="#DejaVuSans-6c" transform="translate(319.824219 0)"/>
      <use xlink:href="#DejaVuSans-20" transform="translate(347.607422 0)"/>
      <use xlink:href="#DejaVuSans-72" transform="translate(379.394531 0)"/>
      <use xlink:href="#DejaVuSans-65" transform="translate(418.257812 0)"/>
      <use xlink:href="#DejaVuSans-63" transform="translate(479.78125 0)"/>
      <use xlink:href="#DejaVuSans-6f" transform="translate(534.761719 0)"/>
      <use xlink:href="#DejaVuSans-72" transform="translate(595.943359 0)"/>
      <use xlink:href="#DejaVuSans-64" transform="translate(635.306641 0)"/>
      <use xlink:href="#DejaVuSans-65" transform="translate(698.783203 0)"/>
      <use xlink:href="#DejaVuSans-64" transform="translate(760.306641 0)"/>
      <use xlink:href="#DejaVuSans-20" transform="translate(823.783203 0)"/>
      <use xlink:href="#DejaVuSans-64" transform="translate(855.570312 0)"/>
      <use xlink:href="#DejaVuSans-65" transform="translate(919.046875 0)"/>
      <use xlink:href="#DejaVuSans-61" transform="translate(980.570312 0)"/>
      <use xlink:href="#DejaVuSans-74" transform="translate(1041.849609 0)"/>
      <use xlink:href="#DejaVuSans-68" transform="translate(1081.058594 0)"/>
      <use xlink:href="#DejaVuSans-73" transform="translate(1144.4375 0)"/>
      <use xlink:href="#DejaVuSans-20" transform="translate(1196.537109 0)"/>
      <use xlink:href="#DejaVuSans-2014" transform="translate(1228.324219 0)"/>
      <use xlink:href="#DejaVuSans-20" transform="translate(1328.324219 0)"/>
      <use xlink:href="#DejaVuSans-6c" transform="translate(1360.111328 0)"/>
      <use xlink:href="#DejaVuSans-6f" transform="translate(1387.894531 0)"/>
      <use xlink:href="#DejaVuSans-67" transform="translate(1449.076172 0)"/>
      <use xlink:href="#DejaVuSans-20" transform="translate(1512.552734 0)"/>
      <use xlink:href="#DejaVuSans-73" transform="translate(1544.339844 0)"/>
      <use xlink:href="#DejaVuSans-63" transform="translate(1596.439453 0)"/>
      <use xlink:href="#DejaVuSans-61" transform="translate(1651.419922 0)"/>
      <use xlink:href="#DejaVuSans-6c" transform="translate(1712.699219 0)"/>
      <use xlink:href="#DejaVuSans-65" transform="translate(1740.482422 0)"/>
     </g>
    </g>
   </g>
   <g id="matplotlib.axis_2">
    <g id="ytick_1">
     <g id="line2d_23">
      <path d="M 80.64 302.4 
L 555.84 302.4 
" clip-path="url(#p34b46cd5e2)" style="fill: none; stroke: #ede9df; stroke-width: 0.8; stroke-linecap: square"/>
     </g>
     <g id="line2d_24"/>
     <g id="text_7">
      <!-- 10% -->
      <g style="fill: #66788a" transform="translate(53.772969 306.608359) scale(0.11 -0.11)">
       <defs>
        <path id="DejaVuSansMono-25" d="M 2175 997 
Q 2175 753 2339 587 
Q 2503 422 2747 422 
Q 2988 422 3155 589 
Q 3322 756 3322 997 
Q 3322 1238 3153 1406 
Q 2984 1575 2747 1575 
Q 2503 1575 2339 1409 
Q 2175 1244 2175 997 
z
M 1753 997 
Q 1753 1419 2040 1708 
Q 2328 1997 2747 1997 
Q 2947 1997 3126 1922 
Q 3306 1847 3450 1703 
Q 3594 1556 3672 1375 
Q 3750 1194 3750 997 
Q 3750 581 3459 290 
Q 3169 0 2747 0 
Q 2322 0 2037 286 
Q 1753 572 1753 997 
z
M 378 1453 
L 269 1753 
L 3525 3059 
L 3653 2759 
L 378 1453 
z
M 525 3475 
Q 525 3228 689 3064 
Q 853 2900 1100 2900 
Q 1341 2900 1509 3067 
Q 1678 3234 1678 3475 
Q 1678 3716 1509 3883 
Q 1341 4050 1100 4050 
Q 859 4050 692 3884 
Q 525 3719 525 3475 
z
M 103 3475 
Q 103 3897 390 4186 
Q 678 4475 1100 4475 
Q 1300 4475 1483 4400 
Q 1666 4325 1806 4184 
Q 1947 4044 2023 3861 
Q 2100 3678 2100 3475 
Q 2100 3056 1809 2767 
Q 1519 2478 1100 2478 
Q 678 2478 390 2765 
Q 103 3053 103 3475 
z
" transform="scale(0.015625)"/>
       </defs>
       <use xlink:href="#DejaVuSansMono-31"/>
       <use xlink:href="#DejaVuSansMono-30" transform="translate(60.205078 0)"/>
       <use xlink:href="#DejaVuSansMono-25" transform="translate(120.410156 0)"/>
      </g>
     </g>
    </g>
    <g id="ytick_2">
     <g id="line2d_25">
      <path d="M 80.64 271.6 
L 555.84 271.6 
" clip-path="url(#p34b46cd5e2)" style="fill: none; stroke: #ede9df; stroke-width: 0.8; stroke-linecap: square"/>
     </g>
     <g id="line2d_26"/>
     <g id="text_8">
      <!-- 20% -->
      <g style="fill: #66788a" transform="translate(53.772969 275.808359) scale(0.11 -0.11)">
       <use xlink:href="#DejaVuSansMono-32"/>
       <use xlink:href="#DejaVuSansMono-30" transform="translate(60.205078 0)"/>
       <use xlink:href="#DejaVuSansMono-25" transform="translate(120.410156 0)"/>
      </g>
     </g>
    </g>
    <g id="ytick_3">
     <g id="line2d_27">
      <path d="M 80.64 240.8 
L 555.84 240.8 
" clip-path="url(#p34b46cd5e2)" style="fill: none; stroke: #ede9df; stroke-width: 0.8; stroke-linecap: square"/>
     </g>
     <g id="line2d_28"/>
     <g id="text_9">
      <!-- 30% -->
      <g style="fill: #66788a" transform="translate(53.772969 245.008359) scale(0.11 -0.11)">
       <defs>
        <path id="DejaVuSansMono-33" d="M 2425 2497 
Q 2884 2375 3128 2064 
Q 3372 1753 3372 1288 
Q 3372 644 2939 276 
Q 2506 -91 1741 -91 
Q 1419 -91 1084 -31 
Q 750 28 428 141 
L 428 769 
Q 747 603 1056 522 
Q 1366 441 1672 441 
Q 2191 441 2469 675 
Q 2747 909 2747 1350 
Q 2747 1756 2469 1995 
Q 2191 2234 1716 2234 
L 1234 2234 
L 1234 2753 
L 1716 2753 
Q 2150 2753 2394 2943 
Q 2638 3134 2638 3475 
Q 2638 3834 2411 4026 
Q 2184 4219 1766 4219 
Q 1488 4219 1191 4156 
Q 894 4094 569 3969 
L 569 4550 
Q 947 4650 1242 4700 
Q 1538 4750 1766 4750 
Q 2447 4750 2855 4408 
Q 3263 4066 3263 3500 
Q 3263 3116 3048 2859 
Q 2834 2603 2425 2497 
z
" transform="scale(0.015625)"/>
       </defs>
       <use xlink:href="#DejaVuSansMono-33"/>
       <use xlink:href="#DejaVuSansMono-30" transform="translate(60.205078 0)"/>
       <use xlink:href="#DejaVuSansMono-25" transform="translate(120.410156 0)"/>
      </g>
     </g>
    </g>
    <g id="ytick_4">
     <g id="line2d_29">
      <path d="M 80.64 210 
L 555.84 210 
" clip-path="url(#p34b46cd5e2)" style="fill: none; stroke: #ede9df; stroke-width: 0.8; stroke-linecap: square"/>
     </g>
     <g id="line2d_30"/>
     <g id="text_10">
      <!-- 40% -->
      <g style="fill: #66788a" transform="translate(53.772969 214.208359) scale(0.11 -0.11)">
       <defs>
        <path id="DejaVuSansMono-34" d="M 2297 4091 
L 825 1625 
L 2297 1625 
L 2297 4091 
z
M 2194 4666 
L 2925 4666 
L 2925 1625 
L 3547 1625 
L 3547 1113 
L 2925 1113 
L 2925 0 
L 2297 0 
L 2297 1113 
L 319 1113 
L 319 1709 
L 2194 4666 
z
" transform="scale(0.015625)"/>
       </defs>
       <use xlink:href="#DejaVuSansMono-34"/>
       <use xlink:href="#DejaVuSansMono-30" transform="translate(60.205078 0)"/>
       <use xlink:href="#DejaVuSansMono-25" transform="translate(120.410156 0)"/>
      </g>
     </g>
    </g>
    <g id="ytick_5">
     <g id="line2d_31">
      <path d="M 80.64 179.2 
L 555.84 179.2 
" clip-path="url(#p34b46cd5e2)" style="fill: none; stroke: #ede9df; stroke-width: 0.8; stroke-linecap: square"/>
     </g>
     <g id="line2d_32"/>
     <g id="text_11">
      <!-- 50% -->
      <g style="fill: #66788a" transform="translate(53.772969 183.408359) scale(0.11 -0.11)">
       <use xlink:href="#DejaVuSansMono-35"/>
       <use xlink:href="#DejaVuSansMono-30" transform="translate(60.205078 0)"/>
       <use xlink:href="#DejaVuSansMono-25" transform="translate(120.410156 0)"/>
      </g>
     </g>
    </g>
    <g id="ytick_6">
     <g id="line2d_33">
      <path d="M 80.64 148.4 
L 555.84 148.4 
" clip-path="url(#p34b46cd5e2)" style="fill: none; stroke: #ede9df; stroke-width: 0.8; stroke-linecap: square"/>
     </g>
     <g id="line2d_34"/>
     <g id="text_12">
      <!-- 60% -->
      <g style="fill: #66788a" transform="translate(53.772969 152.608359) scale(0.11 -0.11)">
       <defs>
        <path id="DejaVuSansMono-36" d="M 3097 4563 
L 3097 3981 
Q 2900 4097 2678 4158 
Q 2456 4219 2216 4219 
Q 1616 4219 1306 3767 
Q 997 3316 997 2438 
Q 1147 2750 1412 2917 
Q 1678 3084 2022 3084 
Q 2697 3084 3067 2670 
Q 3438 2256 3438 1497 
Q 3438 741 3056 325 
Q 2675 -91 1984 -91 
Q 1172 -91 794 492 
Q 416 1075 416 2328 
Q 416 3509 870 4129 
Q 1325 4750 2188 4750 
Q 2419 4750 2650 4701 
Q 2881 4653 3097 4563 
z
M 1972 2591 
Q 1569 2591 1337 2300 
Q 1106 2009 1106 1497 
Q 1106 984 1337 693 
Q 1569 403 1972 403 
Q 2391 403 2603 679 
Q 2816 956 2816 1497 
Q 2816 2041 2603 2316 
Q 2391 2591 1972 2591 
z
" transform="scale(0.015625)"/>
       </defs>
       <use xlink:href="#DejaVuSansMono-36"/>
       <use xlink:href="#DejaVuSansMono-30" transform="translate(60.205078 0)"/>
       <use xlink:href="#DejaVuSansMono-25" transform="translate(120.410156 0)"/>
      </g>
     </g>
    </g>
    <g id="ytick_7">
     <g id="line2d_35">
      <path d="M 80.64 117.6 
L 555.84 117.6 
" clip-path="url(#p34b46cd5e2)" style="fill: none; stroke: #ede9df; stroke-width: 0.8; stroke-linecap: square"/>
     </g>
     <g id="line2d_36"/>
     <g id="text_13">
      <!-- 70% -->
      <g style="fill: #66788a" transform="translate(53.772969 121.808359) scale(0.11 -0.11)">
       <defs>
        <path id="DejaVuSansMono-37" d="M 434 4666 
L 3372 4666 
L 3372 4397 
L 1703 0 
L 1044 0 
L 2669 4134 
L 434 4134 
L 434 4666 
z
" transform="scale(0.015625)"/>
       </defs>
       <use xlink:href="#DejaVuSansMono-37"/>
       <use xlink:href="#DejaVuSansMono-30" transform="translate(60.205078 0)"/>
       <use xlink:href="#DejaVuSansMono-25" transform="translate(120.410156 0)"/>
      </g>
     </g>
    </g>
    <g id="ytick_8">
     <g id="line2d_37">
      <path d="M 80.64 86.8 
L 555.84 86.8 
" clip-path="url(#p34b46cd5e2)" style="fill: none; stroke: #ede9df; stroke-width: 0.8; stroke-linecap: square"/>
     </g>
     <g id="line2d_38"/>
     <g id="text_14">
      <!-- 80% -->
      <g style="fill: #66788a" transform="translate(53.772969 91.008359) scale(0.11 -0.11)">
       <defs>
        <path id="DejaVuSansMono-38" d="M 1925 2216 
Q 1503 2216 1273 1980 
Q 1044 1744 1044 1313 
Q 1044 881 1276 642 
Q 1509 403 1925 403 
Q 2350 403 2579 639 
Q 2809 875 2809 1313 
Q 2809 1741 2576 1978 
Q 2344 2216 1925 2216 
z
M 1375 2478 
Q 972 2581 745 2862 
Q 519 3144 519 3541 
Q 519 4097 897 4423 
Q 1275 4750 1925 4750 
Q 2578 4750 2956 4423 
Q 3334 4097 3334 3541 
Q 3334 3144 3107 2862 
Q 2881 2581 2478 2478 
Q 2947 2375 3195 2062 
Q 3444 1750 3444 1253 
Q 3444 622 3041 265 
Q 2638 -91 1925 -91 
Q 1213 -91 811 264 
Q 409 619 409 1247 
Q 409 1747 657 2061 
Q 906 2375 1375 2478 
z
M 1147 3481 
Q 1147 3106 1347 2909 
Q 1547 2713 1925 2713 
Q 2306 2713 2506 2909 
Q 2706 3106 2706 3481 
Q 2706 3863 2507 4063 
Q 2309 4263 1925 4263 
Q 1547 4263 1347 4061 
Q 1147 3859 1147 3481 
z
" transform="scale(0.015625)"/>
       </defs>
       <use xlink:href="#DejaVuSansMono-38"/>
       <use xlink:href="#DejaVuSansMono-30" transform="translate(60.205078 0)"/>
       <use xlink:href="#DejaVuSansMono-25" transform="translate(120.410156 0)"/>
      </g>
     </g>
    </g>
    <g id="ytick_9">
     <g id="line2d_39">
      <path d="M 80.64 56 
L 555.84 56 
" clip-path="url(#p34b46cd5e2)" style="fill: none; stroke: #ede9df; stroke-width: 0.8; stroke-linecap: square"/>
     </g>
     <g id="line2d_40"/>
     <g id="text_15">
      <!-- 90% -->
      <g style="fill: #66788a" transform="translate(53.772969 60.208359) scale(0.11 -0.11)">
       <defs>
        <path id="DejaVuSansMono-39" d="M 1863 2069 
Q 2266 2069 2495 2359 
Q 2725 2650 2725 3163 
Q 2725 3675 2495 3965 
Q 2266 4256 1863 4256 
Q 1444 4256 1231 3979 
Q 1019 3703 1019 3163 
Q 1019 2619 1230 2344 
Q 1441 2069 1863 2069 
z
M 738 97 
L 738 678 
Q 934 563 1156 502 
Q 1378 441 1619 441 
Q 2219 441 2526 892 
Q 2834 1344 2834 2222 
Q 2688 1909 2422 1742 
Q 2156 1575 1813 1575 
Q 1138 1575 767 1990 
Q 397 2406 397 3169 
Q 397 3922 776 4336 
Q 1156 4750 1850 4750 
Q 2663 4750 3041 4165 
Q 3419 3581 3419 2328 
Q 3419 1150 2964 529 
Q 2509 -91 1644 -91 
Q 1416 -91 1184 -42 
Q 953 6 738 97 
z
" transform="scale(0.015625)"/>
       </defs>
       <use xlink:href="#DejaVuSansMono-39"/>
       <use xlink:href="#DejaVuSansMono-30" transform="translate(60.205078 0)"/>
       <use xlink:href="#DejaVuSansMono-25" transform="translate(120.410156 0)"/>
      </g>
     </g>
    </g>
    <g id="text_16">
     <!-- Leading contributor's share -->
     <g style="fill: #243b53" transform="translate(41.277344 246.07125) rotate(-90) scale(0.12 -0.12)">
      <defs>
       <path id="DejaVuSans-4c" d="M 628 4666 
L 1259 4666 
L 1259 531 
L 3531 531 
L 3531 0 
L 628 0 
L 628 4666 
z
" transform="scale(0.015625)"/>
       <path id="DejaVuSans-69" d="M 603 3500 
L 1178 3500 
L 1178 0 
L 603 0 
L 603 3500 
z
M 603 4863 
L 1178 4863 
L 1178 4134 
L 603 4134 
L 603 4863 
z
" transform="scale(0.015625)"/>
       <path id="DejaVuSans-62" d="M 3116 1747 
Q 3116 2381 2855 2742 
Q 2594 3103 2138 3103 
Q 1681 3103 1420 2742 
Q 1159 2381 1159 1747 
Q 1159 1113 1420 752 
Q 1681 391 2138 391 
Q 2594 391 2855 752 
Q 3116 1113 3116 1747 
z
M 1159 2969 
Q 1341 3281 1617 3432 
Q 1894 3584 2278 3584 
Q 2916 3584 3314 3078 
Q 3713 2572 3713 1747 
Q 3713 922 3314 415 
Q 2916 -91 2278 -91 
Q 1894 -91 1617 61 
Q 1341 213 1159 525 
L 1159 0 
L 581 0 
L 581 4863 
L 1159 4863 
L 1159 2969 
z
" transform="scale(0.015625)"/>
       <path id="DejaVuSans-27" d="M 1147 4666 
L 1147 2931 
L 616 2931 
L 616 4666 
L 1147 4666 
z
" transform="scale(0.015625)"/>
      </defs>
      <use xlink:href="#DejaVuSans-4c"/>
      <use xlink:href="#DejaVuSans-65" transform="translate(53.962891 0)"/>
      <use xlink:href="#DejaVuSans-61" transform="translate(115.486328 0)"/>
      <use xlink:href="#DejaVuSans-64" transform="translate(176.765625 0)"/>
      <use xlink:href="#DejaVuSans-69" transform="translate(240.242188 0)"/>
      <use xlink:href="#DejaVuSans-6e" transform="translate(268.025391 0)"/>
      <use xlink:href="#DejaVuSans-67" transform="translate(331.404297 0)"/>
      <use xlink:href="#DejaVuSans-20" transform="translate(394.880859 0)"/>
      <use xlink:href="#DejaVuSans-63" transform="translate(426.667969 0)"/>
      <use xlink:href="#DejaVuSans-6f" transform="translate(481.648438 0)"/>
      <use xlink:href="#DejaVuSans-6e" transform="translate(542.830078 0)"/>
      <use xlink:href="#DejaVuSans-74" transform="translate(606.208984 0)"/>
      <use xlink:href="#DejaVuSans-72" transform="translate(645.417969 0)"/>
      <use xlink:href="#DejaVuSans-69" transform="translate(686.53125 0)"/>
      <use xlink:href="#DejaVuSans-62" transform="translate(714.314453 0)"/>
      <use xlink:href="#DejaVuSans-75" transform="translate(777.791016 0)"/>
      <use xlink:href="#DejaVuSans-74" transform="translate(841.169922 0)"/>
      <use xlink:href="#DejaVuSans-6f" transform="translate(880.378906 0)"/>
      <use xlink:href="#DejaVuSans-72" transform="translate(941.560547 0)"/>
      <use xlink:href="#DejaVuSans-27" transform="translate(982.673828 0)"/>
      <use xlink:href="#DejaVuSans-73" transform="translate(1010.164062 0)"/>
      <use xlink:href="#DejaVuSans-20" transform="translate(1062.263672 0)"/>
      <use xlink:href="#DejaVuSans-73" transform="translate(1094.050781 0)"/>
      <use xlink:href="#DejaVuSans-68" transform="translate(1146.150391 0)"/>
      <use xlink:href="#DejaVuSans-61" transform="translate(1209.529297 0)"/>
      <use xlink:href="#DejaVuSans-72" transform="translate(1270.808594 0)"/>
      <use xlink:href="#DejaVuSans-65" transform="translate(1309.671875 0)"/>
     </g>
    </g>
   </g>
   <g id="PathCollection_1">
    <defs>
     <path id="C0_0_8c0aca265f" d="M 0 3.535534 
C 0.937635 3.535534 1.836992 3.163008 2.5 2.5 
C 3.163008 1.836992 3.535534 0.937635 3.535534 -0 
C 3.535534 -0.937635 3.163008 -1.836992 2.5 -2.5 
C 1.836992 -3.163008 0.937635 -3.535534 0 -3.535534 
C -0.937635 -3.535534 -1.836992 -3.163008 -2.5 -2.5 
C -3.163008 -1.836992 -3.535534 -0.937635 -3.535534 0 
C -3.535534 0.937635 -3.163008 1.836992 -2.5 2.5 
C -1.836992 3.163008 -0.937635 3.535534 0 3.535534 
z
"/>
    </defs>
    <g clip-path="url(#p34b46cd5e2)">
     <use xlink:href="#C0_0_8c0aca265f" x="242.273306" y="218.744349" style="fill: #66788a; fill-opacity: 0.75"/>
    </g>
    <g clip-path="url(#p34b46cd5e2)">
     <use xlink:href="#C0_0_8c0aca265f" x="267.25534" y="243.789944" style="fill: #66788a; fill-opacity: 0.75"/>
    </g>
    <g clip-path="url(#p34b46cd5e2)">
     <use xlink:href="#C0_0_8c0aca265f" x="255.054495" y="231.353361" style="fill: #66788a; fill-opacity: 0.75"/>
    </g>
    <g clip-path="url(#p34b46cd5e2)">
     <use xlink:href="#C0_0_8c0aca265f" x="252.087598" y="275.995614" style="fill: #66788a; fill-opacity: 0.75"/>
    </g>
    <g clip-path="url(#p34b46cd5e2)">
     <use xlink:href="#C0_0_8c0aca265f" x="536.298148" y="44.525839" style="fill: #66788a; fill-opacity: 0.75"/>
    </g>
    <g clip-path="url(#p34b46cd5e2)">
     <use xlink:href="#C0_0_8c0aca265f" x="232.484782" y="248.626872" style="fill: #66788a; fill-opacity: 0.75"/>
    </g>
    <g clip-path="url(#p34b46cd5e2)">
     <use xlink:href="#C0_0_8c0aca265f" x="272.215997" y="213.204907" style="fill: #66788a; fill-opacity: 0.75"/>
    </g>
    <g clip-path="url(#p34b46cd5e2)">
     <use xlink:href="#C0_0_8c0aca265f" x="239.07256" y="268.819457" style="fill: #66788a; fill-opacity: 0.75"/>
    </g>
    <g clip-path="url(#p34b46cd5e2)">
     <use xlink:href="#C0_0_8c0aca265f" x="230.136898" y="272.367527" style="fill: #66788a; fill-opacity: 0.75"/>
    </g>
    <g clip-path="url(#p34b46cd5e2)">
     <use xlink:href="#C0_0_8c0aca265f" x="290.398147" y="240.859389" style="fill: #66788a; fill-opacity: 0.75"/>
    </g>
    <g clip-path="url(#p34b46cd5e2)">
     <use xlink:href="#C0_0_8c0aca265f" x="174.292604" y="288.670749" style="fill: #66788a; fill-opacity: 0.75"/>
    </g>
    <g clip-path="url(#p34b46cd5e2)">
     <use xlink:href="#C0_0_8c0aca265f" x="185.254918" y="275.006957" style="fill: #66788a; fill-opacity: 0.75"/>
    </g>
    <g clip-path="url(#p34b46cd5e2)">
     <use xlink:href="#C0_0_8c0aca265f" x="182.221599" y="272.95266" style="fill: #66788a; fill-opacity: 0.75"/>
    </g>
    <g clip-path="url(#p34b46cd5e2)">
     <use xlink:href="#C0_0_8c0aca265f" x="169.637201" y="252.187759" style="fill: #66788a; fill-opacity: 0.75"/>
    </g>
    <g clip-path="url(#p34b46cd5e2)">
     <use xlink:href="#C0_0_8c0aca265f" x="104.070577" y="281.818216" style="fill: #66788a; fill-opacity: 0.75"/>
    </g>
    <g clip-path="url(#p34b46cd5e2)">
     <use xlink:href="#C0_0_8c0aca265f" x="139.104175" y="279.378323" style="fill: #66788a; fill-opacity: 0.75"/>
    </g>
    <g clip-path="url(#p34b46cd5e2)">
     <use xlink:href="#C0_0_8c0aca265f" x="142.865989" y="259.561703" style="fill: #66788a; fill-opacity: 0.75"/>
    </g>
    <g clip-path="url(#p34b46cd5e2)">
     <use xlink:href="#C0_0_8c0aca265f" x="179.805636" y="268.508138" style="fill: #66788a; fill-opacity: 0.75"/>
    </g>
    <g clip-path="url(#p34b46cd5e2)">
     <use xlink:href="#C0_0_8c0aca265f" x="210.634384" y="271.792157" style="fill: #66788a; fill-opacity: 0.75"/>
    </g>
    <g clip-path="url(#p34b46cd5e2)">
     <use xlink:href="#C0_0_8c0aca265f" x="162.974397" y="269.204699" style="fill: #66788a; fill-opacity: 0.75"/>
    </g>
    <g clip-path="url(#p34b46cd5e2)">
     <use xlink:href="#C0_0_8c0aca265f" x="186.20079" y="278.371143" style="fill: #66788a; fill-opacity: 0.75"/>
    </g>
    <g clip-path="url(#p34b46cd5e2)">
     <use xlink:href="#C0_0_8c0aca265f" x="276.732882" y="152.369588" style="fill: #66788a; fill-opacity: 0.75"/>
    </g>
    <g clip-path="url(#p34b46cd5e2)">
     <use xlink:href="#C0_0_8c0aca265f" x="336.504926" y="173.440591" style="fill: #66788a; fill-opacity: 0.75"/>
    </g>
    <g clip-path="url(#p34b46cd5e2)">
     <use xlink:href="#C0_0_8c0aca265f" x="320.072093" y="194.124447" style="fill: #66788a; fill-opacity: 0.75"/>
    </g>
    <g clip-path="url(#p34b46cd5e2)">
     <use xlink:href="#C0_0_8c0aca265f" x="305.52586" y="190.991147" style="fill: #66788a; fill-opacity: 0.75"/>
    </g>
    <g clip-path="url(#p34b46cd5e2)">
     <use xlink:href="#C0_0_8c0aca265f" x="274.16339" y="240.638934" style="fill: #66788a; fill-opacity: 0.75"/>
    </g>
    <g clip-path="url(#p34b46cd5e2)">
     <use xlink:href="#C0_0_8c0aca265f" x="258.69848" y="213.796889" style="fill: #66788a; fill-opacity: 0.75"/>
    </g>
    <g clip-path="url(#p34b46cd5e2)">
     <use xlink:href="#C0_0_8c0aca265f" x="292.125088" y="260.987791" style="fill: #66788a; fill-opacity: 0.75"/>
    </g>
    <g clip-path="url(#p34b46cd5e2)">
     <use xlink:href="#C0_0_8c0aca265f" x="388.150774" y="163.456426" style="fill: #66788a; fill-opacity: 0.75"/>
    </g>
    <g clip-path="url(#p34b46cd5e2)">
     <use xlink:href="#C0_0_8c0aca265f" x="423.834838" y="173.332291" style="fill: #66788a; fill-opacity: 0.75"/>
    </g>
    <g clip-path="url(#p34b46cd5e2)">
     <use xlink:href="#C0_0_8c0aca265f" x="350.218224" y="195.010951" style="fill: #66788a; fill-opacity: 0.75"/>
    </g>
    <g clip-path="url(#p34b46cd5e2)">
     <use xlink:href="#C0_0_8c0aca265f" x="361.932472" y="183.005631" style="fill: #66788a; fill-opacity: 0.75"/>
    </g>
    <g clip-path="url(#p34b46cd5e2)">
     <use xlink:href="#C0_0_8c0aca265f" x="393.290836" y="219.838122" style="fill: #66788a; fill-opacity: 0.75"/>
    </g>
   </g>
   <g id="patch_3">
    <path d="M 80.64 302.4 
L 555.84 302.4 
" style="fill: none; stroke: #d8d5cc; stroke-width: 0.9; stroke-linejoin: miter; stroke-linecap: square"/>
   </g>
   <g id="patch_4">
    <path d="M 505.596854 53.937454 
Q 519.98996 49.525185 534.383065 45.112916 
" style="fill: none; stroke: #d8d5cc; stroke-width: 0.9; stroke-linecap: round"/>
   </g>
   <g id="text_17">
    <!-- 1994 — 824,177 deaths, -->
    <g style="fill: #102a43" transform="translate(396.505023 64.504198) scale(0.105 -0.105)">
     <defs>
      <path id="DejaVuSans-31" d="M 794 531 
L 1825 531 
L 1825 4091 
L 703 3866 
L 703 4441 
L 1819 4666 
L 2450 4666 
L 2450 531 
L 3481 531 
L 3481 0 
L 794 0 
L 794 531 
z
" transform="scale(0.015625)"/>
      <path id="DejaVuSans-39" d="M 703 97 
L 703 672 
Q 941 559 1184 500 
Q 1428 441 1663 441 
Q 2288 441 2617 861 
Q 2947 1281 2994 2138 
Q 2813 1869 2534 1725 
Q 2256 1581 1919 1581 
Q 1219 1581 811 2004 
Q 403 2428 403 3163 
Q 403 3881 828 4315 
Q 1253 4750 1959 4750 
Q 2769 4750 3195 4129 
Q 3622 3509 3622 2328 
Q 3622 1225 3098 567 
Q 2575 -91 1691 -91 
Q 1453 -91 1209 -44 
Q 966 3 703 97 
z
M 1959 2075 
Q 2384 2075 2632 2365 
Q 2881 2656 2881 3163 
Q 2881 3666 2632 3958 
Q 2384 4250 1959 4250 
Q 1534 4250 1286 3958 
Q 1038 3666 1038 3163 
Q 1038 2656 1286 2365 
Q 1534 2075 1959 2075 
z
" transform="scale(0.015625)"/>
      <path id="DejaVuSans-34" d="M 2419 4116 
L 825 1625 
L 2419 1625 
L 2419 4116 
z
M 2253 4666 
L 3047 4666 
L 3047 1625 
L 3713 1625 
L 3713 1100 
L 3047 1100 
L 3047 0 
L 2419 0 
L 2419 1100 
L 313 1100 
L 313 1709 
L 2253 4666 
z
" transform="scale(0.015625)"/>
      <path id="DejaVuSans-38" d="M 2034 2216 
Q 1584 2216 1326 1975 
Q 1069 1734 1069 1313 
Q 1069 891 1326 650 
Q 1584 409 2034 409 
Q 2484 409 2743 651 
Q 3003 894 3003 1313 
Q 3003 1734 2745 1975 
Q 2488 2216 2034 2216 
z
M 1403 2484 
Q 997 2584 770 2862 
Q 544 3141 544 3541 
Q 544 4100 942 4425 
Q 1341 4750 2034 4750 
Q 2731 4750 3128 4425 
Q 3525 4100 3525 3541 
Q 3525 3141 3298 2862 
Q 3072 2584 2669 2484 
Q 3125 2378 3379 2068 
Q 3634 1759 3634 1313 
Q 3634 634 3220 271 
Q 2806 -91 2034 -91 
Q 1263 -91 848 271 
Q 434 634 434 1313 
Q 434 1759 690 2068 
Q 947 2378 1403 2484 
z
M 1172 3481 
Q 1172 3119 1398 2916 
Q 1625 2713 2034 2713 
Q 2441 2713 2670 2916 
Q 2900 3119 2900 3481 
Q 2900 3844 2670 4047 
Q 2441 4250 2034 4250 
Q 1625 4250 1398 4047 
Q 1172 3844 1172 3481 
z
" transform="scale(0.015625)"/>
      <path id="DejaVuSans-32" d="M 1228 531 
L 3431 531 
L 3431 0 
L 469 0 
L 469 531 
Q 828 903 1448 1529 
Q 2069 2156 2228 2338 
Q 2531 2678 2651 2914 
Q 2772 3150 2772 3378 
Q 2772 3750 2511 3984 
Q 2250 4219 1831 4219 
Q 1534 4219 1204 4116 
Q 875 4013 500 3803 
L 500 4441 
Q 881 4594 1212 4672 
Q 1544 4750 1819 4750 
Q 2544 4750 2975 4387 
Q 3406 4025 3406 3419 
Q 3406 3131 3298 2873 
Q 3191 2616 2906 2266 
Q 2828 2175 2409 1742 
Q 1991 1309 1228 531 
z
" transform="scale(0.015625)"/>
      <path id="DejaVuSans-2c" d="M 750 794 
L 1409 794 
L 1409 256 
L 897 -744 
L 494 -744 
L 750 256 
L 750 794 
z
" transform="scale(0.015625)"/>
      <path id="DejaVuSans-37" d="M 525 4666 
L 3525 4666 
L 3525 4397 
L 1831 0 
L 1172 0 
L 2766 4134 
L 525 4134 
L 525 4666 
z
" transform="scale(0.015625)"/>
     </defs>
     <use xlink:href="#DejaVuSans-31"/>
     <use xlink:href="#DejaVuSans-39" transform="translate(63.623047 0)"/>
     <use xlink:href="#DejaVuSans-39" transform="translate(127.246094 0)"/>
     <use xlink:href="#DejaVuSans-34" transform="translate(190.869141 0)"/>
     <use xlink:href="#DejaVuSans-20" transform="translate(254.492188 0)"/>
     <use xlink:href="#DejaVuSans-2014" transform="translate(286.279297 0)"/>
     <use xlink:href="#DejaVuSans-20" transform="translate(386.279297 0)"/>
     <use xlink:href="#DejaVuSans-38" transform="translate(418.066406 0)"/>
     <use xlink:href="#DejaVuSans-32" transform="translate(481.689453 0)"/>
     <use xlink:href="#DejaVuSans-34" transform="translate(545.3125 0)"/>
     <use xlink:href="#DejaVuSans-2c" transform="translate(608.935547 0)"/>
     <use xlink:href="#DejaVuSans-31" transform="translate(640.722656 0)"/>
     <use xlink:href="#DejaVuSans-37" transform="translate(704.345703 0)"/>
     <use xlink:href="#DejaVuSans-37" transform="translate(767.96875 0)"/>
     <use xlink:href="#DejaVuSans-20" transform="translate(831.591797 0)"/>
     <use xlink:href="#DejaVuSans-64" transform="translate(863.378906 0)"/>
     <use xlink:href="#DejaVuSans-65" transform="translate(926.855469 0)"/>
     <use xlink:href="#DejaVuSans-61" transform="translate(988.378906 0)"/>
     <use xlink:href="#DejaVuSans-74" transform="translate(1049.658203 0)"/>
     <use xlink:href="#DejaVuSans-68" transform="translate(1088.867188 0)"/>
     <use xlink:href="#DejaVuSans-73" transform="translate(1152.246094 0)"/>
     <use xlink:href="#DejaVuSans-2c" transform="translate(1204.345703 0)"/>
    </g>
    <!-- 93.7% leading share -->
    <g style="fill: #102a43" transform="translate(418.453305 76.261901) scale(0.105 -0.105)">
     <defs>
      <path id="DejaVuSans-33" d="M 2597 2516 
Q 3050 2419 3304 2112 
Q 3559 1806 3559 1356 
Q 3559 666 3084 287 
Q 2609 -91 1734 -91 
Q 1441 -91 1130 -33 
Q 819 25 488 141 
L 488 750 
Q 750 597 1062 519 
Q 1375 441 1716 441 
Q 2309 441 2620 675 
Q 2931 909 2931 1356 
Q 2931 1769 2642 2001 
Q 2353 2234 1838 2234 
L 1294 2234 
L 1294 2753 
L 1863 2753 
Q 2328 2753 2575 2939 
Q 2822 3125 2822 3475 
Q 2822 3834 2567 4026 
Q 2313 4219 1838 4219 
Q 1578 4219 1281 4162 
Q 984 4106 628 3988 
L 628 4550 
Q 988 4650 1302 4700 
Q 1616 4750 1894 4750 
Q 2613 4750 3031 4423 
Q 3450 4097 3450 3541 
Q 3450 3153 3228 2886 
Q 3006 2619 2597 2516 
z
" transform="scale(0.015625)"/>
      <path id="DejaVuSans-2e" d="M 684 794 
L 1344 794 
L 1344 0 
L 684 0 
L 684 794 
z
" transform="scale(0.015625)"/>
      <path id="DejaVuSans-25" d="M 4653 2053 
Q 4381 2053 4226 1822 
Q 4072 1591 4072 1178 
Q 4072 772 4226 539 
Q 4381 306 4653 306 
Q 4919 306 5073 539 
Q 5228 772 5228 1178 
Q 5228 1588 5073 1820 
Q 4919 2053 4653 2053 
z
M 4653 2450 
Q 5147 2450 5437 2106 
Q 5728 1763 5728 1178 
Q 5728 594 5436 251 
Q 5144 -91 4653 -91 
Q 4153 -91 3862 251 
Q 3572 594 3572 1178 
Q 3572 1766 3864 2108 
Q 4156 2450 4653 2450 
z
M 1428 4353 
Q 1159 4353 1004 4120 
Q 850 3888 850 3481 
Q 850 3069 1003 2837 
Q 1156 2606 1428 2606 
Q 1700 2606 1854 2837 
Q 2009 3069 2009 3481 
Q 2009 3884 1853 4118 
Q 1697 4353 1428 4353 
z
M 4250 4750 
L 4750 4750 
L 1831 -91 
L 1331 -91 
L 4250 4750 
z
M 1428 4750 
Q 1922 4750 2215 4408 
Q 2509 4066 2509 3481 
Q 2509 2891 2217 2550 
Q 1925 2209 1428 2209 
Q 931 2209 642 2551 
Q 353 2894 353 3481 
Q 353 4063 643 4406 
Q 934 4750 1428 4750 
z
" transform="scale(0.015625)"/>
     </defs>
     <use xlink:href="#DejaVuSans-39"/>
     <use xlink:href="#DejaVuSans-33" transform="translate(63.623047 0)"/>
     <use xlink:href="#DejaVuSans-2e" transform="translate(127.246094 0)"/>
     <use xlink:href="#DejaVuSans-37" transform="translate(159.033203 0)"/>
     <use xlink:href="#DejaVuSans-25" transform="translate(222.65625 0)"/>
     <use xlink:href="#DejaVuSans-20" transform="translate(317.675781 0)"/>
     <use xlink:href="#DejaVuSans-6c" transform="translate(349.462891 0)"/>
     <use xlink:href="#DejaVuSans-65" transform="translate(377.246094 0)"/>
     <use xlink:href="#DejaVuSans-61" transform="translate(438.769531 0)"/>
     <use xlink:href="#DejaVuSans-64" transform="translate(500.048828 0)"/>
     <use xlink:href="#DejaVuSans-69" transform="translate(563.525391 0)"/>
     <use xlink:href="#DejaVuSans-6e" transform="translate(591.308594 0)"/>
     <use xlink:href="#DejaVuSans-67" transform="translate(654.6875 0)"/>
     <use xlink:href="#DejaVuSans-20" transform="translate(718.164062 0)"/>
     <use xlink:href="#DejaVuSans-73" transform="translate(749.951172 0)"/>
     <use xlink:href="#DejaVuSans-68" transform="translate(802.050781 0)"/>
     <use xlink:href="#DejaVuSans-61" transform="translate(865.429688 0)"/>
     <use xlink:href="#DejaVuSans-72" transform="translate(926.708984 0)"/>
     <use xlink:href="#DejaVuSans-65" transform="translate(965.572266 0)"/>
    </g>
   </g>
   <g id="line2d_41">
    <path d="M 303.372189 228.801119 
L 303.372189 129.298861 
" clip-path="url(#p34b46cd5e2)" style="fill: none; stroke: #d4a44c; stroke-width: 1.4; stroke-linecap: square"/>
   </g>
   <g id="line2d_42">
    <path d="M 299.310504 228.801119 
L 307.433875 228.801119 
" clip-path="url(#p34b46cd5e2)" style="fill: none; stroke: #d4a44c; stroke-width: 1.4; stroke-linecap: square"/>
   </g>
   <g id="line2d_43">
    <path d="M 299.310504 129.298861 
L 307.433875 129.298861 
" clip-path="url(#p34b46cd5e2)" style="fill: none; stroke: #d4a44c; stroke-width: 1.4; stroke-linecap: square"/>
   </g>
   <g id="text_18">
    <g id="patch_5">
     <path d="M 314.62521 115.298861 
L 469.42146 115.298861 
Q 472.36146 115.298861 472.36146 112.358861 
L 472.36146 90.439127 
Q 472.36146 87.499127 469.42146 87.499127 
L 314.62521 87.499127 
Q 311.68521 87.499127 311.68521 90.439127 
L 311.68521 112.358861 
Q 311.68521 115.298861 314.62521 115.298861 
z
" style="fill: #ffffff; opacity: 0.9"/>
    </g>
    <!-- 2013 · 2017 — same volume, -->
    <g style="fill: #243b53" transform="translate(314.62521 98.417486) scale(0.105 -0.105)">
     <defs>
      <path id="DejaVuSans-30" d="M 2034 4250 
Q 1547 4250 1301 3770 
Q 1056 3291 1056 2328 
Q 1056 1369 1301 889 
Q 1547 409 2034 409 
Q 2525 409 2770 889 
Q 3016 1369 3016 2328 
Q 3016 3291 2770 3770 
Q 2525 4250 2034 4250 
z
M 2034 4750 
Q 2819 4750 3233 4129 
Q 3647 3509 3647 2328 
Q 3647 1150 3233 529 
Q 2819 -91 2034 -91 
Q 1250 -91 836 529 
Q 422 1150 422 2328 
Q 422 3509 836 4129 
Q 1250 4750 2034 4750 
z
" transform="scale(0.015625)"/>
      <path id="DejaVuSans-b7" d="M 684 2619 
L 1344 2619 
L 1344 1825 
L 684 1825 
L 684 2619 
z
" transform="scale(0.015625)"/>
      <path id="DejaVuSans-6d" d="M 3328 2828 
Q 3544 3216 3844 3400 
Q 4144 3584 4550 3584 
Q 5097 3584 5394 3201 
Q 5691 2819 5691 2113 
L 5691 0 
L 5113 0 
L 5113 2094 
Q 5113 2597 4934 2840 
Q 4756 3084 4391 3084 
Q 3944 3084 3684 2787 
Q 3425 2491 3425 1978 
L 3425 0 
L 2847 0 
L 2847 2094 
Q 2847 2600 2669 2842 
Q 2491 3084 2119 3084 
Q 1678 3084 1418 2786 
Q 1159 2488 1159 1978 
L 1159 0 
L 581 0 
L 581 3500 
L 1159 3500 
L 1159 2956 
Q 1356 3278 1631 3431 
Q 1906 3584 2284 3584 
Q 2666 3584 2933 3390 
Q 3200 3197 3328 2828 
z
" transform="scale(0.015625)"/>
      <path id="DejaVuSans-76" d="M 191 3500 
L 800 3500 
L 1894 563 
L 2988 3500 
L 3597 3500 
L 2284 0 
L 1503 0 
L 191 3500 
z
" transform="scale(0.015625)"/>
     </defs>
     <use xlink:href="#DejaVuSans-32"/>
     <use xlink:href="#DejaVuSans-30" transform="translate(63.623047 0)"/>
     <use xlink:href="#DejaVuSans-31" transform="translate(127.246094 0)"/>
     <use xlink:href="#DejaVuSans-33" transform="translate(190.869141 0)"/>
     <use xlink:href="#DejaVuSans-20" transform="translate(254.492188 0)"/>
     <use xlink:href="#DejaVuSans-b7" transform="translate(286.279297 0)"/>
     <use xlink:href="#DejaVuSans-20" transform="translate(318.066406 0)"/>
     <use xlink:href="#DejaVuSans-32" transform="translate(349.853516 0)"/>
     <use xlink:href="#DejaVuSans-30" transform="translate(413.476562 0)"/>
     <use xlink:href="#DejaVuSans-31" transform="translate(477.099609 0)"/>
     <use xlink:href="#DejaVuSans-37" transform="translate(540.722656 0)"/>
     <use xlink:href="#DejaVuSans-20" transform="translate(604.345703 0)"/>
     <use xlink:href="#DejaVuSans-2014" transform="translate(636.132812 0)"/>
     <use xlink:href="#DejaVuSans-20" transform="translate(736.132812 0)"/>
     <use xlink:href="#DejaVuSans-73" transform="translate(767.919922 0)"/>
     <use xlink:href="#DejaVuSans-61" transform="translate(820.019531 0)"/>
     <use xlink:href="#DejaVuSans-6d" transform="translate(881.298828 0)"/>
     <use xlink:href="#DejaVuSans-65" transform="translate(978.710938 0)"/>
     <use xlink:href="#DejaVuSans-20" transform="translate(1040.234375 0)"/>
     <use xlink:href="#DejaVuSans-76" transform="translate(1072.021484 0)"/>
     <use xlink:href="#DejaVuSans-6f" transform="translate(1131.201172 0)"/>
     <use xlink:href="#DejaVuSans-6c" transform="translate(1192.382812 0)"/>
     <use xlink:href="#DejaVuSans-75" transform="translate(1220.166016 0)"/>
     <use xlink:href="#DejaVuSans-6d" transform="translate(1283.544922 0)"/>
     <use xlink:href="#DejaVuSans-65" transform="translate(1380.957031 0)"/>
     <use xlink:href="#DejaVuSans-2c" transform="translate(1442.480469 0)"/>
    </g>
    <!-- 66.2% vs 33.9% -->
    <g style="fill: #243b53" transform="translate(314.62521 110.175189) scale(0.105 -0.105)">
     <defs>
      <path id="DejaVuSans-36" d="M 2113 2584 
Q 1688 2584 1439 2293 
Q 1191 2003 1191 1497 
Q 1191 994 1439 701 
Q 1688 409 2113 409 
Q 2538 409 2786 701 
Q 3034 994 3034 1497 
Q 3034 2003 2786 2293 
Q 2538 2584 2113 2584 
z
M 3366 4563 
L 3366 3988 
Q 3128 4100 2886 4159 
Q 2644 4219 2406 4219 
Q 1781 4219 1451 3797 
Q 1122 3375 1075 2522 
Q 1259 2794 1537 2939 
Q 1816 3084 2150 3084 
Q 2853 3084 3261 2657 
Q 3669 2231 3669 1497 
Q 3669 778 3244 343 
Q 2819 -91 2113 -91 
Q 1303 -91 875 529 
Q 447 1150 447 2328 
Q 447 3434 972 4092 
Q 1497 4750 2381 4750 
Q 2619 4750 2861 4703 
Q 3103 4656 3366 4563 
z
" transform="scale(0.015625)"/>
     </defs>
     <use xlink:href="#DejaVuSans-36"/>
     <use xlink:href="#DejaVuSans-36" transform="translate(63.623047 0)"/>
     <use xlink:href="#DejaVuSans-2e" transform="translate(127.246094 0)"/>
     <use xlink:href="#DejaVuSans-32" transform="translate(159.033203 0)"/>
     <use xlink:href="#DejaVuSans-25" transform="translate(222.65625 0)"/>
     <use xlink:href="#DejaVuSans-20" transform="translate(317.675781 0)"/>
     <use xlink:href="#DejaVuSans-76" transform="translate(349.462891 0)"/>
     <use xlink:href="#DejaVuSans-73" transform="translate(408.642578 0)"/>
     <use xlink:href="#DejaVuSans-20" transform="translate(460.742188 0)"/>
     <use xlink:href="#DejaVuSans-33" transform="translate(492.529297 0)"/>
     <use xlink:href="#DejaVuSans-33" transform="translate(556.152344 0)"/>
     <use xlink:href="#DejaVuSans-2e" transform="translate(619.775391 0)"/>
     <use xlink:href="#DejaVuSans-39" transform="translate(651.5625 0)"/>
     <use xlink:href="#DejaVuSans-25" transform="translate(715.185547 0)"/>
    </g>
   </g>
   <g id="text_19">
    <!-- 1990 · 2000 -->
    <g style="fill: #243b53" transform="translate(209.758077 161.300969) scale(0.105 -0.105)">
     <use xlink:href="#DejaVuSans-31"/>
     <use xlink:href="#DejaVuSans-39" transform="translate(63.623047 0)"/>
     <use xlink:href="#DejaVuSans-39" transform="translate(127.246094 0)"/>
     <use xlink:href="#DejaVuSans-30" transform="translate(190.869141 0)"/>
     <use xlink:href="#DejaVuSans-20" transform="translate(254.492188 0)"/>
     <use xlink:href="#DejaVuSans-b7" transform="translate(286.279297 0)"/>
     <use xlink:href="#DejaVuSans-20" transform="translate(318.066406 0)"/>
     <use xlink:href="#DejaVuSans-32" transform="translate(349.853516 0)"/>
     <use xlink:href="#DejaVuSans-30" transform="translate(413.476562 0)"/>
     <use xlink:href="#DejaVuSans-30" transform="translate(477.099609 0)"/>
     <use xlink:href="#DejaVuSans-30" transform="translate(540.722656 0)"/>
    </g>
   </g>
   <g id="text_20">
    <g id="patch_6">
     <path d="M 97.272 51.196031 
L 289.974891 51.196031 
Q 293.334891 51.196031 293.334891 47.836031 
L 293.334891 37.674 
Q 293.334891 34.314 289.974891 34.314 
L 97.272 34.314 
Q 93.912 34.314 93.912 37.674 
L 93.912 47.836031 
Q 93.912 51.196031 97.272 51.196031 
z
" style="fill: #ffffff; opacity: 0.92; stroke: #d8d5cc; stroke-width: 0.8; stroke-linejoin: miter"/>
    </g>
    <!-- General pattern: Spearman ρ = 0.82 -->
    <g style="fill: #243b53" transform="translate(97.272 45.652359) scale(0.105 -0.105)">
     <defs>
      <path id="DejaVuSans-47" d="M 3809 666 
L 3809 1919 
L 2778 1919 
L 2778 2438 
L 4434 2438 
L 4434 434 
Q 4069 175 3628 42 
Q 3188 -91 2688 -91 
Q 1594 -91 976 548 
Q 359 1188 359 2328 
Q 359 3472 976 4111 
Q 1594 4750 2688 4750 
Q 3144 4750 3555 4637 
Q 3966 4525 4313 4306 
L 4313 3634 
Q 3963 3931 3569 4081 
Q 3175 4231 2741 4231 
Q 1884 4231 1454 3753 
Q 1025 3275 1025 2328 
Q 1025 1384 1454 906 
Q 1884 428 2741 428 
Q 3075 428 3337 486 
Q 3600 544 3809 666 
z
" transform="scale(0.015625)"/>
      <path id="DejaVuSans-70" d="M 1159 525 
L 1159 -1331 
L 581 -1331 
L 581 3500 
L 1159 3500 
L 1159 2969 
Q 1341 3281 1617 3432 
Q 1894 3584 2278 3584 
Q 2916 3584 3314 3078 
Q 3713 2572 3713 1747 
Q 3713 922 3314 415 
Q 2916 -91 2278 -91 
Q 1894 -91 1617 61 
Q 1341 213 1159 525 
z
M 3116 1747 
Q 3116 2381 2855 2742 
Q 2594 3103 2138 3103 
Q 1681 3103 1420 2742 
Q 1159 2381 1159 1747 
Q 1159 1113 1420 752 
Q 1681 391 2138 391 
Q 2594 391 2855 752 
Q 3116 1113 3116 1747 
z
" transform="scale(0.015625)"/>
      <path id="DejaVuSans-3a" d="M 750 794 
L 1409 794 
L 1409 0 
L 750 0 
L 750 794 
z
M 750 3309 
L 1409 3309 
L 1409 2516 
L 750 2516 
L 750 3309 
z
" transform="scale(0.015625)"/>
      <path id="DejaVuSans-53" d="M 3425 4513 
L 3425 3897 
Q 3066 4069 2747 4153 
Q 2428 4238 2131 4238 
Q 1616 4238 1336 4038 
Q 1056 3838 1056 3469 
Q 1056 3159 1242 3001 
Q 1428 2844 1947 2747 
L 2328 2669 
Q 3034 2534 3370 2195 
Q 3706 1856 3706 1288 
Q 3706 609 3251 259 
Q 2797 -91 1919 -91 
Q 1588 -91 1214 -16 
Q 841 59 441 206 
L 441 856 
Q 825 641 1194 531 
Q 1563 422 1919 422 
Q 2459 422 2753 634 
Q 3047 847 3047 1241 
Q 3047 1584 2836 1778 
Q 2625 1972 2144 2069 
L 1759 2144 
Q 1053 2284 737 2584 
Q 422 2884 422 3419 
Q 422 4038 858 4394 
Q 1294 4750 2059 4750 
Q 2388 4750 2728 4690 
Q 3069 4631 3425 4513 
z
" transform="scale(0.015625)"/>
      <path id="DejaVuSans-3c1" d="M 863 2875 
Q 1053 3194 1525 3475 
Q 1709 3584 2278 3584 
Q 2916 3584 3314 3078 
Q 3713 2572 3713 1747 
Q 3713 922 3314 415 
Q 2916 -91 2278 -91 
Q 1894 -91 1617 61 
Q 1341 213 1159 525 
L 1159 -1331 
L 581 -1331 
L 581 1716 
Q 581 2438 863 2875 
z
M 3116 1747 
Q 3116 2381 2855 2742 
Q 2594 3103 2138 3103 
Q 1681 3103 1420 2742 
Q 1159 2381 1159 1747 
Q 1159 1113 1420 752 
Q 1681 391 2138 391 
Q 2594 391 2855 752 
Q 3116 1113 3116 1747 
z
" transform="scale(0.015625)"/>
      <path id="DejaVuSans-3d" d="M 678 2906 
L 4684 2906 
L 4684 2381 
L 678 2381 
L 678 2906 
z
M 678 1631 
L 4684 1631 
L 4684 1100 
L 678 1100 
L 678 1631 
z
" transform="scale(0.015625)"/>
     </defs>
     <use xlink:href="#DejaVuSans-47"/>
     <use xlink:href="#DejaVuSans-65" transform="translate(77.490234 0)"/>
     <use xlink:href="#DejaVuSans-6e" transform="translate(139.013672 0)"/>
     <use xlink:href="#DejaVuSans-65" transform="translate(202.392578 0)"/>
     <use xlink:href="#DejaVuSans-72" transform="translate(263.916016 0)"/>
     <use xlink:href="#DejaVuSans-61" transform="translate(305.029297 0)"/>
     <use xlink:href="#DejaVuSans-6c" transform="translate(366.308594 0)"/>
     <use xlink:href="#DejaVuSans-20" transform="translate(394.091797 0)"/>
     <use xlink:href="#DejaVuSans-70" transform="translate(425.878906 0)"/>
     <use xlink:href="#DejaVuSans-61" transform="translate(489.355469 0)"/>
     <use xlink:href="#DejaVuSans-74" transform="translate(550.634766 0)"/>
     <use xlink:href="#DejaVuSans-74" transform="translate(589.84375 0)"/>
     <use xlink:href="#DejaVuSans-65" transform="translate(629.052734 0)"/>
     <use xlink:href="#DejaVuSans-72" transform="translate(690.576172 0)"/>
     <use xlink:href="#DejaVuSans-6e" transform="translate(729.939453 0)"/>
     <use xlink:href="#DejaVuSans-3a" transform="translate(793.318359 0)"/>
     <use xlink:href="#DejaVuSans-20" transform="translate(827.009766 0)"/>
     <use xlink:href="#DejaVuSans-53" transform="translate(858.796875 0)"/>
     <use xlink:href="#DejaVuSans-70" transform="translate(922.273438 0)"/>
     <use xlink:href="#DejaVuSans-65" transform="translate(985.75 0)"/>
     <use xlink:href="#DejaVuSans-61" transform="translate(1047.273438 0)"/>
     <use xlink:href="#DejaVuSans-72" transform="translate(1108.552734 0)"/>
     <use xlink:href="#DejaVuSans-6d" transform="translate(1147.916016 0)"/>
     <use xlink:href="#DejaVuSans-61" transform="translate(1245.328125 0)"/>
     <use xlink:href="#DejaVuSans-6e" transform="translate(1306.607422 0)"/>
     <use xlink:href="#DejaVuSans-20" transform="translate(1369.986328 0)"/>
     <use xlink:href="#DejaVuSans-3c1" transform="translate(1401.773438 0)"/>
     <use xlink:href="#DejaVuSans-20" transform="translate(1465.25 0)"/>
     <use xlink:href="#DejaVuSans-3d" transform="translate(1497.037109 0)"/>
     <use xlink:href="#DejaVuSans-20" transform="translate(1580.826172 0)"/>
     <use xlink:href="#DejaVuSans-30" transform="translate(1612.613281 0)"/>
     <use xlink:href="#DejaVuSans-2e" transform="translate(1676.236328 0)"/>
     <use xlink:href="#DejaVuSans-38" transform="translate(1708.023438 0)"/>
     <use xlink:href="#DejaVuSans-32" transform="translate(1771.646484 0)"/>
    </g>
   </g>
   <g id="PathCollection_2">
    <defs>
     <path id="m616d97885c" d="M 0 4.743416 
C 1.257969 4.743416 2.464584 4.24362 3.354102 3.354102 
C 4.24362 2.464584 4.743416 1.257969 4.743416 0 
C 4.743416 -1.257969 4.24362 -2.464584 3.354102 -3.354102 
C 2.464584 -4.24362 1.257969 -4.743416 0 -4.743416 
C -1.257969 -4.743416 -2.464584 -4.24362 -3.354102 -3.354102 
C -4.24362 -2.464584 -4.743416 -1.257969 -4.743416 0 
C -4.743416 1.257969 -4.24362 2.464584 -3.354102 3.354102 
C -2.464584 4.24362 -1.257969 4.743416 0 4.743416 
z
" style="stroke: #102a43; stroke-width: 0.7"/>
    </defs>
    <g clip-path="url(#p34b46cd5e2)">
     <use xlink:href="#m616d97885c" x="282.143554" y="172.831047" style="fill: #d4a44c; stroke: #102a43; stroke-width: 0.7"/>
     <use xlink:href="#m616d97885c" x="281.421246" y="175.698235" style="fill: #d4a44c; stroke: #102a43; stroke-width: 0.7"/>
     <use xlink:href="#m616d97885c" x="304.339478" y="129.298861" style="fill: #d4a44c; stroke: #102a43; stroke-width: 0.7"/>
     <use xlink:href="#m616d97885c" x="302.404901" y="228.801119" style="fill: #d4a44c; stroke: #102a43; stroke-width: 0.7"/>
    </g>
   </g>
  </g>
  <g id="patch_7">
   <path d="M 11.52 348.48 
L 564.48 348.48 
L 564.48 11.52 
L 11.52 11.52 
L 11.52 348.48 
z
" style="fill: none"/>
  </g>
 </g>
 <defs>
  <clipPath id="p34b46cd5e2">
   <rect x="80.64" y="25.2" width="475.2" height="277.2"/>
  </clipPath>
 </defs>
</svg>
