<?xml version="1.0" encoding="utf-8" standalone="no"?>
<!DOCTYPE svg PUBLIC "-//W3C//DTD SVG 1.1//EN"
  "http://www.w3.org/Graphics/SVG/1.1/DTD/svg11.dtd">
<svg xmlns:xlink="http://www.w3.org/1999/xlink" width="864pt" height="518.4pt" viewBox="0 0 864 518.4" xmlns="http://www.w3.org/2000/svg" version="1.1">
 <metadata>
  <rdf:RDF xmlns:dc="http://purl.org/dc/elements/1.1/" xmlns:cc="http://creativecommons.org/ns#" xmlns:rdf="http://www.w3.org/1999/02/22-rdf-syntax-ns#">
   <cc:Work>
    <dc:type rdf:resource="http://purl.org/dc/dcmitype/StillImage"/>
    <dc:date>2026-07-13T14:02:24.589705</dc:date>
    <dc:format>image/svg+xml</dc:format>
    <dc:creator>
     <cc:Agent>
      <dc:title>Matplotlib v3.11.0, https://matplotlib.org/</dc:title>
     </cc:Agent>
    </dc:creator>
   </cc:Work>
  </rdf:RDF>
 </metadata>
 <defs>
  <style type="text/css">*{stroke-linejoin: round; stroke-linecap: butt}</style>
 </defs>
 <g id="figure_1">
  <g id="patch_1">
   <path d="M 0 518.4 
L 864 518.4 
L 864 0 
L 0 0 
z
" style="fill: #ffffff"/>
  </g>
  <g id="axes_1">
   <g id="patch_2">
    <path d="M 77.76 445.824 
L 842.4 445.824 
L 842.4 82.944 
L 77.76 82.944 
z
" style="fill: #ffffff"/>
   </g>
   <g id="patch_3">
    <path d="M 737.570323 445.824 
L 840.344516 445.824 
L 840.344516 82.944 
L 737.570323 82.944 
z
" clip-path="url(#p6d546a2ce8)" style="fill: #d4a44c; opacity: 0.11; stroke: #d4a44c; stroke-linejoin: miter"/>
   </g>
   <g id="matplotlib.axis_1">
    <g id="xtick_1">
     <g id="line2d_1"/>
     <g id="text_1">
      <!-- 1990 -->
      <g style="fill: #66788a" transform="translate(97.403054 461.181422) scale(0.11 -0.11)">
       <defs>
        <path id="DejaVuSansMono-14" d="M 844 531 
L 1825 531 
L 1825 4097 
L 769 3859 
L 769 4434 
L 1819 4666 
L 2450 4666 
L 2450 531 
L 3419 531 
L 3419 0 
L 844 0 
L 844 531 
z
" transform="scale(0.015625)"/>
        <path id="DejaVuSansMono-1c" d="M 1863 2069 
Q 2266 2069 2495 2359 
Q 2725 2650 2725 3163 
Q 2725 3675 2495 3965 
Q 2266 4256 1863 4256 
Q 1444 4256 1231 3979 
Q 1019 3703 1019 3163 
Q 1019 2619 1230 2344 
Q 1441 2069 1863 2069 
z
M 738 97 
L 738 678 
Q 934 563 1156 502 
Q 1378 441 1619 441 
Q 2219 441 2526 892 
Q 2834 1344 2834 2222 
Q 2688 1909 2422 1742 
Q 2156 1575 1813 1575 
Q 1138 1575 767 1990 
Q 397 2406 397 3169 
Q 397 3922 776 4336 
Q 1156 4750 1850 4750 
Q 2663 4750 3041 4165 
Q 3419 3581 3419 2328 
Q 3419 1150 2964 529 
Q 2509 -91 1644 -91 
Q 1416 -91 1184 -42 
Q 953 6 738 97 
z
" transform="scale(0.015625)"/>
        <path id="DejaVuSansMono-13" d="M 1509 2344 
Q 1509 2516 1629 2641 
Q 1750 2766 1919 2766 
Q 2094 2766 2219 2641 
Q 2344 2516 2344 2344 
Q 2344 2169 2220 2047 
Q 2097 1925 1919 1925 
Q 1744 1925 1626 2044 
Q 1509 2163 1509 2344 
z
M 1925 4250 
Q 1484 4250 1267 3775 
Q 1050 3300 1050 2328 
Q 1050 1359 1267 884 
Q 1484 409 1925 409 
Q 2369 409 2586 884 
Q 2803 1359 2803 2328 
Q 2803 3300 2586 3775 
Q 2369 4250 1925 4250 
z
M 1925 4750 
Q 2672 4750 3055 4137 
Q 3438 3525 3438 2328 
Q 3438 1134 3055 521 
Q 2672 -91 1925 -91 
Q 1178 -91 797 521 
Q 416 1134 416 2328 
Q 416 3525 797 4137 
Q 1178 4750 1925 4750 
z
" transform="scale(0.015625)"/>
       </defs>
       <use xlink:href="#DejaVuSansMono-14"/>
       <use xlink:href="#DejaVuSansMono-1c" transform="translate(60.203125 0)"/>
       <use xlink:href="#DejaVuSansMono-1c" transform="translate(120.40625 0)"/>
       <use xlink:href="#DejaVuSansMono-13" transform="translate(180.609375 0)"/>
      </g>
     </g>
    </g>
    <g id="xtick_2">
     <g id="line2d_2"/>
     <g id="text_2">
      <!-- 1995 -->
      <g style="fill: #66788a" transform="translate(200.177248 461.181422) scale(0.11 -0.11)">
       <defs>
        <path id="DejaVuSansMono-18" d="M 647 4666 
L 3009 4666 
L 3009 4134 
L 1222 4134 
L 1222 2988 
Q 1356 3038 1492 3061 
Q 1628 3084 1766 3084 
Q 2491 3084 2916 2656 
Q 3341 2228 3341 1497 
Q 3341 759 2895 334 
Q 2450 -91 1678 -91 
Q 1306 -91 998 -41 
Q 691 9 447 109 
L 447 750 
Q 734 594 1025 517 
Q 1316 441 1619 441 
Q 2141 441 2423 716 
Q 2706 991 2706 1497 
Q 2706 1997 2414 2275 
Q 2122 2553 1600 2553 
Q 1347 2553 1106 2495 
Q 866 2438 647 2322 
L 647 4666 
z
" transform="scale(0.015625)"/>
       </defs>
       <use xlink:href="#DejaVuSansMono-14"/>
       <use xlink:href="#DejaVuSansMono-1c" transform="translate(60.203125 0)"/>
       <use xlink:href="#DejaVuSansMono-1c" transform="translate(120.40625 0)"/>
       <use xlink:href="#DejaVuSansMono-18" transform="translate(180.609375 0)"/>
      </g>
     </g>
    </g>
    <g id="xtick_3">
     <g id="line2d_3"/>
     <g id="text_3">
      <!-- 2000 -->
      <g style="fill: #66788a" transform="translate(302.951442 461.181422) scale(0.11 -0.11)">
       <defs>
        <path id="DejaVuSansMono-15" d="M 1166 531 
L 3309 531 
L 3309 0 
L 475 0 
L 475 531 
Q 1059 1147 1496 1619 
Q 1934 2091 2100 2284 
Q 2413 2666 2522 2902 
Q 2631 3138 2631 3384 
Q 2631 3775 2401 3997 
Q 2172 4219 1772 4219 
Q 1488 4219 1175 4116 
Q 863 4013 513 3803 
L 513 4441 
Q 834 4594 1145 4672 
Q 1456 4750 1759 4750 
Q 2444 4750 2861 4386 
Q 3278 4022 3278 3431 
Q 3278 3131 3139 2831 
Q 3000 2531 2688 2169 
Q 2513 1966 2180 1606 
Q 1847 1247 1166 531 
z
" transform="scale(0.015625)"/>
       </defs>
       <use xlink:href="#DejaVuSansMono-15"/>
       <use xlink:href="#DejaVuSansMono-13" transform="translate(60.203125 0)"/>
       <use xlink:href="#DejaVuSansMono-13" transform="translate(120.40625 0)"/>
       <use xlink:href="#DejaVuSansMono-13" transform="translate(180.609375 0)"/>
      </g>
     </g>
    </g>
    <g id="xtick_4">
     <g id="line2d_4"/>
     <g id="text_4">
      <!-- 2005 -->
      <g style="fill: #66788a" transform="translate(405.725635 461.181422) scale(0.11 -0.11)">
       <use xlink:href="#DejaVuSansMono-15"/>
       <use xlink:href="#DejaVuSansMono-13" transform="translate(60.203125 0)"/>
       <use xlink:href="#DejaVuSansMono-13" transform="translate(120.40625 0)"/>
       <use xlink:href="#DejaVuSansMono-18" transform="translate(180.609375 0)"/>
      </g>
     </g>
    </g>
    <g id="xtick_5">
     <g id="line2d_5"/>
     <g id="text_5">
      <!-- 2010 -->
      <g style="fill: #66788a" transform="translate(508.499829 461.181422) scale(0.11 -0.11)">
       <use xlink:href="#DejaVuSansMono-15"/>
       <use xlink:href="#DejaVuSansMono-13" transform="translate(60.203125 0)"/>
       <use xlink:href="#DejaVuSansMono-14" transform="translate(120.40625 0)"/>
       <use xlink:href="#DejaVuSansMono-13" transform="translate(180.609375 0)"/>
      </g>
     </g>
    </g>
    <g id="xtick_6">
     <g id="line2d_6"/>
     <g id="text_6">
      <!-- 2015 -->
      <g style="fill: #66788a" transform="translate(611.274022 461.181422) scale(0.11 -0.11)">
       <use xlink:href="#DejaVuSansMono-15"/>
       <use xlink:href="#DejaVuSansMono-13" transform="translate(60.203125 0)"/>
       <use xlink:href="#DejaVuSansMono-14" transform="translate(120.40625 0)"/>
       <use xlink:href="#DejaVuSansMono-18" transform="translate(180.609375 0)"/>
      </g>
     </g>
    </g>
    <g id="xtick_7">
     <g id="line2d_7"/>
     <g id="text_7">
      <!-- 2020 -->
      <g style="fill: #66788a" transform="translate(714.048216 461.181422) scale(0.11 -0.11)">
       <use xlink:href="#DejaVuSansMono-15"/>
       <use xlink:href="#DejaVuSansMono-13" transform="translate(60.203125 0)"/>
       <use xlink:href="#DejaVuSansMono-15" transform="translate(120.40625 0)"/>
       <use xlink:href="#DejaVuSansMono-13" transform="translate(180.609375 0)"/>
      </g>
     </g>
    </g>
    <g id="xtick_8">
     <g id="line2d_8"/>
     <g id="text_8">
      <!-- 2025 -->
      <g style="fill: #66788a" transform="translate(816.822409 461.181422) scale(0.11 -0.11)">
       <use xlink:href="#DejaVuSansMono-15"/>
       <use xlink:href="#DejaVuSansMono-13" transform="translate(60.203125 0)"/>
       <use xlink:href="#DejaVuSansMono-15" transform="translate(120.40625 0)"/>
       <use xlink:href="#DejaVuSansMono-18" transform="translate(180.609375 0)"/>
      </g>
     </g>
    </g>
   </g>
   <g id="matplotlib.axis_2">
    <g id="ytick_1">
     <g id="line2d_9">
      <path d="M 77.76 445.824 
L 842.4 445.824 
" clip-path="url(#p6d546a2ce8)" style="fill: none; stroke: #ede9df; stroke-width: 0.8; stroke-linecap: square"/>
     </g>
     <g id="line2d_10"/>
     <g id="text_9">
      <!-- 0 -->
      <g style="fill: #66788a" transform="translate(64.137656 450.002711) scale(0.11 -0.11)">
       <use xlink:href="#DejaVuSansMono-13"/>
      </g>
     </g>
    </g>
    <g id="ytick_2">
     <g id="line2d_11">
      <path d="M 77.76 405.504 
L 842.4 405.504 
" clip-path="url(#p6d546a2ce8)" style="fill: none; stroke: #ede9df; stroke-width: 0.8; stroke-linecap: square"/>
     </g>
     <g id="line2d_12"/>
     <g id="text_10">
      <!-- 100k -->
      <g style="fill: #66788a" transform="translate(44.270625 409.683141) scale(0.11 -0.11)">
       <defs>
        <path id="DejaVuSansMono-4e" d="M 738 4863 
L 1331 4863 
L 1331 2047 
L 2841 3500 
L 3541 3500 
L 2163 2181 
L 3756 0 
L 3053 0 
L 1759 1806 
L 1331 1403 
L 1331 0 
L 738 0 
L 738 4863 
z
" transform="scale(0.015625)"/>
       </defs>
       <use xlink:href="#DejaVuSansMono-14"/>
       <use xlink:href="#DejaVuSansMono-13" transform="translate(60.203125 0)"/>
       <use xlink:href="#DejaVuSansMono-13" transform="translate(120.40625 0)"/>
       <use xlink:href="#DejaVuSansMono-4e" transform="translate(180.609375 0)"/>
      </g>
     </g>
    </g>
    <g id="ytick_3">
     <g id="line2d_13">
      <path d="M 77.76 365.184 
L 842.4 365.184 
" clip-path="url(#p6d546a2ce8)" style="fill: none; stroke: #ede9df; stroke-width: 0.8; stroke-linecap: square"/>
     </g>
     <g id="line2d_14"/>
     <g id="text_11">
      <!-- 200k -->
      <g style="fill: #66788a" transform="translate(44.270625 369.363141) scale(0.11 -0.11)">
       <use xlink:href="#DejaVuSansMono-15"/>
       <use xlink:href="#DejaVuSansMono-13" transform="translate(60.203125 0)"/>
       <use xlink:href="#DejaVuSansMono-13" transform="translate(120.40625 0)"/>
       <use xlink:href="#DejaVuSansMono-4e" transform="translate(180.609375 0)"/>
      </g>
     </g>
    </g>
    <g id="ytick_4">
     <g id="line2d_15">
      <path d="M 77.76 324.864 
L 842.4 324.864 
" clip-path="url(#p6d546a2ce8)" style="fill: none; stroke: #ede9df; stroke-width: 0.8; stroke-linecap: square"/>
     </g>
     <g id="line2d_16"/>
     <g id="text_12">
      <!-- 300k -->
      <g style="fill: #66788a" transform="translate(44.270625 329.043141) scale(0.11 -0.11)">
       <defs>
        <path id="DejaVuSansMono-16" d="M 2425 2497 
Q 2884 2375 3128 2064 
Q 3372 1753 3372 1288 
Q 3372 644 2939 276 
Q 2506 -91 1741 -91 
Q 1419 -91 1084 -31 
Q 750 28 428 141 
L 428 769 
Q 747 603 1056 522 
Q 1366 441 1672 441 
Q 2191 441 2469 675 
Q 2747 909 2747 1350 
Q 2747 1756 2469 1995 
Q 2191 2234 1716 2234 
L 1234 2234 
L 1234 2753 
L 1716 2753 
Q 2150 2753 2394 2943 
Q 2638 3134 2638 3475 
Q 2638 3834 2411 4026 
Q 2184 4219 1766 4219 
Q 1488 4219 1191 4156 
Q 894 4094 569 3969 
L 569 4550 
Q 947 4650 1242 4700 
Q 1538 4750 1766 4750 
Q 2447 4750 2855 4408 
Q 3263 4066 3263 3500 
Q 3263 3116 3048 2859 
Q 2834 2603 2425 2497 
z
" transform="scale(0.015625)"/>
       </defs>
       <use xlink:href="#DejaVuSansMono-16"/>
       <use xlink:href="#DejaVuSansMono-13" transform="translate(60.203125 0)"/>
       <use xlink:href="#DejaVuSansMono-13" transform="translate(120.40625 0)"/>
       <use xlink:href="#DejaVuSansMono-4e" transform="translate(180.609375 0)"/>
      </g>
     </g>
    </g>
    <g id="ytick_5">
     <g id="line2d_17">
      <path d="M 77.76 284.544 
L 842.4 284.544 
" clip-path="url(#p6d546a2ce8)" style="fill: none; stroke: #ede9df; stroke-width: 0.8; stroke-linecap: square"/>
     </g>
     <g id="line2d_18"/>
     <g id="text_13">
      <!-- 400k -->
      <g style="fill: #66788a" transform="translate(44.270625 288.723141) scale(0.11 -0.11)">
       <defs>
        <path id="DejaVuSansMono-17" d="M 2297 4091 
L 825 1625 
L 2297 1625 
L 2297 4091 
z
M 2194 4666 
L 2925 4666 
L 2925 1625 
L 3547 1625 
L 3547 1113 
L 2925 1113 
L 2925 0 
L 2297 0 
L 2297 1113 
L 319 1113 
L 319 1709 
L 2194 4666 
z
" transform="scale(0.015625)"/>
       </defs>
       <use xlink:href="#DejaVuSansMono-17"/>
       <use xlink:href="#DejaVuSansMono-13" transform="translate(60.203125 0)"/>
       <use xlink:href="#DejaVuSansMono-13" transform="translate(120.40625 0)"/>
       <use xlink:href="#DejaVuSansMono-4e" transform="translate(180.609375 0)"/>
      </g>
     </g>
    </g>
    <g id="ytick_6">
     <g id="line2d_19">
      <path d="M 77.76 244.224 
L 842.4 244.224 
" clip-path="url(#p6d546a2ce8)" style="fill: none; stroke: #ede9df; stroke-width: 0.8; stroke-linecap: square"/>
     </g>
     <g id="line2d_20"/>
     <g id="text_14">
      <!-- 500k -->
      <g style="fill: #66788a" transform="translate(44.270625 248.403141) scale(0.11 -0.11)">
       <use xlink:href="#DejaVuSansMono-18"/>
       <use xlink:href="#DejaVuSansMono-13" transform="translate(60.203125 0)"/>
       <use xlink:href="#DejaVuSansMono-13" transform="translate(120.40625 0)"/>
       <use xlink:href="#DejaVuSansMono-4e" transform="translate(180.609375 0)"/>
      </g>
     </g>
    </g>
    <g id="ytick_7">
     <g id="line2d_21">
      <path d="M 77.76 203.904 
L 842.4 203.904 
" clip-path="url(#p6d546a2ce8)" style="fill: none; stroke: #ede9df; stroke-width: 0.8; stroke-linecap: square"/>
     </g>
     <g id="line2d_22"/>
     <g id="text_15">
      <!-- 600k -->
      <g style="fill: #66788a" transform="translate(44.270625 208.083141) scale(0.11 -0.11)">
       <defs>
        <path id="DejaVuSansMono-19" d="M 3097 4563 
L 3097 3981 
Q 2900 4097 2678 4158 
Q 2456 4219 2216 4219 
Q 1616 4219 1306 3767 
Q 997 3316 997 2438 
Q 1147 2750 1412 2917 
Q 1678 3084 2022 3084 
Q 2697 3084 3067 2670 
Q 3438 2256 3438 1497 
Q 3438 741 3056 325 
Q 2675 -91 1984 -91 
Q 1172 -91 794 492 
Q 416 1075 416 2328 
Q 416 3509 870 4129 
Q 1325 4750 2188 4750 
Q 2419 4750 2650 4701 
Q 2881 4653 3097 4563 
z
M 1972 2591 
Q 1569 2591 1337 2300 
Q 1106 2009 1106 1497 
Q 1106 984 1337 693 
Q 1569 403 1972 403 
Q 2391 403 2603 679 
Q 2816 956 2816 1497 
Q 2816 2041 2603 2316 
Q 2391 2591 1972 2591 
z
" transform="scale(0.015625)"/>
       </defs>
       <use xlink:href="#DejaVuSansMono-19"/>
       <use xlink:href="#DejaVuSansMono-13" transform="translate(60.203125 0)"/>
       <use xlink:href="#DejaVuSansMono-13" transform="translate(120.40625 0)"/>
       <use xlink:href="#DejaVuSansMono-4e" transform="translate(180.609375 0)"/>
      </g>
     </g>
    </g>
    <g id="ytick_8">
     <g id="line2d_23">
      <path d="M 77.76 163.584 
L 842.4 163.584 
" clip-path="url(#p6d546a2ce8)" style="fill: none; stroke: #ede9df; stroke-width: 0.8; stroke-linecap: square"/>
     </g>
     <g id="line2d_24"/>
     <g id="text_16">
      <!-- 700k -->
      <g style="fill: #66788a" transform="translate(44.270625 167.763141) scale(0.11 -0.11)">
       <defs>
        <path id="DejaVuSansMono-1a" d="M 434 4666 
L 3372 4666 
L 3372 4397 
L 1703 0 
L 1044 0 
L 2669 4134 
L 434 4134 
L 434 4666 
z
" transform="scale(0.015625)"/>
       </defs>
       <use xlink:href="#DejaVuSansMono-1a"/>
       <use xlink:href="#DejaVuSansMono-13" transform="translate(60.203125 0)"/>
       <use xlink:href="#DejaVuSansMono-13" transform="translate(120.40625 0)"/>
       <use xlink:href="#DejaVuSansMono-4e" transform="translate(180.609375 0)"/>
      </g>
     </g>
    </g>
    <g id="ytick_9">
     <g id="line2d_25">
      <path d="M 77.76 123.264 
L 842.4 123.264 
" clip-path="url(#p6d546a2ce8)" style="fill: none; stroke: #ede9df; stroke-width: 0.8; stroke-linecap: square"/>
     </g>
     <g id="line2d_26"/>
     <g id="text_17">
      <!-- 800k -->
      <g style="fill: #66788a" transform="translate(44.270625 127.443141) scale(0.11 -0.11)">
       <defs>
        <path id="DejaVuSansMono-1b" d="M 1925 2216 
Q 1503 2216 1273 1980 
Q 1044 1744 1044 1313 
Q 1044 881 1276 642 
Q 1509 403 1925 403 
Q 2350 403 2579 639 
Q 2809 875 2809 1313 
Q 2809 1741 2576 1978 
Q 2344 2216 1925 2216 
z
M 1375 2478 
Q 972 2581 745 2862 
Q 519 3144 519 3541 
Q 519 4097 897 4423 
Q 1275 4750 1925 4750 
Q 2578 4750 2956 4423 
Q 3334 4097 3334 3541 
Q 3334 3144 3107 2862 
Q 2881 2581 2478 2478 
Q 2947 2375 3195 2062 
Q 3444 1750 3444 1253 
Q 3444 622 3041 265 
Q 2638 -91 1925 -91 
Q 1213 -91 811 264 
Q 409 619 409 1247 
Q 409 1747 657 2061 
Q 906 2375 1375 2478 
z
M 1147 3481 
Q 1147 3106 1347 2909 
Q 1547 2713 1925 2713 
Q 2306 2713 2506 2909 
Q 2706 3106 2706 3481 
Q 2706 3863 2507 4063 
Q 2309 4263 1925 4263 
Q 1547 4263 1347 4061 
Q 1147 3859 1147 3481 
z
" transform="scale(0.015625)"/>
       </defs>
       <use xlink:href="#DejaVuSansMono-1b"/>
       <use xlink:href="#DejaVuSansMono-13" transform="translate(60.203125 0)"/>
       <use xlink:href="#DejaVuSansMono-13" transform="translate(120.40625 0)"/>
       <use xlink:href="#DejaVuSansMono-4e" transform="translate(180.609375 0)"/>
      </g>
     </g>
    </g>
    <g id="ytick_10">
     <g id="line2d_27">
      <path d="M 77.76 82.944 
L 842.4 82.944 
" clip-path="url(#p6d546a2ce8)" style="fill: none; stroke: #ede9df; stroke-width: 0.8; stroke-linecap: square"/>
     </g>
     <g id="line2d_28"/>
     <g id="text_18">
      <!-- 900k -->
      <g style="fill: #66788a" transform="translate(44.270625 87.123141) scale(0.11 -0.11)">
       <use xlink:href="#DejaVuSansMono-1c"/>
       <use xlink:href="#DejaVuSansMono-13" transform="translate(60.203125 0)"/>
       <use xlink:href="#DejaVuSansMono-13" transform="translate(120.40625 0)"/>
       <use xlink:href="#DejaVuSansMono-4e" transform="translate(180.609375 0)"/>
      </g>
     </g>
    </g>
    <g id="text_19">
     <!-- Recorded deaths (best estimate) -->
     <g style="fill: #243b53" transform="translate(27.387812 362.859) rotate(-90) scale(0.12 -0.12)">
      <defs>
       <path id="DejaVuSans-35" d="M 2841 2188 
Q 3044 2119 3236 1894 
Q 3428 1669 3622 1275 
L 4263 0 
L 3584 0 
L 2988 1197 
Q 2756 1666 2539 1819 
Q 2322 1972 1947 1972 
L 1259 1972 
L 1259 0 
L 628 0 
L 628 4666 
L 2053 4666 
Q 2853 4666 3247 4331 
Q 3641 3997 3641 3322 
Q 3641 2881 3436 2590 
Q 3231 2300 2841 2188 
z
M 1259 4147 
L 1259 2491 
L 2053 2491 
Q 2509 2491 2742 2702 
Q 2975 2913 2975 3322 
Q 2975 3731 2742 3939 
Q 2509 4147 2053 4147 
L 1259 4147 
z
" transform="scale(0.015625)"/>
       <path id="DejaVuSans-48" d="M 3597 1894 
L 3597 1613 
L 953 1613 
Q 991 1019 1311 708 
Q 1631 397 2203 397 
Q 2534 397 2845 478 
Q 3156 559 3463 722 
L 3463 178 
Q 3153 47 2828 -22 
Q 2503 -91 2169 -91 
Q 1331 -91 842 396 
Q 353 884 353 1716 
Q 353 2575 817 3079 
Q 1281 3584 2069 3584 
Q 2775 3584 3186 3129 
Q 3597 2675 3597 1894 
z
M 3022 2063 
Q 3016 2534 2758 2815 
Q 2500 3097 2075 3097 
Q 1594 3097 1305 2825 
Q 1016 2553 972 2059 
L 3022 2063 
z
" transform="scale(0.015625)"/>
       <path id="DejaVuSans-46" d="M 3122 3366 
L 3122 2828 
Q 2878 2963 2633 3030 
Q 2388 3097 2138 3097 
Q 1578 3097 1268 2742 
Q 959 2388 959 1747 
Q 959 1106 1268 751 
Q 1578 397 2138 397 
Q 2388 397 2633 464 
Q 2878 531 3122 666 
L 3122 134 
Q 2881 22 2623 -34 
Q 2366 -91 2075 -91 
Q 1284 -91 818 406 
Q 353 903 353 1747 
Q 353 2603 823 3093 
Q 1294 3584 2113 3584 
Q 2378 3584 2631 3529 
Q 2884 3475 3122 3366 
z
" transform="scale(0.015625)"/>
       <path id="DejaVuSans-52" d="M 1959 3097 
Q 1497 3097 1228 2736 
Q 959 2375 959 1747 
Q 959 1119 1226 758 
Q 1494 397 1959 397 
Q 2419 397 2687 759 
Q 2956 1122 2956 1747 
Q 2956 2369 2687 2733 
Q 2419 3097 1959 3097 
z
M 1959 3584 
Q 2709 3584 3137 3096 
Q 3566 2609 3566 1747 
Q 3566 888 3137 398 
Q 2709 -91 1959 -91 
Q 1206 -91 779 398 
Q 353 888 353 1747 
Q 353 2609 779 3096 
Q 1206 3584 1959 3584 
z
" transform="scale(0.015625)"/>
       <path id="DejaVuSans-55" d="M 2631 2963 
Q 2534 3019 2420 3045 
Q 2306 3072 2169 3072 
Q 1681 3072 1420 2755 
Q 1159 2438 1159 1844 
L 1159 0 
L 581 0 
L 581 3500 
L 1159 3500 
L 1159 2956 
Q 1341 3275 1631 3429 
Q 1922 3584 2338 3584 
Q 2397 3584 2469 3576 
Q 2541 3569 2628 3553 
L 2631 2963 
z
" transform="scale(0.015625)"/>
       <path id="DejaVuSans-47" d="M 2906 2969 
L 2906 4863 
L 3481 4863 
L 3481 0 
L 2906 0 
L 2906 525 
Q 2725 213 2448 61 
Q 2172 -91 1784 -91 
Q 1150 -91 751 415 
Q 353 922 353 1747 
Q 353 2572 751 3078 
Q 1150 3584 1784 3584 
Q 2172 3584 2448 3432 
Q 2725 3281 2906 2969 
z
M 947 1747 
Q 947 1113 1208 752 
Q 1469 391 1925 391 
Q 2381 391 2643 752 
Q 2906 1113 2906 1747 
Q 2906 2381 2643 2742 
Q 2381 3103 1925 3103 
Q 1469 3103 1208 2742 
Q 947 2381 947 1747 
z
" transform="scale(0.015625)"/>
       <path id="DejaVuSans-3" transform="scale(0.015625)"/>
       <path id="DejaVuSans-44" d="M 2194 1759 
Q 1497 1759 1228 1600 
Q 959 1441 959 1056 
Q 959 750 1161 570 
Q 1363 391 1709 391 
Q 2188 391 2477 730 
Q 2766 1069 2766 1631 
L 2766 1759 
L 2194 1759 
z
M 3341 1997 
L 3341 0 
L 2766 0 
L 2766 531 
Q 2569 213 2275 61 
Q 1981 -91 1556 -91 
Q 1019 -91 701 211 
Q 384 513 384 1019 
Q 384 1609 779 1909 
Q 1175 2209 1959 2209 
L 2766 2209 
L 2766 2266 
Q 2766 2663 2505 2880 
Q 2244 3097 1772 3097 
Q 1472 3097 1187 3025 
Q 903 2953 641 2809 
L 641 3341 
Q 956 3463 1253 3523 
Q 1550 3584 1831 3584 
Q 2591 3584 2966 3190 
Q 3341 2797 3341 1997 
z
" transform="scale(0.015625)"/>
       <path id="DejaVuSans-57" d="M 1172 4494 
L 1172 3500 
L 2356 3500 
L 2356 3053 
L 1172 3053 
L 1172 1153 
Q 1172 725 1289 603 
Q 1406 481 1766 481 
L 2356 481 
L 2356 0 
L 1766 0 
Q 1100 0 847 248 
Q 594 497 594 1153 
L 594 3053 
L 172 3053 
L 172 3500 
L 594 3500 
L 594 4494 
L 1172 4494 
z
" transform="scale(0.015625)"/>
       <path id="DejaVuSans-4b" d="M 3513 2113 
L 3513 0 
L 2938 0 
L 2938 2094 
Q 2938 2591 2744 2837 
Q 2550 3084 2163 3084 
Q 1697 3084 1428 2787 
Q 1159 2491 1159 1978 
L 1159 0 
L 581 0 
L 581 4863 
L 1159 4863 
L 1159 2956 
Q 1366 3272 1645 3428 
Q 1925 3584 2291 3584 
Q 2894 3584 3203 3211 
Q 3513 2838 3513 2113 
z
" transform="scale(0.015625)"/>
       <path id="DejaVuSans-56" d="M 2834 3397 
L 2834 2853 
Q 2591 2978 2328 3040 
Q 2066 3103 1784 3103 
Q 1356 3103 1142 2972 
Q 928 2841 928 2578 
Q 928 2378 1081 2264 
Q 1234 2150 1697 2047 
L 1894 2003 
Q 2506 1872 2764 1633 
Q 3022 1394 3022 966 
Q 3022 478 2636 193 
Q 2250 -91 1575 -91 
Q 1294 -91 989 -36 
Q 684 19 347 128 
L 347 722 
Q 666 556 975 473 
Q 1284 391 1588 391 
Q 1994 391 2212 530 
Q 2431 669 2431 922 
Q 2431 1156 2273 1281 
Q 2116 1406 1581 1522 
L 1381 1569 
Q 847 1681 609 1914 
Q 372 2147 372 2553 
Q 372 3047 722 3315 
Q 1072 3584 1716 3584 
Q 2034 3584 2315 3537 
Q 2597 3491 2834 3397 
z
" transform="scale(0.015625)"/>
       <path id="DejaVuSans-b" d="M 1984 4856 
Q 1566 4138 1362 3434 
Q 1159 2731 1159 2009 
Q 1159 1288 1364 580 
Q 1569 -128 1984 -844 
L 1484 -844 
Q 1016 -109 783 600 
Q 550 1309 550 2009 
Q 550 2706 781 3412 
Q 1013 4119 1484 4856 
L 1984 4856 
z
" transform="scale(0.015625)"/>
       <path id="DejaVuSans-45" d="M 3116 1747 
Q 3116 2381 2855 2742 
Q 2594 3103 2138 3103 
Q 1681 3103 1420 2742 
Q 1159 2381 1159 1747 
Q 1159 1113 1420 752 
Q 1681 391 2138 391 
Q 2594 391 2855 752 
Q 3116 1113 3116 1747 
z
M 1159 2969 
Q 1341 3281 1617 3432 
Q 1894 3584 2278 3584 
Q 2916 3584 3314 3078 
Q 3713 2572 3713 1747 
Q 3713 922 3314 415 
Q 2916 -91 2278 -91 
Q 1894 -91 1617 61 
Q 1341 213 1159 525 
L 1159 0 
L 581 0 
L 581 4863 
L 1159 4863 
L 1159 2969 
z
" transform="scale(0.015625)"/>
       <path id="DejaVuSans-4c" d="M 603 3500 
L 1178 3500 
L 1178 0 
L 603 0 
L 603 3500 
z
M 603 4863 
L 1178 4863 
L 1178 4134 
L 603 4134 
L 603 4863 
z
" transform="scale(0.015625)"/>
       <path id="DejaVuSans-50" d="M 3328 2828 
Q 3544 3216 3844 3400 
Q 4144 3584 4550 3584 
Q 5097 3584 5394 3201 
Q 5691 2819 5691 2113 
L 5691 0 
L 5113 0 
L 5113 2094 
Q 5113 2597 4934 2840 
Q 4756 3084 4391 3084 
Q 3944 3084 3684 2787 
Q 3425 2491 3425 1978 
L 3425 0 
L 2847 0 
L 2847 2094 
Q 2847 2600 2669 2842 
Q 2491 3084 2119 3084 
Q 1678 3084 1418 2786 
Q 1159 2488 1159 1978 
L 1159 0 
L 581 0 
L 581 3500 
L 1159 3500 
L 1159 2956 
Q 1356 3278 1631 3431 
Q 1906 3584 2284 3584 
Q 2666 3584 2933 3390 
Q 3200 3197 3328 2828 
z
" transform="scale(0.015625)"/>
       <path id="DejaVuSans-c" d="M 513 4856 
L 1013 4856 
Q 1481 4119 1714 3412 
Q 1947 2706 1947 2009 
Q 1947 1309 1714 600 
Q 1481 -109 1013 -844 
L 513 -844 
Q 928 -128 1133 580 
Q 1338 1288 1338 2009 
Q 1338 2731 1133 3434 
Q 928 4138 513 4856 
z
" transform="scale(0.015625)"/>
      </defs>
      <use xlink:href="#DejaVuSans-35"/>
      <use xlink:href="#DejaVuSans-48" transform="translate(65 0)"/>
      <use xlink:href="#DejaVuSans-46" transform="translate(126.53125 0)"/>
      <use xlink:href="#DejaVuSans-52" transform="translate(181.515625 0)"/>
      <use xlink:href="#DejaVuSans-55" transform="translate(242.703125 0)"/>
      <use xlink:href="#DejaVuSans-47" transform="translate(282.0625 0)"/>
      <use xlink:href="#DejaVuSans-48" transform="translate(345.546875 0)"/>
      <use xlink:href="#DejaVuSans-47" transform="translate(407.078125 0)"/>
      <use xlink:href="#DejaVuSans-3" transform="translate(470.5625 0)"/>
      <use xlink:href="#DejaVuSans-47" transform="translate(502.34375 0)"/>
      <use xlink:href="#DejaVuSans-48" transform="translate(565.828125 0)"/>
      <use xlink:href="#DejaVuSans-44" transform="translate(627.359375 0)"/>
      <use xlink:href="#DejaVuSans-57" transform="translate(688.640625 0)"/>
      <use xlink:href="#DejaVuSans-4b" transform="translate(727.84375 0)"/>
      <use xlink:href="#DejaVuSans-56" transform="translate(791.21875 0)"/>
      <use xlink:href="#DejaVuSans-3" transform="translate(843.3125 0)"/>
      <use xlink:href="#DejaVuSans-b" transform="translate(875.09375 0)"/>
      <use xlink:href="#DejaVuSans-45" transform="translate(914.109375 0)"/>
      <use xlink:href="#DejaVuSans-48" transform="translate(977.59375 0)"/>
      <use xlink:href="#DejaVuSans-56" transform="translate(1039.125 0)"/>
      <use xlink:href="#DejaVuSans-57" transform="translate(1091.21875 0)"/>
      <use xlink:href="#DejaVuSans-3" transform="translate(1130.421875 0)"/>
      <use xlink:href="#DejaVuSans-48" transform="translate(1162.203125 0)"/>
      <use xlink:href="#DejaVuSans-56" transform="translate(1223.734375 0)"/>
      <use xlink:href="#DejaVuSans-57" transform="translate(1275.828125 0)"/>
      <use xlink:href="#DejaVuSans-4c" transform="translate(1315.03125 0)"/>
      <use xlink:href="#DejaVuSans-50" transform="translate(1342.8125 0)"/>
      <use xlink:href="#DejaVuSans-44" transform="translate(1440.21875 0)"/>
      <use xlink:href="#DejaVuSans-57" transform="translate(1501.5 0)"/>
      <use xlink:href="#DejaVuSans-48" transform="translate(1540.703125 0)"/>
      <use xlink:href="#DejaVuSans-c" transform="translate(1602.234375 0)"/>
     </g>
    </g>
   </g>
   <g id="patch_4">
    <path d="M 77.76 445.824 
L 842.4 445.824 
" style="fill: none; stroke: #d8d5cc; stroke-width: 0.9; stroke-linejoin: miter; stroke-linecap: square"/>
   </g>
   <g id="line2d_29">
    <path d="M 90.092903 418.281005 
L 110.647742 407.216794 
L 131.202581 411.790694 
L 151.757419 415.132013 
L 172.312258 415.893658 
L 192.867097 113.515834 
L 213.421935 420.472397 
L 233.976774 410.330304 
L 254.531613 419.017651 
L 275.086452 420.971558 
L 295.64129 404.421005 
L 316.196129 407.452262 
L 336.750968 430.337491 
L 357.305806 428.830733 
L 377.860645 429.261754 
L 398.415484 430.936243 
L 418.970323 437.280192 
L 439.525161 434.328768 
L 460.08 433.956614 
L 480.634839 429.597216 
L 501.189677 424.75559 
L 521.744516 431.753126 
L 542.299355 428.694048 
L 562.854194 408.946118 
L 583.409032 399.231821 
L 603.963871 384.641222 
L 624.51871 392.590714 
L 645.073548 398.761286 
L 665.628387 399.98903 
L 686.183226 409.740019 
L 706.738065 414.169978 
L 727.292903 403.810963 
L 747.847742 351.069178 
L 768.402581 317.632205 
L 788.957419 377.105818 
L 809.512258 369.938131 
L 830.067097 346.852915 
" clip-path="url(#p6d546a2ce8)" style="fill: none; stroke: #102a43; stroke-width: 2.4; stroke-linecap: square"/>
   </g>
   <g id="text_20">
    <!-- 1994  ·  824,177 -->
    <g style="fill: #102a43" transform="translate(204.867097 116.753138) scale(0.115 -0.115)">
     <defs>
      <path id="DejaVuSans-14" d="M 794 531 
L 1825 531 
L 1825 4091 
L 703 3866 
L 703 4441 
L 1819 4666 
L 2450 4666 
L 2450 531 
L 3481 531 
L 3481 0 
L 794 0 
L 794 531 
z
" transform="scale(0.015625)"/>
      <path id="DejaVuSans-1c" d="M 703 97 
L 703 672 
Q 941 559 1184 500 
Q 1428 441 1663 441 
Q 2288 441 2617 861 
Q 2947 1281 2994 2138 
Q 2813 1869 2534 1725 
Q 2256 1581 1919 1581 
Q 1219 1581 811 2004 
Q 403 2428 403 3163 
Q 403 3881 828 4315 
Q 1253 4750 1959 4750 
Q 2769 4750 3195 4129 
Q 3622 3509 3622 2328 
Q 3622 1225 3098 567 
Q 2575 -91 1691 -91 
Q 1453 -91 1209 -44 
Q 966 3 703 97 
z
M 1959 2075 
Q 2384 2075 2632 2365 
Q 2881 2656 2881 3163 
Q 2881 3666 2632 3958 
Q 2384 4250 1959 4250 
Q 1534 4250 1286 3958 
Q 1038 3666 1038 3163 
Q 1038 2656 1286 2365 
Q 1534 2075 1959 2075 
z
" transform="scale(0.015625)"/>
      <path id="DejaVuSans-17" d="M 2419 4116 
L 825 1625 
L 2419 1625 
L 2419 4116 
z
M 2253 4666 
L 3047 4666 
L 3047 1625 
L 3713 1625 
L 3713 1100 
L 3047 1100 
L 3047 0 
L 2419 0 
L 2419 1100 
L 313 1100 
L 313 1709 
L 2253 4666 
z
" transform="scale(0.015625)"/>
      <path id="DejaVuSans-79" d="M 684 2619 
L 1344 2619 
L 1344 1825 
L 684 1825 
L 684 2619 
z
" transform="scale(0.015625)"/>
      <path id="DejaVuSans-1b" d="M 2034 2216 
Q 1584 2216 1326 1975 
Q 1069 1734 1069 1313 
Q 1069 891 1326 650 
Q 1584 409 2034 409 
Q 2484 409 2743 651 
Q 3003 894 3003 1313 
Q 3003 1734 2745 1975 
Q 2488 2216 2034 2216 
z
M 1403 2484 
Q 997 2584 770 2862 
Q 544 3141 544 3541 
Q 544 4100 942 4425 
Q 1341 4750 2034 4750 
Q 2731 4750 3128 4425 
Q 3525 4100 3525 3541 
Q 3525 3141 3298 2862 
Q 3072 2584 2669 2484 
Q 3125 2378 3379 2068 
Q 3634 1759 3634 1313 
Q 3634 634 3220 271 
Q 2806 -91 2034 -91 
Q 1263 -91 848 271 
Q 434 634 434 1313 
Q 434 1759 690 2068 
Q 947 2378 1403 2484 
z
M 1172 3481 
Q 1172 3119 1398 2916 
Q 1625 2713 2034 2713 
Q 2441 2713 2670 2916 
Q 2900 3119 2900 3481 
Q 2900 3844 2670 4047 
Q 2441 4250 2034 4250 
Q 1625 4250 1398 4047 
Q 1172 3844 1172 3481 
z
" transform="scale(0.015625)"/>
      <path id="DejaVuSans-15" d="M 1228 531 
L 3431 531 
L 3431 0 
L 469 0 
L 469 531 
Q 828 903 1448 1529 
Q 2069 2156 2228 2338 
Q 2531 2678 2651 2914 
Q 2772 3150 2772 3378 
Q 2772 3750 2511 3984 
Q 2250 4219 1831 4219 
Q 1534 4219 1204 4116 
Q 875 4013 500 3803 
L 500 4441 
Q 881 4594 1212 4672 
Q 1544 4750 1819 4750 
Q 2544 4750 2975 4387 
Q 3406 4025 3406 3419 
Q 3406 3131 3298 2873 
Q 3191 2616 2906 2266 
Q 2828 2175 2409 1742 
Q 1991 1309 1228 531 
z
" transform="scale(0.015625)"/>
      <path id="DejaVuSans-f" d="M 750 794 
L 1409 794 
L 1409 256 
L 897 -744 
L 494 -744 
L 750 256 
L 750 794 
z
" transform="scale(0.015625)"/>
      <path id="DejaVuSans-1a" d="M 525 4666 
L 3525 4666 
L 3525 4397 
L 1831 0 
L 1172 0 
L 2766 4134 
L 525 4134 
L 525 4666 
z
" transform="scale(0.015625)"/>
     </defs>
     <use xlink:href="#DejaVuSans-14"/>
     <use xlink:href="#DejaVuSans-1c" transform="translate(63.625 0)"/>
     <use xlink:href="#DejaVuSans-1c" transform="translate(127.25 0)"/>
     <use xlink:href="#DejaVuSans-17" transform="translate(190.875 0)"/>
     <use xlink:href="#DejaVuSans-3" transform="translate(254.5 0)"/>
     <use xlink:href="#DejaVuSans-3" transform="translate(286.28125 0)"/>
     <use xlink:href="#DejaVuSans-79" transform="translate(318.0625 0)"/>
     <use xlink:href="#DejaVuSans-3" transform="translate(349.84375 0)"/>
     <use xlink:href="#DejaVuSans-3" transform="translate(381.625 0)"/>
     <use xlink:href="#DejaVuSans-1b" transform="translate(413.40625 0)"/>
     <use xlink:href="#DejaVuSans-15" transform="translate(477.03125 0)"/>
     <use xlink:href="#DejaVuSans-17" transform="translate(540.65625 0)"/>
     <use xlink:href="#DejaVuSans-f" transform="translate(604.28125 0)"/>
     <use xlink:href="#DejaVuSans-14" transform="translate(636.0625 0)"/>
     <use xlink:href="#DejaVuSans-1a" transform="translate(699.6875 0)"/>
     <use xlink:href="#DejaVuSans-1a" transform="translate(763.3125 0)"/>
    </g>
   </g>
   <g id="text_21">
    <!-- 2022  ·  317,936 -->
    <g style="fill: #102a43" transform="translate(663.304768 300.869509) scale(0.115 -0.115)">
     <defs>
      <path id="DejaVuSans-13" d="M 2034 4250 
Q 1547 4250 1301 3770 
Q 1056 3291 1056 2328 
Q 1056 1369 1301 889 
Q 1547 409 2034 409 
Q 2525 409 2770 889 
Q 3016 1369 3016 2328 
Q 3016 3291 2770 3770 
Q 2525 4250 2034 4250 
z
M 2034 4750 
Q 2819 4750 3233 4129 
Q 3647 3509 3647 2328 
Q 3647 1150 3233 529 
Q 2819 -91 2034 -91 
Q 1250 -91 836 529 
Q 422 1150 422 2328 
Q 422 3509 836 4129 
Q 1250 4750 2034 4750 
z
" transform="scale(0.015625)"/>
      <path id="DejaVuSans-16" d="M 2597 2516 
Q 3050 2419 3304 2112 
Q 3559 1806 3559 1356 
Q 3559 666 3084 287 
Q 2609 -91 1734 -91 
Q 1441 -91 1130 -33 
Q 819 25 488 141 
L 488 750 
Q 750 597 1062 519 
Q 1375 441 1716 441 
Q 2309 441 2620 675 
Q 2931 909 2931 1356 
Q 2931 1769 2642 2001 
Q 2353 2234 1838 2234 
L 1294 2234 
L 1294 2753 
L 1863 2753 
Q 2328 2753 2575 2939 
Q 2822 3125 2822 3475 
Q 2822 3834 2567 4026 
Q 2313 4219 1838 4219 
Q 1578 4219 1281 4162 
Q 984 4106 628 3988 
L 628 4550 
Q 988 4650 1302 4700 
Q 1616 4750 1894 4750 
Q 2613 4750 3031 4423 
Q 3450 4097 3450 3541 
Q 3450 3153 3228 2886 
Q 3006 2619 2597 2516 
z
" transform="scale(0.015625)"/>
      <path id="DejaVuSans-19" d="M 2113 2584 
Q 1688 2584 1439 2293 
Q 1191 2003 1191 1497 
Q 1191 994 1439 701 
Q 1688 409 2113 409 
Q 2538 409 2786 701 
Q 3034 994 3034 1497 
Q 3034 2003 2786 2293 
Q 2538 2584 2113 2584 
z
M 3366 4563 
L 3366 3988 
Q 3128 4100 2886 4159 
Q 2644 4219 2406 4219 
Q 1781 4219 1451 3797 
Q 1122 3375 1075 2522 
Q 1259 2794 1537 2939 
Q 1816 3084 2150 3084 
Q 2853 3084 3261 2657 
Q 3669 2231 3669 1497 
Q 3669 778 3244 343 
Q 2819 -91 2113 -91 
Q 1303 -91 875 529 
Q 447 1150 447 2328 
Q 447 3434 972 4092 
Q 1497 4750 2381 4750 
Q 2619 4750 2861 4703 
Q 3103 4656 3366 4563 
z
" transform="scale(0.015625)"/>
     </defs>
     <use xlink:href="#DejaVuSans-15"/>
     <use xlink:href="#DejaVuSans-13" transform="translate(63.625 0)"/>
     <use xlink:href="#DejaVuSans-15" transform="translate(127.25 0)"/>
     <use xlink:href="#DejaVuSans-15" transform="translate(190.875 0)"/>
     <use xlink:href="#DejaVuSans-3" transform="translate(254.5 0)"/>
     <use xlink:href="#DejaVuSans-3" transform="translate(286.28125 0)"/>
     <use xlink:href="#DejaVuSans-79" transform="translate(318.0625 0)"/>
     <use xlink:href="#DejaVuSans-3" transform="translate(349.84375 0)"/>
     <use xlink:href="#DejaVuSans-3" transform="translate(381.625 0)"/>
     <use xlink:href="#DejaVuSans-16" transform="translate(413.40625 0)"/>
     <use xlink:href="#DejaVuSans-14" transform="translate(477.03125 0)"/>
     <use xlink:href="#DejaVuSans-1a" transform="translate(540.65625 0)"/>
     <use xlink:href="#DejaVuSans-f" transform="translate(604.28125 0)"/>
     <use xlink:href="#DejaVuSans-1c" transform="translate(636.0625 0)"/>
     <use xlink:href="#DejaVuSans-16" transform="translate(699.6875 0)"/>
     <use xlink:href="#DejaVuSans-19" transform="translate(763.3125 0)"/>
    </g>
   </g>
   <g id="text_22">
    <!-- 2025  ·  245,464 -->
    <g style="fill: #102a43" transform="translate(724.969284 330.09022) scale(0.115 -0.115)">
     <defs>
      <path id="DejaVuSans-18" d="M 691 4666 
L 3169 4666 
L 3169 4134 
L 1269 4134 
L 1269 2991 
Q 1406 3038 1543 3061 
Q 1681 3084 1819 3084 
Q 2600 3084 3056 2656 
Q 3513 2228 3513 1497 
Q 3513 744 3044 326 
Q 2575 -91 1722 -91 
Q 1428 -91 1123 -41 
Q 819 9 494 109 
L 494 744 
Q 775 591 1075 516 
Q 1375 441 1709 441 
Q 2250 441 2565 725 
Q 2881 1009 2881 1497 
Q 2881 1984 2565 2268 
Q 2250 2553 1709 2553 
Q 1456 2553 1204 2497 
Q 953 2441 691 2322 
L 691 4666 
z
" transform="scale(0.015625)"/>
     </defs>
     <use xlink:href="#DejaVuSans-15"/>
     <use xlink:href="#DejaVuSans-13" transform="translate(63.625 0)"/>
     <use xlink:href="#DejaVuSans-15" transform="translate(127.25 0)"/>
     <use xlink:href="#DejaVuSans-18" transform="translate(190.875 0)"/>
     <use xlink:href="#DejaVuSans-3" transform="translate(254.5 0)"/>
     <use xlink:href="#DejaVuSans-3" transform="translate(286.28125 0)"/>
     <use xlink:href="#DejaVuSans-79" transform="translate(318.0625 0)"/>
     <use xlink:href="#DejaVuSans-3" transform="translate(349.84375 0)"/>
     <use xlink:href="#DejaVuSans-3" transform="translate(381.625 0)"/>
     <use xlink:href="#DejaVuSans-15" transform="translate(413.40625 0)"/>
     <use xlink:href="#DejaVuSans-17" transform="translate(477.03125 0)"/>
     <use xlink:href="#DejaVuSans-18" transform="translate(540.65625 0)"/>
     <use xlink:href="#DejaVuSans-f" transform="translate(604.28125 0)"/>
     <use xlink:href="#DejaVuSans-17" transform="translate(636.0625 0)"/>
     <use xlink:href="#DejaVuSans-19" transform="translate(699.6875 0)"/>
     <use xlink:href="#DejaVuSans-17" transform="translate(763.3125 0)"/>
    </g>
   </g>
   <g id="text_23">
    <!-- 2021–2025  ·  27.2% of the 1989–2025 total -->
    <g style="fill: #8a6d1f" transform="translate(571.707301 142.379754) scale(0.115 -0.115)">
     <defs>
      <path id="DejaVuSans-af5" d="M 313 1978 
L 2888 1978 
L 2888 1528 
L 313 1528 
L 313 1978 
z
" transform="scale(0.015625)"/>
      <path id="DejaVuSans-11" d="M 684 794 
L 1344 794 
L 1344 0 
L 684 0 
L 684 794 
z
" transform="scale(0.015625)"/>
      <path id="DejaVuSans-8" d="M 4653 2053 
Q 4381 2053 4226 1822 
Q 4072 1591 4072 1178 
Q 4072 772 4226 539 
Q 4381 306 4653 306 
Q 4919 306 5073 539 
Q 5228 772 5228 1178 
Q 5228 1588 5073 1820 
Q 4919 2053 4653 2053 
z
M 4653 2450 
Q 5147 2450 5437 2106 
Q 5728 1763 5728 1178 
Q 5728 594 5436 251 
Q 5144 -91 4653 -91 
Q 4153 -91 3862 251 
Q 3572 594 3572 1178 
Q 3572 1766 3864 2108 
Q 4156 2450 4653 2450 
z
M 1428 4353 
Q 1159 4353 1004 4120 
Q 850 3888 850 3481 
Q 850 3069 1003 2837 
Q 1156 2606 1428 2606 
Q 1700 2606 1854 2837 
Q 2009 3069 2009 3481 
Q 2009 3884 1853 4118 
Q 1697 4353 1428 4353 
z
M 4250 4750 
L 4750 4750 
L 1831 -91 
L 1331 -91 
L 4250 4750 
z
M 1428 4750 
Q 1922 4750 2215 4408 
Q 2509 4066 2509 3481 
Q 2509 2891 2217 2550 
Q 1925 2209 1428 2209 
Q 931 2209 642 2551 
Q 353 2894 353 3481 
Q 353 4063 643 4406 
Q 934 4750 1428 4750 
z
" transform="scale(0.015625)"/>
      <path id="DejaVuSans-49" d="M 2375 4863 
L 2375 4384 
L 1825 4384 
Q 1516 4384 1395 4259 
Q 1275 4134 1275 3809 
L 1275 3500 
L 2222 3500 
L 2222 3053 
L 1275 3053 
L 1275 0 
L 697 0 
L 697 3053 
L 147 3053 
L 147 3500 
L 697 3500 
L 697 3744 
Q 697 4328 969 4595 
Q 1241 4863 1831 4863 
L 2375 4863 
z
" transform="scale(0.015625)"/>
      <path id="DejaVuSans-4f" d="M 603 4863 
L 1178 4863 
L 1178 0 
L 603 0 
L 603 4863 
z
" transform="scale(0.015625)"/>
     </defs>
     <use xlink:href="#DejaVuSans-15"/>
     <use xlink:href="#DejaVuSans-13" transform="translate(63.625 0)"/>
     <use xlink:href="#DejaVuSans-15" transform="translate(127.25 0)"/>
     <use xlink:href="#DejaVuSans-14" transform="translate(190.875 0)"/>
     <use xlink:href="#DejaVuSans-af5" transform="translate(254.5 0)"/>
     <use xlink:href="#DejaVuSans-15" transform="translate(304.5 0)"/>
     <use xlink:href="#DejaVuSans-13" transform="translate(368.125 0)"/>
     <use xlink:href="#DejaVuSans-15" transform="translate(431.75 0)"/>
     <use xlink:href="#DejaVuSans-18" transform="translate(495.375 0)"/>
     <use xlink:href="#DejaVuSans-3" transform="translate(559 0)"/>
     <use xlink:href="#DejaVuSans-3" transform="translate(590.78125 0)"/>
     <use xlink:href="#DejaVuSans-79" transform="translate(622.5625 0)"/>
     <use xlink:href="#DejaVuSans-3" transform="translate(654.34375 0)"/>
     <use xlink:href="#DejaVuSans-3" transform="translate(686.125 0)"/>
     <use xlink:href="#DejaVuSans-15" transform="translate(717.90625 0)"/>
     <use xlink:href="#DejaVuSans-1a" transform="translate(781.53125 0)"/>
     <use xlink:href="#DejaVuSans-11" transform="translate(845.15625 0)"/>
     <use xlink:href="#DejaVuSans-15" transform="translate(876.9375 0)"/>
     <use xlink:href="#DejaVuSans-8" transform="translate(940.5625 0)"/>
     <use xlink:href="#DejaVuSans-3" transform="translate(1035.578125 0)"/>
     <use xlink:href="#DejaVuSans-52" transform="translate(1067.359375 0)"/>
     <use xlink:href="#DejaVuSans-49" transform="translate(1128.546875 0)"/>
     <use xlink:href="#DejaVuSans-3" transform="translate(1163.75 0)"/>
     <use xlink:href="#DejaVuSans-57" transform="translate(1195.53125 0)"/>
     <use xlink:href="#DejaVuSans-4b" transform="translate(1234.734375 0)"/>
     <use xlink:href="#DejaVuSans-48" transform="translate(1298.109375 0)"/>
     <use xlink:href="#DejaVuSans-3" transform="translate(1359.640625 0)"/>
     <use xlink:href="#DejaVuSans-14" transform="translate(1391.421875 0)"/>
     <use xlink:href="#DejaVuSans-1c" transform="translate(1455.046875 0)"/>
     <use xlink:href="#DejaVuSans-1b" transform="translate(1518.671875 0)"/>
     <use xlink:href="#DejaVuSans-1c" transform="translate(1582.296875 0)"/>
     <use xlink:href="#DejaVuSans-af5" transform="translate(1645.921875 0)"/>
     <use xlink:href="#DejaVuSans-15" transform="translate(1695.921875 0)"/>
     <use xlink:href="#DejaVuSans-13" transform="translate(1759.546875 0)"/>
     <use xlink:href="#DejaVuSans-15" transform="translate(1823.171875 0)"/>
     <use xlink:href="#DejaVuSans-18" transform="translate(1886.796875 0)"/>
     <use xlink:href="#DejaVuSans-3" transform="translate(1950.421875 0)"/>
     <use xlink:href="#DejaVuSans-57" transform="translate(1982.203125 0)"/>
     <use xlink:href="#DejaVuSans-52" transform="translate(2021.40625 0)"/>
     <use xlink:href="#DejaVuSans-57" transform="translate(2082.59375 0)"/>
     <use xlink:href="#DejaVuSans-44" transform="translate(2121.796875 0)"/>
     <use xlink:href="#DejaVuSans-4f" transform="translate(2183.078125 0)"/>
    </g>
   </g>
   <g id="PathCollection_1">
    <defs>
     <path id="m47764ced22" d="M 0 3.464102 
C 0.91869 3.464102 1.799877 3.099102 2.44949 2.44949 
C 3.099102 1.799877 3.464102 0.91869 3.464102 0 
C 3.464102 -0.91869 3.099102 -1.799877 2.44949 -2.44949 
C 1.799877 -3.099102 0.91869 -3.464102 0 -3.464102 
C -0.91869 -3.464102 -1.799877 -3.099102 -2.44949 -2.44949 
C -3.099102 -1.799877 -3.464102 -0.91869 -3.464102 0 
C -3.464102 0.91869 -3.099102 1.799877 -2.44949 2.44949 
C -1.799877 3.099102 -0.91869 3.464102 0 3.464102 
z
" style="stroke: #ffffff; stroke-width: 1.1"/>
    </defs>
    <g clip-path="url(#p6d546a2ce8)">
     <use xlink:href="#m47764ced22" x="192.867097" y="113.515834" style="fill: #d4a44c; stroke: #ffffff; stroke-width: 1.1"/>
     <use xlink:href="#m47764ced22" x="768.402581" y="317.632205" style="fill: #d4a44c; stroke: #ffffff; stroke-width: 1.1"/>
     <use xlink:href="#m47764ced22" x="830.067097" y="346.852915" style="fill: #d4a44c; stroke: #ffffff; stroke-width: 1.1"/>
    </g>
   </g>
  </g>
  <g id="patch_5">
   <path d="M 11.52 506.88 
L 852.48 506.88 
L 852.48 11.52 
L 11.52 11.52 
L 11.52 506.88 
z
" style="fill: none"/>
  </g>
  <g id="text_24">
   <!-- UCDP Organized Violence best estimates · global annual total · 1989–2025 -->
   <g style="fill: #66788a" transform="translate(77.76 48.757969) scale(0.13 -0.13)">
    <defs>
     <path id="DejaVuSans-38" d="M 556 4666 
L 1191 4666 
L 1191 1831 
Q 1191 1081 1462 751 
Q 1734 422 2344 422 
Q 2950 422 3222 751 
Q 3494 1081 3494 1831 
L 3494 4666 
L 4128 4666 
L 4128 1753 
Q 4128 841 3676 375 
Q 3225 -91 2344 -91 
Q 1459 -91 1007 375 
Q 556 841 556 1753 
L 556 4666 
z
" transform="scale(0.015625)"/>
     <path id="DejaVuSans-26" d="M 4122 4306 
L 4122 3641 
Q 3803 3938 3442 4084 
Q 3081 4231 2675 4231 
Q 1875 4231 1450 3742 
Q 1025 3253 1025 2328 
Q 1025 1406 1450 917 
Q 1875 428 2675 428 
Q 3081 428 3442 575 
Q 3803 722 4122 1019 
L 4122 359 
Q 3791 134 3420 21 
Q 3050 -91 2638 -91 
Q 1578 -91 968 557 
Q 359 1206 359 2328 
Q 359 3453 968 4101 
Q 1578 4750 2638 4750 
Q 3056 4750 3426 4639 
Q 3797 4528 4122 4306 
z
" transform="scale(0.015625)"/>
     <path id="DejaVuSans-27" d="M 1259 4147 
L 1259 519 
L 2022 519 
Q 2988 519 3436 956 
Q 3884 1394 3884 2338 
Q 3884 3275 3436 3711 
Q 2988 4147 2022 4147 
L 1259 4147 
z
M 628 4666 
L 1925 4666 
Q 3281 4666 3915 4102 
Q 4550 3538 4550 2338 
Q 4550 1131 3912 565 
Q 3275 0 1925 0 
L 628 0 
L 628 4666 
z
" transform="scale(0.015625)"/>
     <path id="DejaVuSans-33" d="M 1259 4147 
L 1259 2394 
L 2053 2394 
Q 2494 2394 2734 2622 
Q 2975 2850 2975 3272 
Q 2975 3691 2734 3919 
Q 2494 4147 2053 4147 
L 1259 4147 
z
M 628 4666 
L 2053 4666 
Q 2838 4666 3239 4311 
Q 3641 3956 3641 3272 
Q 3641 2581 3239 2228 
Q 2838 1875 2053 1875 
L 1259 1875 
L 1259 0 
L 628 0 
L 628 4666 
z
" transform="scale(0.015625)"/>
     <path id="DejaVuSans-32" d="M 2522 4238 
Q 1834 4238 1429 3725 
Q 1025 3213 1025 2328 
Q 1025 1447 1429 934 
Q 1834 422 2522 422 
Q 3209 422 3611 934 
Q 4013 1447 4013 2328 
Q 4013 3213 3611 3725 
Q 3209 4238 2522 4238 
z
M 2522 4750 
Q 3503 4750 4090 4092 
Q 4678 3434 4678 2328 
Q 4678 1225 4090 567 
Q 3503 -91 2522 -91 
Q 1538 -91 948 565 
Q 359 1222 359 2328 
Q 359 3434 948 4092 
Q 1538 4750 2522 4750 
z
" transform="scale(0.015625)"/>
     <path id="DejaVuSans-4a" d="M 2906 1791 
Q 2906 2416 2648 2759 
Q 2391 3103 1925 3103 
Q 1463 3103 1205 2759 
Q 947 2416 947 1791 
Q 947 1169 1205 825 
Q 1463 481 1925 481 
Q 2391 481 2648 825 
Q 2906 1169 2906 1791 
z
M 3481 434 
Q 3481 -459 3084 -895 
Q 2688 -1331 1869 -1331 
Q 1566 -1331 1297 -1286 
Q 1028 -1241 775 -1147 
L 775 -588 
Q 1028 -725 1275 -790 
Q 1522 -856 1778 -856 
Q 2344 -856 2625 -561 
Q 2906 -266 2906 331 
L 2906 616 
Q 2728 306 2450 153 
Q 2172 0 1784 0 
Q 1141 0 747 490 
Q 353 981 353 1791 
Q 353 2603 747 3093 
Q 1141 3584 1784 3584 
Q 2172 3584 2450 3431 
Q 2728 3278 2906 2969 
L 2906 3500 
L 3481 3500 
L 3481 434 
z
" transform="scale(0.015625)"/>
     <path id="DejaVuSans-51" d="M 3513 2113 
L 3513 0 
L 2938 0 
L 2938 2094 
Q 2938 2591 2744 2837 
Q 2550 3084 2163 3084 
Q 1697 3084 1428 2787 
Q 1159 2491 1159 1978 
L 1159 0 
L 581 0 
L 581 3500 
L 1159 3500 
L 1159 2956 
Q 1366 3272 1645 3428 
Q 1925 3584 2291 3584 
Q 2894 3584 3203 3211 
Q 3513 2838 3513 2113 
z
" transform="scale(0.015625)"/>
     <path id="DejaVuSans-5d" d="M 353 3500 
L 3084 3500 
L 3084 2975 
L 922 459 
L 3084 459 
L 3084 0 
L 275 0 
L 275 525 
L 2438 3041 
L 353 3041 
L 353 3500 
z
" transform="scale(0.015625)"/>
     <path id="DejaVuSans-39" d="M 1831 0 
L 50 4666 
L 709 4666 
L 2188 738 
L 3669 4666 
L 4325 4666 
L 2547 0 
L 1831 0 
z
" transform="scale(0.015625)"/>
     <path id="DejaVuSans-58" d="M 544 1381 
L 544 3500 
L 1119 3500 
L 1119 1403 
Q 1119 906 1312 657 
Q 1506 409 1894 409 
Q 2359 409 2629 706 
Q 2900 1003 2900 1516 
L 2900 3500 
L 3475 3500 
L 3475 0 
L 2900 0 
L 2900 538 
Q 2691 219 2414 64 
Q 2138 -91 1772 -91 
Q 1169 -91 856 284 
Q 544 659 544 1381 
z
M 1991 3584 
L 1991 3584 
z
" transform="scale(0.015625)"/>
    </defs>
    <use xlink:href="#DejaVuSans-38"/>
    <use xlink:href="#DejaVuSans-26" transform="translate(73.1875 0)"/>
    <use xlink:href="#DejaVuSans-27" transform="translate(143.015625 0)"/>
    <use xlink:href="#DejaVuSans-33" transform="translate(220.015625 0)"/>
    <use xlink:href="#DejaVuSans-3" transform="translate(280.3125 0)"/>
    <use xlink:href="#DejaVuSans-32" transform="translate(312.09375 0)"/>
    <use xlink:href="#DejaVuSans-55" transform="translate(390.8125 0)"/>
    <use xlink:href="#DejaVuSans-4a" transform="translate(430.171875 0)"/>
    <use xlink:href="#DejaVuSans-44" transform="translate(493.65625 0)"/>
    <use xlink:href="#DejaVuSans-51" transform="translate(554.9375 0)"/>
    <use xlink:href="#DejaVuSans-4c" transform="translate(618.3125 0)"/>
    <use xlink:href="#DejaVuSans-5d" transform="translate(646.09375 0)"/>
    <use xlink:href="#DejaVuSans-48" transform="translate(698.578125 0)"/>
    <use xlink:href="#DejaVuSans-47" transform="translate(760.109375 0)"/>
    <use xlink:href="#DejaVuSans-3" transform="translate(823.59375 0)"/>
    <use xlink:href="#DejaVuSans-39" transform="translate(855.375 0)"/>
    <use xlink:href="#DejaVuSans-4c" transform="translate(921.578125 0)"/>
    <use xlink:href="#DejaVuSans-52" transform="translate(949.359375 0)"/>
    <use xlink:href="#DejaVuSans-4f" transform="translate(1010.546875 0)"/>
    <use xlink:href="#DejaVuSans-48" transform="translate(1038.328125 0)"/>
    <use xlink:href="#DejaVuSans-51" transform="translate(1099.859375 0)"/>
    <use xlink:href="#DejaVuSans-46" transform="translate(1163.234375 0)"/>
    <use xlink:href="#DejaVuSans-48" transform="translate(1218.21875 0)"/>
    <use xlink:href="#DejaVuSans-3" transform="translate(1279.75 0)"/>
    <use xlink:href="#DejaVuSans-45" transform="translate(1311.53125 0)"/>
    <use xlink:href="#DejaVuSans-48" transform="translate(1375.015625 0)"/>
    <use xlink:href="#DejaVuSans-56" transform="translate(1436.546875 0)"/>
    <use xlink:href="#DejaVuSans-57" transform="translate(1488.640625 0)"/>
    <use xlink:href="#DejaVuSans-3" transform="translate(1527.84375 0)"/>
    <use xlink:href="#DejaVuSans-48" transform="translate(1559.625 0)"/>
    <use xlink:href="#DejaVuSans-56" transform="translate(1621.15625 0)"/>
    <use xlink:href="#DejaVuSans-57" transform="translate(1673.25 0)"/>
    <use xlink:href="#DejaVuSans-4c" transform="translate(1712.453125 0)"/>
    <use xlink:href="#DejaVuSans-50" transform="translate(1740.234375 0)"/>
    <use xlink:href="#DejaVuSans-44" transform="translate(1837.640625 0)"/>
    <use xlink:href="#DejaVuSans-57" transform="translate(1898.921875 0)"/>
    <use xlink:href="#DejaVuSans-48" transform="translate(1938.125 0)"/>
    <use xlink:href="#DejaVuSans-56" transform="translate(1999.65625 0)"/>
    <use xlink:href="#DejaVuSans-3" transform="translate(2051.75 0)"/>
    <use xlink:href="#DejaVuSans-79" transform="translate(2083.53125 0)"/>
    <use xlink:href="#DejaVuSans-3" transform="translate(2115.3125 0)"/>
    <use xlink:href="#DejaVuSans-4a" transform="translate(2147.09375 0)"/>
    <use xlink:href="#DejaVuSans-4f" transform="translate(2210.578125 0)"/>
    <use xlink:href="#DejaVuSans-52" transform="translate(2238.359375 0)"/>
    <use xlink:href="#DejaVuSans-45" transform="translate(2299.546875 0)"/>
    <use xlink:href="#DejaVuSans-44" transform="translate(2363.03125 0)"/>
    <use xlink:href="#DejaVuSans-4f" transform="translate(2424.3125 0)"/>
    <use xlink:href="#DejaVuSans-3" transform="translate(2452.09375 0)"/>
    <use xlink:href="#DejaVuSans-44" transform="translate(2483.875 0)"/>
    <use xlink:href="#DejaVuSans-51" transform="translate(2545.15625 0)"/>
    <use xlink:href="#DejaVuSans-51" transform="translate(2608.53125 0)"/>
    <use xlink:href="#DejaVuSans-58" transform="translate(2671.90625 0)"/>
    <use xlink:href="#DejaVuSans-44" transform="translate(2735.28125 0)"/>
    <use xlink:href="#DejaVuSans-4f" transform="translate(2796.5625 0)"/>
    <use xlink:href="#DejaVuSans-3" transform="translate(2824.34375 0)"/>
    <use xlink:href="#DejaVuSans-57" transform="translate(2856.125 0)"/>
    <use xlink:href="#DejaVuSans-52" transform="translate(2895.328125 0)"/>
    <use xlink:href="#DejaVuSans-57" transform="translate(2956.515625 0)"/>
    <use xlink:href="#DejaVuSans-44" transform="translate(2995.71875 0)"/>
    <use xlink:href="#DejaVuSans-4f" transform="translate(3057 0)"/>
    <use xlink:href="#DejaVuSans-3" transform="translate(3084.78125 0)"/>
    <use xlink:href="#DejaVuSans-79" transform="translate(3116.5625 0)"/>
    <use xlink:href="#DejaVuSans-3" transform="translate(3148.34375 0)"/>
    <use xlink:href="#DejaVuSans-14" transform="translate(3180.125 0)"/>
    <use xlink:href="#DejaVuSans-1c" transform="translate(3243.75 0)"/>
    <use xlink:href="#DejaVuSans-1b" transform="translate(3307.375 0)"/>
    <use xlink:href="#DejaVuSans-1c" transform="translate(3371 0)"/>
    <use xlink:href="#DejaVuSans-af5" transform="translate(3434.625 0)"/>
    <use xlink:href="#DejaVuSans-15" transform="translate(3484.625 0)"/>
    <use xlink:href="#DejaVuSans-13" transform="translate(3548.25 0)"/>
    <use xlink:href="#DejaVuSans-15" transform="translate(3611.875 0)"/>
    <use xlink:href="#DejaVuSans-18" transform="translate(3675.5 0)"/>
   </g>
  </g>
 </g>
 <defs>
  <clipPath id="p6d546a2ce8">
   <rect x="77.76" y="82.944" width="764.64" height="362.88"/>
  </clipPath>
 </defs>
</svg>
